<?xml version="1.0" encoding="UTF-8"?>
<svg id="_レイヤー_2" data-name="レイヤー 2" xmlns="http://www.w3.org/2000/svg" viewBox="0 0 675.98 75.42">
  <defs>
    <style>
      .cls-1 {
        fill: #00235f;
        stroke-width: 0px;
      }
    </style>
  </defs>
  <g id="_レイヤー_1-2" data-name="レイヤー 1">
    <g>
      <g>
        <path class="cls-1" d="M159.24,36.51c4.89.83,8.77,3.17,8.77,8.02,0,3.36-1.91,6.1-4.85,7.7-2.6,1.44-5.28,1.98-8.83,1.98h-12.64v-1.49c4.19-.4,4.47-.82,4.47-4.82v-19.92c0-4.17-.49-4.54-4.46-4.87v-1.49h13.51c3.77,0,6.13.62,7.81,1.76,1.77,1.2,2.98,3.07,2.98,5.61,0,4.61-3.87,6.83-6.76,7.53ZM153.37,35.9c5.38,0,7.55-2.18,7.55-6.22,0-3.66-2.28-6.18-6.73-6.18-1.37,0-2.24.15-2.73.48-.43.31-.54.84-.54,2.35v9.57h2.45ZM150.92,47.81c0,3.61,1,4.55,4.4,4.54,3.7,0,7.31-2.17,7.31-7.32s-3.4-7.29-9.43-7.29h-2.29v10.08Z"/>
        <path class="cls-1" d="M202.68,54.6c-.59,0-1.15-.04-1.79-.09-4.15-.26-6.08-1.28-8.16-4.21-1.88-2.59-3.62-5.73-5.25-8.37-.96-1.56-1.62-1.86-4-1.86h-1.62s0,7.76,0,7.76c0,4.23.54,4.49,4.51,4.9v1.49h-13.74v-1.49c4.1-.44,4.47-.68,4.47-4.9v-19.86c0-4.21-.54-4.43-4.47-4.85v-1.49h13.1c3.8,0,6.28.46,8.21,1.74,2.05,1.31,3.4,3.56,3.4,6.63,0,4.34-2.79,6.98-6.43,8.53.88,1.54,3,4.89,4.5,7.15,1.84,2.68,2.82,3.95,3.93,5.17,1.32,1.43,2.36,1.95,3.57,2.29l-.23,1.46ZM184.07,38.29c2.53,0,4.18-.39,5.41-1.43,1.9-1.44,2.69-3.43,2.69-6.11,0-5.36-3.47-7.3-7.14-7.3-1.44,0-2.25.2-2.59.5-.43.34-.57.86-.57,2.11v12.23h2.22Z"/>
        <path class="cls-1" d="M204.21,54.22v-1.49c4.06-.43,4.47-.65,4.47-4.9v-19.76c0-4.29-.42-4.53-4.47-4.95v-1.49h13.81v1.49c-4.09.43-4.51.66-4.51,4.95v19.76c0,4.28.41,4.46,4.51,4.9v1.49h-13.81Z"/>
        <path class="cls-1" d="M237.12,21.63c6.95,0,11.46,1.4,14.59,4.36,2.47,2.4,4.31,5.91,4.31,10.77,0,5.85-2.41,10.55-6.27,13.46-3.79,2.85-8.64,4.01-14.72,4.01h-12.1v-1.49c4.22-.38,4.47-.75,4.47-4.87v-19.83c0-4.29-.59-4.53-4.47-4.91v-1.49h14.2ZM232.21,47.47c0,3.72,1.48,4.8,5.22,4.8,8.62,0,13.1-5.9,13.1-14.81,0-5.34-1.76-9.5-5.42-11.86-2.27-1.57-5.12-2.15-8.48-2.15-2.18,0-3.32.32-3.79.7-.45.33-.63.93-.63,2.8v20.51Z"/>
        <path class="cls-1" d="M277.74,54.22v-1.49c3.24-.41,3.57-.92,2.87-2.87-.62-1.87-1.59-4.34-2.59-7.29h-10.64c-.76,2.13-1.5,4.08-2.17,6.04-1.09,3.24-.3,3.64,3.78,4.12v1.49h-11.73v-1.49c3.16-.4,3.96-.77,5.71-5.23l10.39-26.25,1.75-.33c3.17,8.6,6.62,17.98,9.79,26.6,1.65,4.42,2.1,4.81,5.61,5.21v1.49h-12.77ZM272.83,27.99c-1.58,4.18-3.23,8.53-4.69,12.44h9.12l-4.44-12.44Z"/>
        <path class="cls-1" d="M317.58,45.8c-.32,1.66-1.8,6.9-2.3,8.41h-23.59v-1.49c4.53-.42,4.94-.69,4.94-4.95v-19.76c0-4.25-.5-4.53-4.47-4.91v-1.49h13.83v1.49c-3.99.39-4.54.62-4.54,4.91v20.23c0,3,.35,3.81,3.19,3.86.06,0,3.43.05,3.72.05,2.61,0,3.36-.35,4.52-1.63,1.2-1.25,2.3-3.28,3.08-5.17l1.62.44Z"/>
        <path class="cls-1" d="M350.48,20.93c8.7,0,16.35,6.6,16.35,16.56,0,10.76-7.37,17.48-16.64,17.48s-16.76-7.32-16.76-16.79c0-8.9,6.32-17.25,17.06-17.25ZM349.52,22.84c-5.53,0-10.4,4.77-10.4,14.05s4.8,16.11,11.85,16.11c5.83,0,10.24-4.53,10.24-14.12,0-10.42-5.27-16.05-11.7-16.05Z"/>
        <path class="cls-1" d="M394.02,29.54c-.47-1.49-.94-2.82-1.67-3.89-.97-1.6-1.71-1.96-4.44-1.96h-5.08c-1.5,0-1.66.14-1.66,1.64v11.46h6.06c3.49,0,3.77-.63,4.52-4.14h1.57v10.6h-1.62c-.63-3.49-1.06-4.3-4.47-4.3h-6.06v8.77c0,4.41.47,4.63,5.02,5.02v1.49h-14.32v-1.49c4.02-.31,4.47-.65,4.47-5.02v-19.6c0-4.38-.49-4.62-4.47-5v-1.49h16.09c4.48,0,6.33-.05,7.17-.1.05,1.63.26,5.29.51,7.79l-1.63.22Z"/>
        <path class="cls-1" d="M422.25,29.54c-.47-1.49-.94-2.82-1.67-3.89-.97-1.6-1.71-1.96-4.44-1.96h-5.08c-1.5,0-1.66.14-1.66,1.64v11.46h6.06c3.49,0,3.77-.63,4.52-4.14h1.57v10.6h-1.62c-.63-3.49-1.06-4.3-4.47-4.3h-6.06v8.77c0,4.41.47,4.63,5.02,5.02v1.49h-14.32v-1.49c4.02-.31,4.47-.65,4.47-5.02v-19.6c0-4.38-.49-4.62-4.47-5v-1.49h16.09c4.48,0,6.33-.05,7.17-.1.05,1.63.26,5.29.51,7.79l-1.63.22Z"/>
        <path class="cls-1" d="M428.33,54.22v-1.49c4.06-.43,4.47-.65,4.47-4.9v-19.76c0-4.29-.42-4.53-4.47-4.95v-1.49h13.81v1.49c-4.09.43-4.51.66-4.51,4.95v19.76c0,4.28.41,4.46,4.51,4.9v1.49h-13.81Z"/>
        <path class="cls-1" d="M477.31,46.09c-.7,2.42-2.01,6.07-2.77,7.66-1.43.3-5.37,1.22-9.18,1.22-12.25,0-18.27-8.1-18.27-16.73,0-10.26,7.8-17.32,19.17-17.32,4.32,0,7.89.93,9.48,1.16.21,2.27.56,5.41.95,7.86l-1.64.35c-1.01-3.46-2.27-5.48-4.84-6.53-1.29-.58-3.3-.91-5.1-.91-8.09,0-12.33,6.11-12.33,14.31,0,9.59,4.96,15.8,12.86,15.8,4.95,0,7.51-2.33,10.1-7.43l1.58.55Z"/>
        <path class="cls-1" d="M482.13,54.22v-1.49c4.06-.43,4.47-.65,4.47-4.9v-19.76c0-4.29-.42-4.53-4.47-4.95v-1.49h13.81v1.49c-4.09.43-4.51.66-4.51,4.95v19.76c0,4.28.41,4.46,4.51,4.9v1.49h-13.81Z"/>
        <path class="cls-1" d="M517.54,54.22v-1.49c3.24-.41,3.57-.92,2.87-2.87-.62-1.87-1.59-4.34-2.59-7.29h-10.64c-.76,2.13-1.5,4.08-2.17,6.04-1.09,3.24-.3,3.64,3.78,4.12v1.49h-11.73v-1.49c3.16-.4,3.96-.77,5.71-5.23l10.39-26.25,1.75-.33c3.17,8.6,6.62,17.98,9.79,26.6,1.65,4.42,2.1,4.81,5.61,5.21v1.49h-12.77ZM512.64,27.99c-1.58,4.18-3.23,8.53-4.69,12.44h9.12l-4.44-12.44Z"/>
        <path class="cls-1" d="M557.39,45.8c-.32,1.66-1.8,6.9-2.3,8.41h-23.59v-1.49c4.53-.42,4.94-.69,4.94-4.95v-19.76c0-4.25-.5-4.53-4.47-4.91v-1.49h13.83v1.49c-3.99.39-4.54.62-4.54,4.91v20.23c0,3,.35,3.81,3.19,3.86.06,0,3.43.05,3.72.05,2.61,0,3.36-.35,4.52-1.63,1.2-1.25,2.3-3.28,3.08-5.17l1.62.44Z"/>
        <path class="cls-1" d="M590.82,29.37c-.88-3.29-2.28-6.62-6.98-6.62-3.73,0-5.18,2.71-5.18,5.36,0,3.33,2.14,5.07,6.35,7.23,5.9,3.03,8.65,5.39,8.65,10.19,0,5.38-4.63,9.45-11.22,9.45-3.04,0-5.7-.85-7.81-1.64-.38-1.36-1.03-5.09-1.38-7.74l1.63-.41c1,3.32,3.32,7.88,8.48,7.88,3.51,0,5.65-2.4,5.65-5.65,0-3.69-2.01-5.27-6.39-7.65-5.26-2.85-8.29-5.27-8.29-10.04s3.78-8.81,10.56-8.81c2.93,0,5.66.75,6.72.94.2,1.81.43,3.93.83,7.17l-1.62.33Z"/>
        <path class="cls-1" d="M598.6,54.22v-1.49c4.06-.43,4.47-.65,4.47-4.9v-19.76c0-4.29-.42-4.53-4.47-4.95v-1.49h13.81v1.49c-4.09.43-4.51.66-4.51,4.95v19.76c0,4.28.41,4.46,4.51,4.9v1.49h-13.81Z"/>
        <path class="cls-1" d="M643.91,29.64c-.47-1.73-1.16-3.43-1.7-4.3-.82-1.3-1.3-1.66-4.1-1.66h-4.69v24.26c0,3.97.42,4.47,5.13,4.78v1.49h-14.96v-1.49c4.59-.31,5-.78,5-4.78v-24.26h-4.29c-2.77,0-3.57.33-4.44,1.78-.62.99-1.08,2.31-1.73,4.19h-1.58c.31-3.17.62-6.46.76-9.2h1.22c.75,1.19,1.31,1.17,2.73,1.17h19.89c1.4,0,1.85-.22,2.62-1.17h1.25c0,2.31.21,6.07.46,9.04l-1.58.15Z"/>
        <path class="cls-1" d="M675.98,46.14c-.29,1.31-1.65,6.59-2.15,8.07h-24.66v-1.48c4.64-.37,4.99-.78,4.99-4.91v-19.69c0-4.43-.56-4.69-4.26-5.03v-1.49h15.51c4.81,0,6.73-.05,7.35-.1.05,1.19.26,5.01.46,7.75l-1.59.25c-.45-1.7-1.02-2.94-1.62-3.96-.82-1.54-1.88-1.88-4.81-1.88h-4.49c-1.62,0-1.74.14-1.74,1.64v10.97h5.45c3.59,0,3.89-.75,4.51-4.19h1.63v10.48h-1.63c-.68-3.63-1.08-4.15-4.56-4.15h-5.4v9.73c0,3.5.92,3.94,3.54,3.99h4.46c3.01,0,3.56-.43,4.66-1.75,1.01-1.12,2.05-3.14,2.77-4.68l1.57.41Z"/>
      </g>
      <g>
        <path class="cls-1" d="M108.23,22.33c.31,5.16-.72,9.41-.72,9.41h2.08l4.87-19.1s-2.78-6.08-14.59-6.08-23.44,11.11-28.65,18.58c-5.21,7.47-11.11,21.18-9.38,32.47,1.35,8.76,3.65,11.4,6.6,14.07,1.69,1.53,7.12,4.35,12.68,3.65,5.56-.7,13.72-3.65,19.8-12.33,6.07-8.68,6.94-12.5,6.94-12.5h-1.39c-1.04,2.78-7.29,11.98-17.01,15.8-8.98,3.52-17.19-.87-18.06-10.59-.95-10.64,2.03-25.42,11.98-36.12,6.55-7.04,11.05-9.22,16.49-8.86,5.06.33,8.03,5.82,8.37,11.61Z"/>
        <path class="cls-1" d="M62.93,7.77c0-2.85,2.31-5.16,5.16-5.16s5.15,2.31,5.15,5.16-2.31,5.16-5.15,5.16-5.16-2.31-5.16-5.16ZM68.09,15.53c4.29,0,7.77-3.47,7.77-7.77s-3.48-7.77-7.77-7.77-7.77,3.48-7.77,7.77,3.48,7.77,7.77,7.77Z"/>
        <path class="cls-1" d="M13.97,48.74l26.24-26.27-6.9,26.27H13.97ZM0,54.65h31.76l-4.93,18.75h9.92l4.93-18.75h9.44l1.55-5.91h-9.44L55.62,1.57,0,54.65Z"/>
      </g>
    </g>
  </g>
</svg>