<svg xmlns="http://www.w3.org/2000/svg" width="155" height="20" viewBox="0 0 155 20">
  <defs>
    <style>
      .cls-1 {
        fill-rule: evenodd;
      }
    </style>
  </defs>
  <path id="logo" class="cls-1" d="M119.234,94.628H119.2c-1.642-.055-2.88-0.087-4.319-0.087-1.505,0-2.7.032-4.38,0.087h-0.032l-0.027-.012a0.541,0.541,0,0,1-.281-0.422,0.587,0.587,0,0,1,.174-0.54l0.074-.03,0.872-.082c1.943-.189,2-0.474,2-3.478V79.921c0-3.027-.061-3.362-2-3.5l-0.924-.074a0.45,0.45,0,0,1-.2-0.459,0.573,0.573,0,0,1,.286-0.516l0.027-.011h0.032c1.7,0.057,2.9.085,4.38,0.085,1.42,0,2.614-.028,4.319-0.085h0.03l0.023,0.011a0.568,0.568,0,0,1,.282.516,0.441,0.441,0,0,1-.2.459l-0.054.018-0.868.056c-1.935.136-2,.471-2,3.5V90.065c0,3,.062,3.289,2,3.478l0.922,0.1a0.425,0.425,0,0,1,.2.454,0.585,0.585,0,0,1-.282.515l-0.023.012h0Zm6.239-8.692-0.04-.036a1.285,1.285,0,0,1-.514-1.07,1.22,1.22,0,0,1,.378-0.787l0.037-.034,8.274,0.007a1.086,1.086,0,0,1,.524,1.085,1.12,1.12,0,0,1-.38.787l-0.04.034-8.239.015h0Zm14.665,8.692-0.021-.012a0.524,0.524,0,0,1-.28-0.422,0.586,0.586,0,0,1,.176-0.54l0.067-.03,0.729-.082c1.92-.224,1.964-0.45,1.964-3.422V79.614c0-2.459-.086-2.777-1.5-2.9l-1.324-.14a0.561,0.561,0,0,1-.221-0.527,0.53,0.53,0,0,1,.32-0.444,65.2,65.2,0,0,1,6.945-.238c3.091,0,5.175.361,6.754,1.155a4.913,4.913,0,0,1,2.871,4.4,5.11,5.11,0,0,1-3.573,4.671,14.289,14.289,0,0,1-4.867.861,0.467,0.467,0,0,1-.326-0.474,0.4,0.4,0,0,1,.255-0.385c3.43-.517,5.016-1.992,5.016-4.643,0-2.763-2.042-4.41-5.464-4.41-1.746,0-1.746.047-1.746,0.881v12.7c0,2.954.066,3.232,2.178,3.422l1,0.106a0.523,0.523,0,0,1,.184.5,0.537,0.537,0,0,1-.28.465l-0.02.012h-0.033c-2.085-.06-3.173-0.087-4.533-0.087-1.38,0-2.62.027-4.24,0.087h-0.032Zm42.942,0.221c-3.171,0-4.948-.878-7.314-3.637-0.456-.529-1.04-1.28-1.653-2.079-0.608-.779-1.22-1.585-1.764-2.227a2.578,2.578,0,0,0-2.366-.855c-1.5,0-1.5,0-1.5.479v3.591c0,2.972.053,3.2,1.965,3.422l0.8,0.106a0.506,0.506,0,0,1,.187.5,0.538,0.538,0,0,1-.281.465l-0.032.012h-0.027c-1.681-.068-2.84-0.087-4.137-0.087-1.377,0-2.6.019-4.351,0.087h-0.027l-0.028-.012a0.491,0.491,0,0,1-.276-0.39,0.614,0.614,0,0,1,.157-0.563l0.035-.035,0.919-.085c1.913-.189,1.961-0.468,1.961-3.422V79.9c0-2.763-.13-3.062-1.4-3.186l-1.177-.135a0.547,0.547,0,0,1-.245-0.52,0.5,0.5,0,0,1,.3-0.456c2.182-.167,4.649-0.238,7.822-0.238a15,15,0,0,1,5.871.87,4.395,4.395,0,0,1,2.973,4.117c0,3.15-3.323,4.521-4.4,4.884a0.6,0.6,0,0,0,.2.466c2.634,3.489,4.557,5.889,6.963,7.549a4.564,4.564,0,0,0,2.343.775,0.362,0.362,0,0,1,.273.3,0.389,0.389,0,0,1-.174.367,6.212,6.212,0,0,1-1.613.161h0ZM170.609,76.54c-2.124,0-2.124.1-2.124,0.766v6.665a2.24,2.24,0,0,0,.072.842,13.078,13.078,0,0,0,2.3.094,6.8,6.8,0,0,0,3.511-.722,3.7,3.7,0,0,0,1.675-3.4c0-1.962-1.421-4.242-5.432-4.242h0Zm27.56,18.088h-0.027c-1.647-.055-2.877-0.087-4.316-0.087-1.506,0-2.7.032-4.388,0.087h-0.027l-0.029-.012a0.535,0.535,0,0,1-.275-0.422,0.586,0.586,0,0,1,.17-0.54l0.076-.03,0.873-.082c1.943-.189,2-0.474,2-3.478V79.921c0-3.027-.06-3.362-1.995-3.5l-0.927-.074a0.487,0.487,0,0,1-.2-0.459,0.592,0.592,0,0,1,.284-0.516l0.029-.011h0.027c1.709,0.057,2.907.085,4.388,0.085,1.421,0,2.609-.028,4.316-0.085h0.027l0.035,0.011a0.587,0.587,0,0,1,.278.516,0.465,0.465,0,0,1-.2.459l-0.053.018-0.872.056c-1.928.136-1.985,0.471-1.985,3.5V90.065c0,3,.053,3.289,2,3.478l0.915,0.1a0.448,0.448,0,0,1,.2.454,0.586,0.586,0,0,1-.278.515l-0.035.012h0Zm21.018,0.2a0.616,0.616,0,0,1-.424-0.166,48.268,48.268,0,0,0-2.66-5l-0.417-.716-3.13-5.5c-0.315-.544-0.622-1.128-0.935-1.723-0.362-.688-0.747-1.41-1.127-2.09-0.13,1.643-.229,3.2-0.326,4.719-0.107,1.882-.241,4.335-0.241,6.684,0,2.075.2,2.425,1.433,2.506l1.392,0.111a0.589,0.589,0,0,1,.224.565,0.462,0.462,0,0,1-.295.4l-0.024.012h-0.032c-1.145-.055-2.482-0.087-3.856-0.087-1.145,0-2.408.032-3.543,0.087h-0.05l-0.033-.026a0.67,0.67,0,0,1-.262-0.547,0.486,0.486,0,0,1,.186-0.405l0.065-.024,0.772-.082c1.412-.172,1.839-0.3,2.032-2.208,0.212-1.877.38-3.467,0.59-6.266,0.188-2.571.327-4.959,0.385-6.346,0.071-1.69-.117-2.079-2.205-2.3l-0.6-.059-0.043-.038a0.623,0.623,0,0,1-.14-0.53,0.577,0.577,0,0,1,.324-0.422l0.034-.011h0.031c1.1,0.064,1.925.085,2.746,0.085s1.735,0,2.88-.085l0.172-.014-0.02.178c-0.149,1.174.947,3.191,1.793,4.614l4.31,7.141c0.668,1.113,1.294,2.171,1.984,3.206,0.8-1.161,1.571-2.452,2.316-3.7l3.9-6.469c1.327-2.192,2.208-3.649,2.276-4.824l0-.143,0.149,0.007c1.176,0.085,1.9.085,2.607,0.085,0.916,0,2.071-.028,3.086-0.085h0.04l0.036,0.015a0.567,0.567,0,0,1,.237.475,0.58,0.58,0,0,1-.193.486l-0.069.028-0.729.056c-2.118.164-2.337,0.663-2.305,2.558,0.013,0.663.031,1.439,0.045,2.291,0.051,3.077.115,6.9,0.339,10.095l0.009,0.216c0.094,1.275.134,1.86,1.568,1.956l1.191,0.116a0.585,0.585,0,0,1,.18.526,0.512,0.512,0,0,1-.282.434l-0.027.013h-0.04c-1.382-.055-2.816-0.087-4.106-0.087s-2.871.032-4.2,0.087h-0.044l-0.036-.019a0.6,0.6,0,0,1-.275-0.469,0.541,0.541,0,0,1,.192-0.485l0.074-.03,1.011-.082c1.578-.135,1.578-0.465,1.578-2.285L228.6,79.74c-0.219.355-.581,0.96-0.957,1.59-0.405.664-.82,1.355-1.117,1.835l-3.107,4.981c-1.688,2.7-3.164,5.245-3.75,6.484a0.559,0.559,0,0,1-.48.193h0ZM252.932,95c-8.237,0-12.549-4.932-12.549-9.8,0-5.807,5.393-10.2,12.549-10.2,8.406,0,12.224,5.144,12.224,9.911C265.156,90.656,259.9,95,252.932,95h0Zm-0.594-18.83c-3.779,0-8.192,2.125-8.192,8.114,0,3.544,1.943,9.546,9.23,9.546,3.7,0,8.014-2.1,8.014-8.036,0-4.437-2.371-9.624-9.052-9.624h0Z" transform="translate(-110.156 -75)"/>
</svg>
