<?xml version="1.0" encoding="utf-8"?>
<!-- Generator: Adobe Illustrator 16.0.0, SVG Export Plug-In . SVG Version: 6.00 Build 0)  -->
<!DOCTYPE svg PUBLIC "-//W3C//DTD SVG 1.1//EN" "http://www.w3.org/Graphics/SVG/1.1/DTD/svg11.dtd">
<svg version="1.1" xmlns="http://www.w3.org/2000/svg" xmlns:xlink="http://www.w3.org/1999/xlink" x="0px" y="0px" width="138.6px" height="22px" viewBox="0 0 138.6 22" enable-background="new 0 0 138.6 22" xml:space="preserve">
<a xlink:href="http://www.niwaka.com/" target="_top">
<title>NIWAKA</title>
<rect fill="#2c003f" width="138.6" height="22"/>
<polygon fill="#fff" points="14.814,21.736 2.825,4.485 2.825,21.736 0,21.736 0,0 3.123,0 15.202,17.434 15.202,0 18.026,0 18.026,21.736 "/>
<rect x="28.447" y="0" fill="#fff" width="2.974" height="21.736"/>
<polygon fill="#fff" points="87.141,21.736 80.516,2.789 73.773,21.736 70.73,21.736 78.947,0 82.175,0 90.424,21.736 "/>
<polygon fill="#fff" points="134.716,21.736 128.092,2.789 121.348,21.736 118.305,21.736 126.521,0 129.751,0 138,21.736 "/>
<polygon fill="#fff" points="110.288,21.735 102.607,10.852 99.133,14.136 99.133,21.735 96.159,21.735 96.159,0 99.133,0 99.133,10.673 109.848,0 113.719,0 104.65,8.79 114.043,21.735 "/>
<g>
<polygon fill="#fff" points="53.925,3.67 58.771,21.736 61.832,21.736 67.71,0 64.593,0 60.287,17.873 55.59,0 52.41,0 47.652,17.872 43.498,0 40.321,0 45.958,21.736 49.021,21.736 	"/>
</g>
</a>
</svg>
