<?xml version="1.0" encoding="UTF-8"?>
<svg id="_レイヤー_6" data-name="レイヤー_6" xmlns="http://www.w3.org/2000/svg" xmlns:xlink="http://www.w3.org/1999/xlink" version="1.1" viewBox="0 0 1141.97 290">
  <!-- Generator: Adobe Illustrator 29.5.1, SVG Export Plug-In . SVG Version: 2.1.0 Build 141)  -->
  <defs>
    <style>
      .st0 {
        fill: #595959;
      }

      .st1 {
        fill: #919191;
      }

      .st2 {
        fill: #fff;
      }

      .st3 {
        fill: #dee7b0;
      }

      .st4 {
        fill: #c9dce0;
      }

      .st5 {
        fill: url(#_名称未設定グラデーション);
      }
    </style>
    <linearGradient id="_名称未設定グラデーション" data-name="名称未設定グラデーション" x1="421.17" y1="1033.35" x2="422.17" y2="1033.35" gradientTransform="translate(-480133.3 36184.79) scale(1140 -35)" gradientUnits="userSpaceOnUse">
      <stop offset="0" stop-color="#b9d8df"/>
      <stop offset="1" stop-color="#1e6994"/>
    </linearGradient>
  </defs>
  <path class="st3" d="M644.98,141.12h-248s0-80,0-80h248s0,80,0,80Z"/>
  <path class="st4" d="M1141.29,141.62h-496.31s0-80.5,0-80.5h496.31s0,80.5,0,80.5Z"/>
  <path class="st5" d="M1.82,17.63c0-9.66,7.83-17.48,17.48-17.48h1104.03c9.66,0,17.48,7.83,17.48,17.48,0,9.66-7.83,17.48-17.48,17.48H19.3c-9.66,0-17.48-7.83-17.48-17.48Z"/>
  <path class="st2" d="M1118.84,12.63l5.99,5-5.99,5s0-9.99,0-9.99Z"/>
  <path class="st2" d="M23.79,22.62l-5.99-5,5.99-5v9.99Z"/>
  <g>
    <path class="st0" d="M878.63,258.54c-1,0-1.94.04-2.86.1-.2.02-.27-.05-.31-.27-.02-.24-.07-.76-.08-1.05,1.05.1,2.01.13,3.26.13h6.02c.49,0,.66-.05.85-.15.14-.08.31-.07.44.02.29.2.56.46.76.7.14.19.12.37-.05.53-.15.14-.25.31-.37.58-.82,2.16-2.01,4.08-3.33,5.58-1.38,1.55-2.94,2.94-5.05,4.1-.2.14-.42.14-.58-.03-.2-.2-.53-.43-.88-.58,2.6-1.29,4.06-2.57,5.49-4.2,1.28-1.43,2.48-3.31,3.2-5.44h-6.51ZM886.28,255.17c.08-.07.14-.05.2,0,.68.48,1.43,1.31,1.92,2.06.05.07.03.14-.03.19l-.49.41c-.08.07-.17.05-.22-.03-.49-.83-1.21-1.63-1.97-2.18l.59-.44ZM887.72,254.05c.07-.05.12-.07.19-.02.68.53,1.44,1.28,1.94,1.99.05.09.03.14-.05.21l-.46.41c-.07.07-.14.07-.2-.03-.42-.7-1.16-1.53-1.96-2.12l.54-.42Z"/>
    <path class="st0" d="M893.88,258.23c0-1.07-.07-1.85-.19-2.46.46.05,1.05.17,1.39.27.22.07.22.25.15.41-.12.22-.17.71-.17,1.79v2.87c0,.88.02,1.51.05,2.24,0,.21-.07.27-.25.27h-.8c-.17,0-.24-.07-.22-.25.02-.73.03-1.5.03-2.33v-2.8ZM901,261.29c0,2.63-.61,4.18-1.48,5.29-.82,1-2.21,1.96-3.72,2.5-.19.07-.31.07-.48-.08-.24-.26-.49-.44-.85-.63,1.73-.51,3.14-1.36,3.96-2.33.83-1.02,1.36-2.41,1.36-4.64v-2.92c0-1.67-.05-2.36-.19-2.97.51.05,1.07.15,1.44.27.2.07.2.25.12.42-.12.24-.17.75-.17,2.23v2.87Z"/>
    <path class="st0" d="M908.58,258.23c0-1.07-.07-1.85-.19-2.46.46.05,1.05.17,1.39.27.22.07.22.25.15.41-.12.22-.17.71-.17,1.79v2.87c0,.88.02,1.51.05,2.24,0,.21-.07.27-.25.27h-.8c-.17,0-.24-.07-.22-.25.02-.73.03-1.5.03-2.33v-2.8ZM915.71,261.29c0,2.63-.61,4.18-1.48,5.29-.82,1-2.21,1.96-3.72,2.5-.19.07-.31.07-.48-.08-.24-.26-.49-.44-.85-.63,1.73-.51,3.14-1.36,3.96-2.33.83-1.02,1.36-2.41,1.36-4.64v-2.92c0-1.67-.05-2.36-.19-2.97.51.05,1.07.15,1.44.27.2.07.2.25.12.42-.12.24-.17.75-.17,2.23v2.87Z"/>
    <path class="st0" d="M924.87,257.72c-1.34,0-2.35.07-3.16.15-.19.02-.26-.05-.29-.19-.07-.29-.15-.82-.19-1.17,1.04.1,2.04.12,3.5.12h7.07c.95,0,1.12-.05,1.27-.1.08-.03.19-.07.25-.07.08,0,.17.05.26.12.24.2.44.41.63.66.14.17.12.36-.08.49-.15.09-.27.27-.37.43-.78,1.17-1.94,2.36-3.25,3.35-.14.1-.31.1-.44-.02-.25-.21-.53-.32-.88-.43,1.46-.93,2.63-2.06,3.45-3.35h-7.77ZM925.99,264.76c.63-1.31.85-2.67.85-4.18,0-.56-.05-.95-.15-1.41.49.04,1.02.12,1.34.24.27.1.27.29.17.49-.08.15-.14.36-.14.83,0,1.45-.27,3.13-.97,4.52-.66,1.33-1.85,2.52-3.2,3.37-.17.1-.36.14-.51,0-.24-.22-.54-.39-.92-.53,1.67-.87,2.87-1.97,3.52-3.33Z"/>
    <path class="st0" d="M938.76,257.06c.12-.12.2-.1.31-.03.95.53,2.07,1.33,3.06,2.26.12.12.14.19.05.32-.14.2-.44.59-.58.73-.1.12-.15.14-.27.02-1-.99-2.12-1.85-3.23-2.52.22-.27.48-.58.66-.78ZM940.29,266.07c1.84-.97,3.33-1.89,4.91-3.16,1.72-1.41,3.13-2.67,4.59-4.57.07.48.17.8.29,1.12.1.22.08.36-.12.6-1.14,1.34-2.63,2.7-4.13,3.91-1.44,1.16-3.14,2.24-5.1,3.31-.46.27-.78.53-.93.66-.17.15-.31.15-.46-.02-.25-.27-.56-.68-.83-1.16.66-.19,1.17-.39,1.79-.7Z"/>
    <path class="st0" d="M962.42,257.14c.58,0,.76-.02.97-.14.1-.07.22-.03.34.05.24.19.49.44.7.7.1.14.07.25-.08.39-.17.14-.32.34-.49.63-.75,1.28-1.61,2.53-2.52,3.65,1.75,1.28,3.33,2.63,4.88,4.27.15.14.15.19.02.36-.19.22-.41.42-.61.61-.12.1-.19.1-.31-.03-1.43-1.63-3.04-3.08-4.69-4.32-1.94,2.01-3.98,3.59-6.07,4.74-.19.1-.29.12-.42-.03-.22-.26-.53-.43-.88-.61,2.57-1.27,4.57-2.84,6.25-4.61,1.11-1.17,2.23-2.69,3.23-4.56h-5.12c-.95,0-1.68.05-2.45.1-.15,0-.17-.05-.2-.19-.05-.24-.1-.75-.1-1.09.83.07,1.58.07,2.63.07h4.93Z"/>
    <path class="st0" d="M973.87,258.54c-1,0-1.94.04-2.86.1-.2.02-.27-.05-.31-.27-.02-.24-.07-.76-.08-1.05,1.05.1,2.01.13,3.26.13h6.02c.49,0,.66-.05.85-.15.14-.08.31-.07.44.02.29.2.56.46.77.7.14.19.12.37-.05.53-.15.14-.25.31-.37.58-.82,2.16-2.01,4.08-3.33,5.58-1.38,1.55-2.94,2.94-5.05,4.1-.2.14-.42.14-.58-.03-.2-.2-.53-.43-.88-.58,2.6-1.29,4.06-2.57,5.49-4.2,1.27-1.43,2.48-3.31,3.2-5.44h-6.51ZM984.97,255.82c0,.95-.77,1.72-1.72,1.72s-1.72-.77-1.72-1.72.76-1.72,1.72-1.72,1.72.76,1.72,1.72ZM982.18,255.82c0,.59.48,1.07,1.07,1.07s1.07-.48,1.07-1.07-.48-1.07-1.07-1.07-1.07.48-1.07,1.07Z"/>
    <path class="st0" d="M990.97,260.8c-.95,0-1.7.02-2.4.08-.15.02-.22-.05-.25-.22-.05-.27-.1-.66-.12-1.07.87.08,1.75.12,2.82.12h6.09c.42,0,.66-.03.83-.12.2-.1.29-.12.46.02.22.17.48.41.63.61.17.22.15.32-.03.46-.17.12-.25.29-.39.58-1.48,3.35-3.6,5.83-7.17,7.67-.2.1-.32.1-.46-.03-.25-.22-.61-.41-.95-.53,3.54-1.7,6.12-4.22,7.39-7.56h-6.44ZM992.34,257.26c-.9,0-1.67.02-2.41.07-.15.02-.19-.05-.2-.24-.03-.25-.08-.71-.08-1.02.99.1,1.63.12,2.77.12h2.63c1.07,0,1.82-.03,2.63-.08.15,0,.19.05.19.2.02.22.02.53,0,.77,0,.19-.03.24-.22.22-.78,0-1.5-.03-2.53-.03h-2.77Z"/>
    <path class="st0" d="M1012.12,257.14c.58,0,.76-.02.97-.14.1-.07.22-.03.34.05.24.19.49.44.7.7.1.14.07.25-.08.39-.17.14-.32.34-.49.63-.75,1.28-1.61,2.53-2.52,3.65,1.75,1.28,3.33,2.63,4.88,4.27.15.14.15.19.02.36-.19.22-.41.42-.61.61-.12.1-.19.1-.31-.03-1.43-1.63-3.04-3.08-4.69-4.32-1.94,2.01-3.98,3.59-6.07,4.74-.19.1-.29.12-.42-.03-.22-.26-.53-.43-.88-.61,2.57-1.27,4.57-2.84,6.25-4.61,1.11-1.17,2.23-2.69,3.23-4.56h-5.12c-.95,0-1.68.05-2.45.1-.15,0-.17-.05-.2-.19-.05-.24-.1-.75-.1-1.09.83.07,1.58.07,2.63.07h4.93Z"/>
    <path class="st0" d="M1027.65,256.12c0,.12-.02.14-.14.14-.07,0-.42-.02-1.33-.03v11.54c0,1.22.03,1.73.03,1.82,0,.12-.02.14-.14.14h-.78c-.12,0-.14-.02-.14-.14,0-.1.03-.59.03-1.82v-1.73c-1.36.49-3.38,1.09-4.47,1.36-.46.12-.61.2-.66.25s-.14.1-.22.1c-.07,0-.12-.07-.17-.19-.1-.29-.2-.63-.29-.99.56-.07.87-.12,1.39-.24l.34-.07v-10.04c-.93.02-1.29.03-1.36.03-.12,0-.14-.02-.14-.14v-.68c0-.14.02-.15.14-.15.08,0,.61.03,2.16.03h3.43c1.55,0,2.07-.03,2.16-.03.12,0,.14.02.14.15v.68ZM1025.21,256.23h-3.09v2.5h3.09v-2.5ZM1025.21,259.61h-3.09v2.48h3.09v-2.48ZM1025.21,262.97h-3.09v3.04c1-.26,2.18-.6,3.09-.92v-2.12ZM1033.09,257.16c.22,0,.32-.02.37-.05.07-.05.14-.07.2-.07.08,0,.22.08.49.36.22.22.31.36.31.48,0,.1-.08.17-.17.27-.08.1-.15.31-.2.65-.37,2.24-1.07,4.38-2.38,6.36.87,1.22,2.01,2.35,3.5,3.42-.2.15-.42.34-.59.61-.08.14-.14.2-.2.2s-.14-.05-.25-.15c-1.24-1-2.26-2.09-3.06-3.23-.94,1.19-2.12,2.29-3.66,3.33-.12.08-.2.14-.27.14s-.12-.07-.22-.24c-.14-.24-.27-.38-.49-.54,1.68-.99,3.01-2.21,4.03-3.62-1.29-2.16-1.96-4.5-2.24-6.99-.78.02-1.07.04-1.14.04-.12,0-.14-.02-.14-.14v-.73c0-.1.02-.12.14-.12.08,0,.56.03,2.04.03h3.94ZM1029.23,258.08c.29,2.29.83,4.3,1.87,6.1,1.1-1.8,1.75-3.86,2.02-6.1h-3.89Z"/>
    <path class="st0" d="M1041.17,255.72c.15.08.22.15.22.25,0,.09-.03.17-.07.22-.14.19-.24.36-.31.66-.32,1.58-.48,2.99-.51,3.91-.02.65-.02,1.34.07,1.92.36-.71.87-1.68,1.26-2.45.1.32.22.53.34.7.12.19.09.29-.02.46-.44.78-.83,1.61-1.07,2.24-.1.27-.12.39-.12.54.02.15-.02.2-.12.24-.15.03-.53.08-.82.12-.08,0-.14-.07-.17-.17-.25-.7-.42-1.87-.42-3.18,0-1.04.19-2.62.39-3.99.1-.71.19-1.26.15-1.89.48.1.9.25,1.19.41ZM1046.54,255.55c.25.05.29.17.25.34-.05.19-.05.47-.03.8.14,1.89.2,3.3.2,4.5,0,2.43-.42,4.27-1.39,5.58-.68.93-1.58,1.77-2.8,2.46-.17.1-.29.1-.44-.04-.22-.19-.56-.39-.87-.48,1.38-.73,2.23-1.34,2.96-2.33.95-1.27,1.39-2.72,1.39-5.15,0-1.17-.07-2.79-.17-4.04-.07-.82-.17-1.26-.34-1.79.48.02.94.05,1.24.14Z"/>
    <path class="st0" d="M1055.19,262.31c.66-.27,1.38-.59,2.07-.95-.02.19-.02.41,0,.66.03.36.03.37-.27.53-.58.27-1.17.54-1.8.82v2.11c0,.94.02,1.94.02,2.58,0,.78-.1,1.09-.44,1.33-.32.25-.63.32-1.79.29q-.34,0-.42-.32c-.08-.31-.19-.56-.32-.76.43.05.88.07,1.31.07.49,0,.66-.21.66-.83v-4.06c-.39.15-.78.31-1.17.44-.37.14-.54.24-.65.32-.07.07-.14.12-.22.12-.07,0-.12-.04-.17-.15-.12-.31-.22-.66-.31-1.04.48-.08.87-.19,1.5-.39l1.02-.36v-3.72h-.56c-1.24,0-1.61.03-1.7.03-.12,0-.14-.02-.14-.14v-.71c0-.12.02-.14.14-.14.08,0,.46.04,1.7.04h.56v-1.36c0-1.02-.02-1.51-.14-2.07.43.02.78.05,1.11.1.14.02.22.08.22.14,0,.12-.05.22-.1.34-.08.19-.1.49-.1,1.48v1.38h.22c1.26,0,1.62-.04,1.7-.04.14,0,.15.02.15.14v.71c0,.12-.02.14-.15.14-.08,0-.44-.03-1.7-.03h-.22v3.33ZM1065.31,260.05c.17,0,.25-.02.32-.05.08-.03.12-.05.2-.05s.19.03.49.34c.2.22.29.32.29.42,0,.07-.03.14-.12.21-.12.08-.22.19-.36.58-.56,1.77-1.43,3.25-2.55,4.52,1,1.09,2.21,1.99,3.65,2.65-.2.19-.37.37-.51.65-.08.17-.14.24-.2.24s-.15-.05-.29-.12c-1.19-.68-2.33-1.55-3.35-2.7-1.17,1.16-2.58,2.09-4.11,2.86-.12.05-.19.08-.25.08-.1,0-.17-.07-.27-.24-.15-.24-.32-.41-.53-.54,1.7-.68,3.26-1.68,4.54-2.96-1.09-1.48-1.97-3.37-2.5-5.83-.27,3.96-.88,6.71-3.4,9.4-.1.1-.15.17-.22.17s-.15-.07-.25-.19c-.17-.2-.36-.36-.56-.46,2.98-2.63,3.55-6.78,3.69-11.58l.03-1.12c-1.36,0-1.82.03-1.9.03-.14,0-.15-.02-.15-.13v-.73c0-.12.02-.14.15-.14.08,0,.56.03,2.07.03h3.94c.25,0,.37-.02.44-.05.07-.03.08-.05.14-.05.12,0,.2.05.49.31.24.22.31.34.31.42s-.05.17-.17.24c-.17.1-.22.19-.27.39-.2.99-.49,2.09-.88,3.4h2.09ZM1062.96,260.92l-.15.49c-.05.14-.08.15-.29.12l-.46-.07c-.29-.05-.29-.08-.24-.24.61-1.85,1.05-3.49,1.34-4.9h-3.21c.24,3.55,1.21,6.58,2.97,8.89,1.05-1.22,1.87-2.67,2.31-4.3h-2.28Z"/>
    <path class="st0" d="M1072.53,257.3c.1.05.15.12.15.19,0,.08-.03.19-.07.31-.07.2-.14.68-.14,1.56,0,1.09.02,2.12.24,3.86.25,2.01.99,3.47,1.8,3.47.68,0,1.33-1.09,1.82-2.67.19.44.34.65.56.85.14.12.19.25.14.42-.48,1.38-1.39,2.67-2.53,2.67-1.43,0-2.5-1.97-2.87-4.64-.24-1.7-.31-3.62-.31-4.74,0-.65-.02-1.05-.14-1.63.48.05,1.02.21,1.34.36ZM1080.64,258.6c.1-.05.19-.07.25,0,1.73,1.51,2.89,3.6,3.31,5.88.02.12-.03.17-.12.22-.25.17-.49.29-.78.39-.12.03-.2-.02-.22-.14-.48-2.6-1.55-4.4-3.2-5.9.32-.22.58-.37.75-.46Z"/>
    <path class="st0" d="M1093.95,266.34c0,2.55.03,2.97.03,3.08,0,.12-.02.14-.14.14h-.73c-.12,0-.14-.02-.14-.14v-.9h-3.69v1c0,.12-.02.14-.14.14h-.73c-.12,0-.14-.02-.14-.14,0-.08.03-.51.03-3.11v-1.53c0-1.56-.03-1.99-.03-2.07,0-.12.02-.14.14-.14.1,0,.51.04,1.75.04h1.92c1.26,0,1.67-.04,1.75-.04.12,0,.14.02.14.14,0,.08-.03.51-.03,1.84v1.7ZM1092.98,263.62h-3.69v3.98h3.69v-3.98ZM1099.56,259.03c0,1.07.03,1.44.03,1.55,0,.12-.02.13-.14.13-.08,0-.65-.03-2.28-.03h-4.08c-1.61,0-2.18.03-2.28.03-.12,0-.12-.02-.12-.13,0-.1.02-.48.02-1.55v-2.09c0-1.05-.02-1.44-.02-1.55,0-.12,0-.13.12-.13.1,0,.66.03,2.28.03h4.08c1.63,0,2.19-.03,2.28-.03.12,0,.14.02.14.13,0,.1-.03.49-.03,1.55v2.09ZM1098.54,256.24h-6.8v3.48h6.8v-3.48ZM1101.96,266.37c0,2.57.03,2.97.03,3.06,0,.14-.02.15-.14.15h-.73c-.12,0-.14-.02-.14-.15v-.92h-3.96v1.02c0,.12-.02.14-.14.14h-.73c-.12,0-.14-.02-.14-.14,0-.1.03-.51.03-3.13v-1.51c0-1.56-.03-1.99-.03-2.07,0-.14.02-.15.14-.15.1,0,.53.04,1.82.04h2.06c1.31,0,1.72-.04,1.82-.04.12,0,.14.02.14.15,0,.08-.03.51-.03,1.84v1.72ZM1100.99,263.64h-3.96v3.96h3.96v-3.96Z"/>
    <path class="st0" d="M1112.72,257.99c0,.12-.02.14-.14.14-.08,0-.51-.03-1.85-.03h-.08v.78c0,.75.03,1.07.03,1.16,0,.14-.02.15-.14.15h-.73c-.12,0-.14-.02-.14-.15,0-.08.03-.41.03-1.16v-.78h-2.09c-.14.92-.48,1.87-1.29,2.82-.1.12-.17.19-.22.19-.07,0-.14-.07-.25-.19-.2-.21-.39-.31-.59-.41,1.34-1.17,1.48-2.43,1.48-3.77,0-.61-.02-1.17-.08-1.58.39.07.71.15,1.05.29,1.29-.12,2.29-.31,3.21-.58.31-.08.6-.2.82-.36.29.22.49.41.68.63.08.1.14.15.14.25,0,.07-.08.14-.22.15-.17.02-.34.02-.59.08-1.26.31-2.33.48-4.05.66v.99h3.04c1.34,0,1.77-.03,1.85-.03.12,0,.14.02.14.14v.61ZM1110.89,268.19c-.17.03-.29.08-.51.2-1.02.56-2.46,1.17-3.98,1.48-.34.07-.36.05-.51-.25-.1-.21-.27-.44-.42-.61,1.46-.22,3.09-.7,4.08-1.24.22-.14.41-.29.58-.48.29.15.61.36.82.51.12.08.14.14.14.2,0,.08-.05.15-.19.19ZM1118.18,265.34c0,1.19.03,1.62.03,1.72,0,.12-.02.13-.14.13-.1,0-.71-.03-2.4-.03h-5.39c-1.7,0-2.29.03-2.38.03-.14,0-.15-.02-.15-.13,0-.1.03-.53.03-1.72v-2.97c0-1.21-.03-1.63-.03-1.73,0-.12.02-.14.15-.14.08,0,.68.04,2.38.04h5.41c1.68,0,2.28-.04,2.38-.04.12,0,.14.02.14.14,0,.1-.03.53-.03,1.73v2.97ZM1117.17,261.34h-8.4v1.12h8.4v-1.12ZM1117.17,263.21h-8.4v1.16h8.4v-1.16ZM1117.17,265.12h-8.4v1.22h8.4v-1.22ZM1120.32,257.99c0,.12-.02.14-.14.14-.08,0-.58-.03-2.07-.03h-.53v.75c0,.75.03,1.07.03,1.17,0,.12-.02.14-.14.14h-.73c-.12,0-.14-.02-.14-.14,0-.1.03-.42.03-1.17v-.75h-2.26c-.17.73-.53,1.43-1.12,2.01-.12.12-.19.19-.25.19s-.14-.07-.25-.17c-.15-.14-.36-.26-.58-.36,1.09-.8,1.39-1.9,1.39-3.03,0-.73.02-1.21-.07-1.6.39.07.7.17,1.05.31,1.26-.14,2.5-.36,3.35-.61.29-.08.54-.19.77-.34.25.2.46.41.68.66.1.12.12.15.12.24,0,.07-.07.14-.2.14-.19,0-.37.02-.63.07-1.19.29-2.38.49-4.11.66v.65c0,.14,0,.25-.02.37h3.6c1.5,0,1.99-.03,2.07-.03.12,0,.14.02.14.14v.61ZM1115.37,267.5c.14-.14.19-.14.29-.08,1.26.78,2.89,1.33,4.67,1.56-.17.2-.29.41-.39.63-.14.32-.15.34-.51.27-1.53-.3-3.23-.97-4.47-1.77-.12-.07-.12-.12.03-.25l.37-.36Z"/>
  </g>
  <g>
    <path class="st0" d="M716.33,269.13c-.1.17-.15.24-.22.24s-.14-.03-.25-.12c-3.86-2.46-5.69-5.95-6.32-9.37-.71,4.27-3.03,7.39-6.48,9.35-.12.07-.19.12-.25.12s-.12-.08-.24-.25c-.19-.25-.41-.46-.63-.61,4.55-2.19,6.9-6.65,6.83-11.53-.02-.94-.03-1.43-.12-2.02.41.02.9.07,1.28.14.14.03.24.1.24.2,0,.14-.05.22-.1.34-.08.19-.15.53-.15.95,0,.31,0,.59-.02.88.68,4.57,2.58,8.47,7.04,10.98-.24.19-.44.42-.59.7Z"/>
    <path class="st0" d="M734.03,257.08c0,.12-.02.14-.14.14-.08,0-.65-.03-2.38-.03h-8.4c-.54.85-1.19,1.63-2.02,2.43-.12.1-.19.17-.24.17-.07,0-.12-.07-.24-.21-.15-.19-.34-.34-.53-.42,1.5-1.31,2.35-2.43,3.09-4.17.08-.24.15-.46.19-.71.36.08.71.19.99.29.1.03.17.1.17.19s-.05.12-.12.19c-.08.09-.2.19-.27.38-.14.31-.29.61-.46.93h7.84c1.73,0,2.29-.03,2.38-.03.12,0,.14.02.14.14v.73ZM723.08,263.21c.14-.12.17-.14.27-.07.85.56,1.68,1.16,2.52,1.8.46-.49.9-1.02,1.31-1.6.15-.24.32-.54.41-.8.34.14.68.31.9.46.12.09.17.15.17.24,0,.1-.1.15-.22.22-.1.05-.2.19-.39.44-.46.61-.92,1.16-1.39,1.67.85.73,1.7,1.51,2.57,2.38.08.08.1.15-.02.27l-.44.48c-.17.19-.22.2-.32.1-.83-.92-1.67-1.73-2.52-2.5-1.26,1.16-2.74,2.11-4.73,3.01-.12.05-.2.09-.25.09-.08,0-.14-.07-.24-.24-.14-.24-.34-.44-.53-.56,2.16-.82,3.72-1.78,4.98-2.94-.78-.65-1.6-1.26-2.48-1.85-.12-.07-.12-.1.05-.25l.36-.34ZM729.58,260.95c1.73,0,2.31-.03,2.4-.03.12,0,.15.03.15.15-.05.9-.05,1.75-.02,2.58.07,1.17.17,2.23.37,3.08.27,1.16.58,1.73,1.04,1.73.29,0,.54-.42.78-2.33.17.19.36.3.63.42.24.1.25.14.2.48-.29,1.8-.7,2.57-1.56,2.57s-1.6-.76-2.04-2.6c-.31-1.29-.46-2.75-.46-5.12h-7.72c-1.72,0-2.29.03-2.4.03-.12,0-.14-.02-.14-.13v-.73c0-.12.02-.14.14-.14.1,0,.68.03,2.4.03h6.22ZM732.31,259.35c0,.14-.02.15-.14.15-.08,0-.63-.03-2.26-.03h-4.32c-1.63,0-2.16.03-2.24.03-.12,0-.14-.02-.14-.15v-.7c0-.12.02-.13.14-.13.08,0,.61.03,2.24.03h4.32c1.63,0,2.18-.03,2.26-.03.12,0,.14.02.14.13v.7Z"/>
    <path class="st0" d="M745.74,257.82c-.31,2.87-1.17,5.69-2.24,7.43-.73,1.24-1.5,1.75-2.5,1.75-1.27,0-2.48-1.39-2.48-3.86,0-1.56.71-3.23,1.97-4.4,1.26-1.17,2.96-1.89,5.1-1.89,3.81,0,6.07,2.23,6.07,5.47,0,2.77-1.72,5-5.41,5.93-.2.05-.32.02-.44-.19-.1-.17-.32-.43-.66-.63,3.37-.66,5.3-2.48,5.3-5.32,0-2.52-1.96-4.3-4.39-4.3h-.32ZM741.24,259.45c-1.14,1.12-1.63,2.52-1.63,3.67,0,1.85.76,2.65,1.38,2.65.58,0,1.09-.37,1.58-1.24.87-1.53,1.77-4.17,1.99-6.65-1.33.17-2.5.75-3.31,1.56Z"/>
    <path class="st0" d="M761.72,266.34c0,2.55.03,2.97.03,3.08,0,.12-.02.14-.14.14h-.73c-.12,0-.14-.02-.14-.14v-.9h-3.69v1c0,.12-.02.14-.14.14h-.73c-.12,0-.14-.02-.14-.14,0-.08.03-.51.03-3.11v-1.53c0-1.56-.03-1.99-.03-2.07,0-.12.02-.14.14-.14.1,0,.51.04,1.75.04h1.92c1.26,0,1.67-.04,1.75-.04.12,0,.14.02.14.14,0,.08-.03.51-.03,1.84v1.7ZM760.75,263.62h-3.69v3.98h3.69v-3.98ZM767.33,259.03c0,1.07.03,1.44.03,1.55,0,.12-.02.13-.14.13-.08,0-.65-.03-2.28-.03h-4.08c-1.61,0-2.18.03-2.28.03-.12,0-.12-.02-.12-.13,0-.1.02-.48.02-1.55v-2.09c0-1.05-.02-1.44-.02-1.55,0-.12,0-.13.12-.13.1,0,.66.03,2.28.03h4.08c1.63,0,2.19-.03,2.28-.03.12,0,.14.02.14.13,0,.1-.03.49-.03,1.55v2.09ZM766.31,256.24h-6.8v3.48h6.8v-3.48ZM769.73,266.37c0,2.57.03,2.97.03,3.06,0,.14-.02.15-.14.15h-.73c-.12,0-.14-.02-.14-.15v-.92h-3.96v1.02c0,.12-.02.14-.14.14h-.73c-.12,0-.14-.02-.14-.14,0-.1.03-.51.03-3.13v-1.51c0-1.56-.03-1.99-.03-2.07,0-.14.02-.15.14-.15.1,0,.53.04,1.82.04h2.06c1.31,0,1.72-.04,1.82-.04.12,0,.14.02.14.15,0,.08-.03.51-.03,1.84v1.72ZM768.76,263.64h-3.96v3.96h3.96v-3.96Z"/>
    <path class="st0" d="M780.49,257.99c0,.12-.02.14-.14.14-.08,0-.51-.03-1.85-.03h-.08v.78c0,.75.03,1.07.03,1.16,0,.14-.02.15-.14.15h-.73c-.12,0-.14-.02-.14-.15,0-.08.03-.41.03-1.16v-.78h-2.09c-.14.92-.48,1.87-1.29,2.82-.1.12-.17.19-.22.19-.07,0-.14-.07-.25-.19-.2-.21-.39-.31-.59-.41,1.34-1.17,1.48-2.43,1.48-3.77,0-.61-.02-1.17-.08-1.58.39.07.71.15,1.05.29,1.29-.12,2.29-.31,3.21-.58.31-.08.6-.2.82-.36.29.22.49.41.68.63.08.1.14.15.14.25,0,.07-.08.14-.22.15-.17.02-.34.02-.59.08-1.26.31-2.33.48-4.05.66v.99h3.04c1.34,0,1.77-.03,1.85-.03.12,0,.14.02.14.14v.61ZM778.66,268.19c-.17.03-.29.08-.51.2-1.02.56-2.46,1.17-3.98,1.48-.34.07-.36.05-.51-.25-.1-.21-.27-.44-.42-.61,1.46-.22,3.09-.7,4.08-1.24.22-.14.41-.29.58-.48.29.15.61.36.82.51.12.08.14.14.14.2,0,.08-.05.15-.19.19ZM785.95,265.34c0,1.19.03,1.62.03,1.72,0,.12-.02.13-.14.13-.1,0-.71-.03-2.4-.03h-5.39c-1.7,0-2.29.03-2.38.03-.14,0-.15-.02-.15-.13,0-.1.03-.53.03-1.72v-2.97c0-1.21-.03-1.63-.03-1.73,0-.12.02-.14.15-.14.09,0,.68.04,2.38.04h5.41c1.68,0,2.28-.04,2.38-.04.12,0,.14.02.14.14,0,.1-.03.53-.03,1.73v2.97ZM784.95,261.34h-8.4v1.12h8.4v-1.12ZM784.95,263.21h-8.4v1.16h8.4v-1.16ZM784.95,265.12h-8.4v1.22h8.4v-1.22ZM788.09,257.99c0,.12-.02.14-.14.14-.08,0-.58-.03-2.07-.03h-.53v.75c0,.75.03,1.07.03,1.17,0,.12-.02.14-.14.14h-.73c-.12,0-.14-.02-.14-.14,0-.1.03-.42.03-1.17v-.75h-2.26c-.17.73-.53,1.43-1.12,2.01-.12.12-.19.19-.25.19s-.14-.07-.25-.17c-.15-.14-.36-.26-.58-.36,1.09-.8,1.39-1.9,1.39-3.03,0-.73.02-1.21-.07-1.6.39.07.7.17,1.05.31,1.26-.14,2.5-.36,3.35-.61.29-.08.54-.19.77-.34.25.2.46.41.68.66.1.12.12.15.12.24,0,.07-.07.14-.2.14-.19,0-.37.02-.63.07-1.19.29-2.38.49-4.11.66v.65c0,.14,0,.25-.02.37h3.6c1.5,0,1.99-.03,2.07-.03.12,0,.14.02.14.14v.61ZM783.14,267.5c.14-.14.19-.14.29-.08,1.26.78,2.89,1.33,4.67,1.56-.17.2-.29.41-.39.63-.14.32-.15.34-.51.27-1.53-.3-3.23-.97-4.47-1.77-.12-.07-.12-.12.03-.25l.37-.36Z"/>
  </g>
  <path id="_パス_5261" data-name="パス_5261" class="st3" d="M816.4,254.67h50v18h-50v-18Z"/>
  <path id="_パス_52611" data-name="パス_5261" class="st4" d="M642.11,254.67h50v18h-50v-18Z"/>
  <path class="st1" d="M645.48,221.08h-1s0-159.96,0-159.96h1s0,159.96,0,159.96Z"/>
  <path class="st1" d="M893.23,221.12h-1s0-160,0-160h1s0,160,0,160Z"/>
  <path class="st1" d="M1141.82,221.08h-1s0-159.96,0-159.96h1s0,159.96,0,159.96Z"/>
  <path class="st1" d="M1017.11,221.12h-1s0-160,0-160h1s0,160,0,160Z"/>
  <path class="st1" d="M1,221.12H0s0-160,0-160h1s0,160,0,160Z"/>
  <path class="st1" d="M769.36,141.12h-1s0-80,0-80h1s0,80,0,80Z"/>
  <path class="st1" d="M521.61,141.12h-1s0-80,0-80h1s0,80,0,80Z"/>
  <path class="st1" d="M397.73,221.12h-1s0-160,0-160h1s0,160,0,160Z"/>
  <path class="st1" d="M273.86,141.12h-1s0-80,0-80h1s0,80,0,80Z"/>
  <path class="st1" d="M149.98,221.12h-1s0-160,0-160h1s0,160,0,160Z"/>
  <path class="st1" d="M99.98,141.12h-1s0-80,0-80h1s0,80,0,80Z"/>
  <path class="st1" d="M50.98,141.12h-1s0-80,0-80h1s0,80,0,80Z"/>
  <path class="st1" d="M1141.29,142.12H.98s0-1,0-1h1140.31s0,1,0,1Z"/>
  <g>
    <g>
      <path class="st0" d="M914.95,154.06h1.73v13.58h-1.73v-13.58Z"/>
      <path class="st0" d="M921.57,159.11h.04c.71-.93,1.71-1.52,3.15-1.52,2.07,0,3.34,1.12,3.34,3.15v6.9h-1.55v-6.76c0-1.27-.84-1.99-2.25-1.99-1.57,0-2.73,1.1-2.73,2.72v6.04h-1.55v-9.82h1.55v1.29Z"/>
      <path class="st0" d="M930.47,157.82h1.44v-3.1h1.55v3.1h1.92v1.25h-1.92v6.38c0,.68.36.91,1,.91.31,0,.65-.08.83-.13h.06v1.33c-.36.08-.79.13-1.25.13-1.27,0-2.19-.51-2.19-1.9v-6.73h-1.44v-1.25Z"/>
      <path class="st0" d="M937.4,162.74c0-2.85,1.88-5.17,4.7-5.17,2.98,0,4.57,2.28,4.57,5.53h-7.68c.11,2,1.21,3.51,3.21,3.51,1.44,0,2.4-.68,2.75-2.01h1.52c-.46,2.11-2.02,3.31-4.26,3.31-3.03,0-4.8-2.32-4.8-5.17ZM939.03,161.94h5.97c-.1-1.96-1.11-3.15-2.9-3.15s-2.84,1.37-3.07,3.15Z"/>
      <path class="st0" d="M950.7,159.45h.04c.59-.95,1.63-1.75,2.96-1.75.29,0,.44.04.63.11v1.48h-.06c-.23-.08-.38-.09-.69-.09-1.54,0-2.88,1.14-2.88,2.98v5.45h-1.55v-9.82h1.55v1.63Z"/>
      <path class="st0" d="M958.24,159.11h.04c.71-.93,1.71-1.52,3.15-1.52,2.07,0,3.34,1.12,3.34,3.15v6.9h-1.55v-6.76c0-1.27-.84-1.99-2.25-1.99-1.57,0-2.73,1.1-2.73,2.72v6.04h-1.55v-9.82h1.55v1.29Z"/>
      <path class="st0" d="M973.84,166.29h-.02c-.6.76-1.54,1.54-3.22,1.54-1.88,0-3.42-.93-3.42-2.79,0-2.3,1.86-2.81,4.36-3.06,1.52-.15,2.34-.4,2.34-1.46s-.75-1.73-2.17-1.73c-1.61,0-2.44.7-2.55,2.17h-1.5c.12-1.84,1.4-3.32,4.03-3.32,2.11,0,3.61.78,3.61,3.12v5.49c0,.72.19,1.24.37,1.35v.06h-1.52c-.17-.17-.29-.49-.31-1.35ZM973.9,164.01v-1.5c-.52.27-1.44.51-2.3.61-1.71.21-2.76.47-2.76,1.88,0,1.31,1.06,1.65,2.07,1.65,2.07,0,2.99-1.5,2.99-2.64Z"/>
      <path class="st0" d="M978.37,154.06h1.55v13.58h-1.55v-13.58Z"/>
      <path class="st0" d="M983.11,154.06h1.55v13.58h-1.55v-13.58Z"/>
      <path class="st0" d="M987.66,170.68v-1.37h.08c.21.11.54.21,1.06.21.65,0,1.09-.25,1.48-1.2l.38-.97-3.88-9.54h1.69l2.34,6.12c.31.82.67,1.92.67,1.92h.04s.35-1.1.65-1.92l2.26-6.12h1.65l-4.24,10.62c-.81,2.03-1.57,2.45-2.78,2.45-.59,0-.98-.04-1.4-.21Z"/>
      <path class="st0" d="M917.35,173.06h9.31v1.5h-7.58v4.24h6.32v1.44h-6.32v6.4h-1.73v-13.58Z"/>
      <path class="st0" d="M929.23,173.06h1.55v13.58h-1.55v-13.58Z"/>
      <path class="st0" d="M939.98,185.29h-.02c-.6.76-1.54,1.54-3.22,1.54-1.88,0-3.42-.93-3.42-2.79,0-2.3,1.86-2.81,4.36-3.06,1.52-.15,2.34-.4,2.34-1.46s-.75-1.73-2.17-1.73c-1.61,0-2.44.7-2.55,2.17h-1.5c.12-1.84,1.4-3.32,4.03-3.32,2.11,0,3.61.78,3.61,3.12v5.49c0,.72.19,1.24.37,1.35v.06h-1.52c-.17-.17-.29-.49-.31-1.35ZM940.04,183.01v-1.5c-.52.27-1.44.51-2.3.61-1.71.21-2.76.47-2.76,1.88,0,1.31,1.06,1.65,2.07,1.65,2.07,0,2.99-1.5,2.99-2.64Z"/>
      <path class="st0" d="M943.47,176.82h1.67l1.75,6.06c.23.82.54,2.11.54,2.11h.04s.29-1.29.5-2.07l1.67-6.1h1.63l1.61,6.1c.21.8.48,2.07.48,2.07h.04s.31-1.29.56-2.11l1.84-6.06h1.61l-3.24,9.82h-1.59l-1.65-5.95c-.23-.82-.48-2.05-.48-2.05h-.04s-.27,1.23-.5,2.05l-1.67,5.95h-1.61l-3.15-9.82Z"/>
      <path class="st0" d="M959.55,173.06h1.55v13.58h-1.55v-13.58Z"/>
      <path class="st0" d="M963.68,181.74c0-2.85,1.88-5.17,4.7-5.17,2.98,0,4.57,2.28,4.57,5.53h-7.68c.11,2,1.21,3.51,3.21,3.51,1.44,0,2.4-.68,2.75-2.01h1.52c-.46,2.11-2.02,3.31-4.26,3.31-3.03,0-4.8-2.32-4.8-5.17ZM965.31,180.94h5.97c-.1-1.96-1.11-3.15-2.9-3.15s-2.84,1.37-3.07,3.15Z"/>
      <path class="st0" d="M974.79,183.45h1.59c.21,1.71,1.36,2.18,2.84,2.18,1.63,0,2.3-.7,2.3-1.62,0-1.1-.77-1.39-2.59-1.77-1.96-.4-3.7-.8-3.7-2.94,0-1.63,1.27-2.7,3.57-2.7,2.46,0,3.67,1.16,3.9,3.08h-1.59c-.15-1.29-.86-1.86-2.34-1.86s-2,.63-2,1.41c0,1.06.96,1.27,2.67,1.62,2,.4,3.67.83,3.67,3.1,0,1.98-1.63,2.98-3.92,2.98-2.73,0-4.24-1.27-4.4-3.48Z"/>
      <path class="st0" d="M984.92,183.45h1.59c.21,1.71,1.36,2.18,2.84,2.18,1.63,0,2.3-.7,2.3-1.62,0-1.1-.77-1.39-2.59-1.77-1.96-.4-3.7-.8-3.7-2.94,0-1.63,1.27-2.7,3.57-2.7,2.46,0,3.67,1.16,3.9,3.08h-1.59c-.15-1.29-.86-1.86-2.34-1.86s-2,.63-2,1.41c0,1.06.96,1.27,2.67,1.62,2,.4,3.67.83,3.67,3.1,0,1.98-1.63,2.98-3.92,2.98-2.73,0-4.24-1.27-4.4-3.48Z"/>
    </g>
    <g>
      <path class="st0" d="M936.27,206.15c0,1.04.03,1.66.03,2.08,0,.39-.09.66-.34.86-.21.17-.58.25-1.68.25-.25,0-.26,0-.33-.26-.05-.23-.14-.46-.26-.61.42.04.93.07,1.19.07.46-.01.59-.12.59-.49v-6.92h-3.94c.7,2.25,1.82,3.51,3.74,4.58-.18.13-.34.27-.46.46-.08.12-.12.17-.17.17s-.1-.04-.2-.1c-1.52-1-2.56-2.2-3.2-4.06-.07.25-.14.49-.24.7-.51,1.26-1.23,2.35-2.97,3.42-.09.06-.14.1-.18.1-.05,0-.09-.05-.17-.16-.14-.2-.28-.33-.45-.44,1.77-.94,2.55-2,3.03-3.16.18-.43.3-.95.38-1.51h-3.57v6.3c0,1.3.03,1.85.03,1.91,0,.09-.01.1-.1.1h-.64c-.09,0-.1-.01-.1-.1,0-.06.03-.6.03-1.98v-4.89c0-1.38-.03-1.94-.03-2,0-.09.01-.1.1-.1.08,0,.53.03,1.84.03h2.53c.03-.4.04-.81.04-1.21,0-.43-.01-.91-.08-1.29.29.01.59.04.88.08.11.01.14.07.14.13,0,.08-.04.16-.07.25-.04.13-.07.39-.08.98,0,.31-.01.69-.05,1.07h2.83c1.31,0,1.77-.03,1.84-.03.09,0,.11.01.11.1,0,.07-.03.68-.03,2.05v3.63Z"/>
      <path class="st0" d="M943.89,203.43c0,.09-.01.1-.11.1-.08,0-.47-.03-1.71-.03h-2.91c-1.23,0-1.64.03-1.71.03-.09,0-.1-.01-.1-.1v-.55c0-.09.01-.1.1-.1.07,0,.47.03,1.71.03h2.06c.3-.68.45-1.1.59-1.56.05-.21.12-.48.12-.7.26.05.56.13.76.2.1.04.16.08.16.13,0,.09-.04.14-.1.21-.05.06-.12.13-.2.31-.18.46-.38.91-.6,1.42h.13c1.23,0,1.63-.03,1.71-.03.09,0,.11.01.11.1v.55ZM943.68,200.05c0,.09-.01.1-.09.1s-.46-.03-1.64-.03h-2.49c-1.19,0-1.58.03-1.64.03-.09,0-.1-.01-.1-.1v-.53c0-.09.01-.1.1-.1.07,0,.45.03,1.64.03h.83v-.38c0-.52-.01-.83-.08-1.12.31.01.56.04.83.08.09.01.16.05.16.1,0,.08-.04.13-.08.22-.05.1-.07.29-.07.71v.38h.91c1.18,0,1.56-.03,1.64-.03s.09.01.09.1v.53ZM943.02,207.25c0,1.81.03,2.11.03,2.17,0,.1-.01.12-.11.12h-.56c-.09,0-.1-.01-.1-.12v-.73h-3.2v.78c0,.08-.01.09-.1.09h-.59c-.08,0-.09-.01-.09-.09s.03-.38.03-2.2v-.96c0-.99-.03-1.33-.03-1.4,0-.09.01-.1.09-.1s.41.03,1.43.03h1.69c1.02,0,1.37-.03,1.44-.03.09,0,.11.01.11.1,0,.07-.03.42-.03,1.25v1.09ZM939.07,200.55c.14-.04.2-.03.22.04.24.48.43,1.01.56,1.6q.03.12-.13.17l-.38.1c-.17.05-.18.03-.21-.08-.12-.52-.3-1.1-.54-1.59-.05-.1-.04-.1.13-.16l.34-.09ZM942.28,205.52h-3.2v2.48h3.2v-2.48ZM947.75,198.67c.17,0,.29-.01.34-.04.07-.03.09-.03.14-.03.08,0,.16.04.35.23.18.2.22.29.22.35,0,.08-.03.13-.09.17-.08.05-.16.16-.28.42-.49,1.07-1.04,2.12-1.65,3.12,1.63,1.3,2.05,2.11,2.05,3.05,0,1.2-.83,1.88-2.45,1.96q-.25.03-.32-.25c-.05-.22-.13-.39-.24-.49,1.47.03,2.23-.35,2.23-1.29,0-.79-.35-1.4-2.14-2.89.72-1.13,1.31-2.29,1.84-3.63h-2.52v7.57c0,1.77.03,2.56.03,2.63,0,.08-.01.09-.11.09h-.6c-.09,0-.1-.01-.1-.09s.03-.81.03-2.61v-5.58c0-1.81-.03-2.55-.03-2.63,0-.09.01-.1.1-.1.08,0,.39.03,1.17.03h2.02Z"/>
      <path class="st0" d="M960.73,203.13c0,.09-.01.1-.1.1-.07,0-.47-.03-1.69-.03h-.26v2.21c1.01,0,1.4-.03,1.47-.03.09,0,.1.01.1.1v.52c0,.09-.01.1-.1.1-.07,0-.51-.03-1.8-.03h-6.73c-1.29,0-1.72.03-1.78.03-.09,0-.11-.01-.11-.1v-.52c0-.09.01-.1.11-.1.05,0,.43.03,1.46.03v-2.21h-.38c-1.22,0-1.63.03-1.69.03-.09,0-.1-.01-.1-.1v-.55c0-.09.01-.1.1-.1.07,0,.47.03,1.69.03h.38v-1.9c-.33.38-.68.75-1.04,1.08-.09.09-.14.13-.18.13-.07,0-.11-.05-.2-.17-.12-.14-.22-.23-.37-.31,1.05-.82,1.82-1.79,2.35-2.76.17-.34.25-.52.32-.81.26.06.52.16.73.26.07.03.12.08.12.13s-.03.09-.12.16c-.09.06-.2.19-.31.4-.17.3-.37.62-.59.95h6.22c1.34,0,1.79-.03,1.86-.03.09,0,.11.01.11.1v.53c0,.09-.01.1-.11.1-.07,0-.43-.01-1.4-.03v2.14h.26c1.22,0,1.63-.03,1.69-.03.09,0,.1.01.1.1v.55ZM951.56,206.9c.14.08.14.1.12.18-.45.88-.98,1.6-1.68,2.28-.08.08-.12.07-.25-.03l-.33-.25c-.13-.1-.13-.14-.05-.22.71-.62,1.22-1.27,1.61-2.11.04-.08.07-.08.25,0l.33.14ZM953.49,200.36h-1.48v2.14h1.48v-2.14ZM953.49,203.21h-1.48v2.21h1.48v-2.21ZM953.46,206.86c.13-.03.16-.01.18.09.22.65.34,1.33.43,2.15.01.09,0,.12-.16.13l-.45.05c-.18.03-.2,0-.2-.1-.05-.78-.16-1.42-.37-2.09-.03-.12,0-.13.18-.16l.37-.07ZM955.71,200.36h-1.51v2.14h1.51v-2.14ZM955.71,203.21h-1.51v2.21h1.51v-2.21ZM956.05,206.82c.14-.04.16-.03.21.07.35.73.58,1.38.75,2.11.03.1.01.12-.13.16l-.42.1c-.2.05-.22.05-.25-.05-.14-.75-.37-1.46-.67-2.12-.04-.09-.03-.1.14-.16l.37-.1ZM957.95,200.36h-1.54v2.14h1.54v-2.14ZM957.95,203.21h-1.54v2.21h1.54v-2.21ZM958.58,206.68c.14-.07.16-.07.24.01.64.7,1.1,1.34,1.54,2.17.05.09.04.13-.12.21l-.37.18c-.17.09-.2.09-.25,0-.41-.86-.84-1.51-1.46-2.25-.07-.08-.05-.09.1-.17l.32-.16Z"/>
      <path class="st0" d="M972.13,209.23c-.08.14-.09.21-.17.21-.04,0-.11-.03-.2-.05-3.03-1.11-4.46-2.76-5.04-4.78-.55,2.08-1.99,3.69-4.96,4.8-.09.04-.16.05-.2.05-.07,0-.1-.05-.2-.18-.13-.21-.28-.35-.43-.47,3.62-1.12,5.17-3.16,5.2-5.75,0-.52,0-.79-.07-1.16.3.01.59.04.85.08.14.03.2.08.2.14,0,.09-.05.16-.08.26-.04.12-.04.3-.07.66.41,2.63,1.97,4.58,5.58,5.63-.18.17-.31.36-.42.56ZM970.58,200.31c.18,0,.28-.01.34-.04.05-.03.11-.04.16-.04.11,0,.18.04.41.25.2.17.25.27.25.34,0,.08-.03.13-.09.18-.09.07-.18.13-.28.33-.32.71-.87,1.62-1.4,2.37-.08.1-.12.16-.17.16s-.1-.04-.21-.12c-.16-.1-.35-.18-.52-.22.62-.7,1.14-1.57,1.54-2.44h-6.26c-.51,1.03-1.12,1.94-1.82,2.69-.08.08-.13.13-.18.13-.04,0-.09-.05-.18-.13-.16-.13-.31-.23-.51-.31,1.25-1.18,2.09-2.68,2.6-4.2.16-.47.24-.79.26-1.24.31.07.63.14.85.22.13.04.18.1.18.18,0,.06-.07.14-.13.21-.07.08-.16.23-.29.6-.13.38-.28.74-.43,1.09h5.91Z"/>
      <path class="st0" d="M974.98,206.92c.16.07.17.1.13.2-.38.91-.84,1.64-1.48,2.33-.04.05-.08.08-.12.08s-.09-.03-.17-.08l-.33-.18c-.18-.1-.2-.14-.12-.21.66-.64,1.17-1.39,1.51-2.21.04-.1.09-.12.26-.05l.32.13ZM983.61,200.35c0,.09-.01.1-.11.1-.07,0-.51-.03-1.81-.03h-3.03v1.56h1.85c1.31,0,1.77-.03,1.85-.03.09,0,.11.01.11.09s-.03.35-.03,1.14v1.53c0,.79.03,1.07.03,1.14,0,.09-.01.1-.11.1-.08,0-.54-.03-1.85-.03h-3.99c-1.3,0-1.76.03-1.84.03-.09,0-.1-.01-.1-.1,0-.08.03-.35.03-1.14v-1.53c0-.79-.03-1.07-.03-1.14s.01-.09.1-.09c.08,0,.54.03,1.84.03h1.33v-2.46c0-.75-.01-1.11-.09-1.59.34.01.64.04.89.08.09.01.16.04.16.1s-.01.13-.05.23c-.05.13-.09.4-.09,1.05v.27h3.03c1.3,0,1.75-.03,1.81-.03.09,0,.11.01.11.1v.58ZM981.62,202.72h-6.21v2.51h6.21v-2.51ZM977.04,206.85c.14-.03.17,0,.2.1.21.65.35,1.46.46,2.25.01.09-.01.14-.16.16l-.43.04c-.18.03-.21.01-.21-.09-.05-.78-.21-1.59-.39-2.28-.03-.09-.01-.12.16-.14l.38-.04ZM979.56,206.79c.11-.03.14,0,.18.09.35.66.67,1.51.85,2.24.03.1.01.13-.13.17l-.41.09c-.2.05-.22.05-.25-.05-.16-.75-.43-1.59-.76-2.25-.04-.09-.04-.12.13-.17l.38-.12ZM982.12,206.63c.14-.08.18-.06.25.01.67.74,1.18,1.55,1.59,2.38.05.09.04.12-.12.2l-.37.17c-.18.09-.21.09-.25,0-.39-.88-.88-1.66-1.51-2.43-.07-.08-.04-.1.12-.18l.29-.14Z"/>
    </g>
  </g>
  <g>
    <g>
      <path class="st0" d="M1040.92,163.56h9.31v1.5h-7.58v4.24h6.32v1.44h-6.32v6.4h-1.73v-13.58Z"/>
      <path class="st0" d="M1052.8,163.56h1.55v13.58h-1.55v-13.58Z"/>
      <path class="st0" d="M1063.55,175.79h-.02c-.6.76-1.54,1.54-3.22,1.54-1.88,0-3.42-.93-3.42-2.79,0-2.3,1.86-2.81,4.36-3.06,1.52-.15,2.34-.4,2.34-1.46s-.75-1.73-2.17-1.73c-1.61,0-2.44.7-2.55,2.17h-1.5c.12-1.84,1.4-3.32,4.03-3.32,2.11,0,3.61.78,3.61,3.12v5.49c0,.72.19,1.24.37,1.35v.06h-1.52c-.17-.17-.29-.49-.31-1.35ZM1063.6,173.51v-1.5c-.52.27-1.44.51-2.3.61-1.71.21-2.76.47-2.76,1.88,0,1.31,1.06,1.65,2.07,1.65,2.07,0,2.99-1.5,2.99-2.64Z"/>
      <path class="st0" d="M1067.04,167.32h1.67l1.75,6.06c.23.82.54,2.11.54,2.11h.04s.29-1.29.5-2.07l1.67-6.1h1.63l1.61,6.1c.21.8.48,2.07.48,2.07h.04s.31-1.29.56-2.11l1.84-6.06h1.61l-3.24,9.82h-1.59l-1.65-5.95c-.23-.82-.48-2.05-.48-2.05h-.04s-.27,1.23-.5,2.05l-1.67,5.95h-1.61l-3.15-9.82Z"/>
      <path class="st0" d="M1083.12,163.56h1.55v13.58h-1.55v-13.58Z"/>
      <path class="st0" d="M1087.24,172.24c0-2.85,1.88-5.17,4.7-5.17,2.98,0,4.57,2.28,4.57,5.53h-7.68c.11,2,1.21,3.51,3.21,3.51,1.44,0,2.4-.68,2.75-2.01h1.52c-.46,2.11-2.02,3.31-4.26,3.31-3.03,0-4.8-2.32-4.8-5.17ZM1088.88,171.44h5.97c-.1-1.96-1.11-3.15-2.9-3.15s-2.84,1.37-3.07,3.15Z"/>
      <path class="st0" d="M1098.35,173.95h1.59c.21,1.71,1.36,2.18,2.84,2.18,1.63,0,2.3-.7,2.3-1.62,0-1.1-.77-1.39-2.59-1.77-1.96-.4-3.7-.8-3.7-2.94,0-1.63,1.27-2.7,3.57-2.7,2.46,0,3.67,1.16,3.9,3.08h-1.59c-.15-1.29-.86-1.86-2.34-1.86s-2,.63-2,1.41c0,1.06.96,1.27,2.67,1.62,2,.4,3.67.83,3.67,3.1,0,1.98-1.63,2.98-3.92,2.98-2.73,0-4.24-1.27-4.4-3.48Z"/>
      <path class="st0" d="M1108.49,173.95h1.59c.21,1.71,1.36,2.18,2.84,2.18,1.63,0,2.3-.7,2.3-1.62,0-1.1-.77-1.39-2.59-1.77-1.96-.4-3.7-.8-3.7-2.94,0-1.63,1.27-2.7,3.57-2.7,2.46,0,3.67,1.16,3.9,3.08h-1.59c-.15-1.29-.86-1.86-2.34-1.86s-2,.63-2,1.41c0,1.06.96,1.27,2.67,1.62,2,.4,3.67.83,3.67,3.1,0,1.98-1.63,2.98-3.92,2.98-2.73,0-4.24-1.27-4.4-3.48Z"/>
    </g>
    <g>
      <path class="st0" d="M1053.93,206.15c0,1.04.03,1.66.03,2.08,0,.39-.09.66-.34.86-.21.17-.58.25-1.68.25-.25,0-.26,0-.33-.26-.05-.23-.14-.46-.26-.61.42.04.93.07,1.19.07.46-.01.59-.12.59-.49v-6.92h-3.94c.7,2.25,1.82,3.51,3.74,4.58-.18.13-.34.27-.46.46-.08.12-.12.17-.17.17s-.1-.04-.2-.1c-1.52-1-2.56-2.2-3.2-4.06-.07.25-.14.49-.24.7-.51,1.26-1.23,2.35-2.97,3.42-.09.06-.14.1-.18.1-.05,0-.09-.05-.17-.16-.14-.2-.28-.33-.45-.44,1.77-.94,2.55-2,3.03-3.16.18-.43.3-.95.38-1.51h-3.57v6.3c0,1.3.03,1.85.03,1.91,0,.09-.01.1-.1.1h-.64c-.09,0-.1-.01-.1-.1,0-.06.03-.6.03-1.98v-4.89c0-1.38-.03-1.94-.03-2,0-.09.01-.1.1-.1.08,0,.53.03,1.84.03h2.53c.03-.4.04-.81.04-1.21,0-.43-.01-.91-.08-1.29.29.01.59.04.88.08.11.01.14.07.14.13,0,.08-.04.16-.07.25-.04.13-.07.39-.08.98,0,.31-.01.69-.05,1.07h2.83c1.31,0,1.77-.03,1.84-.03.09,0,.11.01.11.1,0,.07-.03.68-.03,2.05v3.63Z"/>
      <path class="st0" d="M1063.58,203.96c.93.78,2.02,1.4,3.35,1.99-.13.13-.26.29-.37.51-.07.14-.11.2-.17.2-.04,0-.09-.03-.18-.07-1-.48-1.86-1-2.62-1.62v2.34c0,1.52.03,2.2.03,2.26,0,.09-.01.1-.1.1h-.64c-.09,0-.1-.01-.1-.1,0-.07.03-.74.03-2.26v-2.93c-.7-.73-1.3-1.55-1.85-2.52-.81,3.11-2.41,5.49-5.17,7.4-.11.08-.16.12-.2.12-.05,0-.1-.05-.2-.16-.13-.16-.29-.29-.47-.39,1.55-.92,2.87-2.2,3.86-3.77-.55-.64-1.02-1.09-1.59-1.57-.08-.07-.07-.08.04-.21l.26-.31c.08-.09.1-.09.18-.03.49.39,1.02.9,1.51,1.42.55-1.03.96-2.18,1.22-3.45h-2.4c-.58,1.22-1.33,2.35-2.44,3.52-.08.08-.12.12-.17.12-.04,0-.09-.05-.17-.16-.12-.16-.24-.29-.39-.4,1.6-1.53,2.47-3.13,3.04-4.91.13-.42.17-.73.18-.99.34.07.56.13.8.21.13.05.16.1.16.17s-.04.12-.08.16c-.09.09-.16.29-.25.55-.12.36-.25.71-.38,1.05h1.97c.18,0,.26-.01.33-.05.05-.03.08-.04.13-.04.09,0,.18.04.39.23.2.18.24.25.24.3s-.05.12-.13.2c-.03.03-.04.05-.05.08.5.91,1.02,1.69,1.63,2.35v-3.46c0-.92-.01-1.33-.09-1.78.34.01.64.04.88.08.09.01.16.04.16.1s-.04.13-.07.23c-.04.14-.08.47-.08,1.34v4.16Z"/>
      <path class="st0" d="M1073.36,203.43c0,.09-.01.1-.11.1-.08,0-.47-.03-1.71-.03h-2.91c-1.23,0-1.64.03-1.71.03-.09,0-.1-.01-.1-.1v-.55c0-.09.01-.1.1-.1.07,0,.47.03,1.71.03h2.06c.3-.68.45-1.1.59-1.56.05-.21.12-.48.12-.7.26.05.56.13.76.2.1.04.16.08.16.13,0,.09-.04.14-.1.21-.05.06-.12.13-.2.31-.18.46-.38.91-.6,1.42h.13c1.23,0,1.63-.03,1.71-.03.09,0,.11.01.11.1v.55ZM1073.15,200.05c0,.09-.01.1-.09.1s-.46-.03-1.64-.03h-2.49c-1.19,0-1.58.03-1.64.03-.09,0-.1-.01-.1-.1v-.53c0-.09.01-.1.1-.1.07,0,.45.03,1.64.03h.83v-.38c0-.52-.01-.83-.08-1.12.31.01.56.04.83.08.09.01.16.05.16.1,0,.08-.04.13-.08.22-.05.1-.07.29-.07.71v.38h.91c1.18,0,1.56-.03,1.64-.03s.09.01.09.1v.53ZM1072.5,207.25c0,1.81.03,2.11.03,2.17,0,.1-.01.12-.11.12h-.56c-.09,0-.1-.01-.1-.12v-.73h-3.2v.78c0,.08-.01.09-.1.09h-.59c-.08,0-.09-.01-.09-.09s.03-.38.03-2.2v-.96c0-.99-.03-1.33-.03-1.4,0-.09.01-.1.09-.1s.41.03,1.43.03h1.69c1.02,0,1.37-.03,1.44-.03.09,0,.11.01.11.1,0,.07-.03.42-.03,1.25v1.09ZM1068.55,200.55c.14-.04.2-.03.22.04.24.48.43,1.01.56,1.6q.03.12-.13.17l-.38.1c-.17.05-.18.03-.21-.08-.12-.52-.3-1.1-.54-1.59-.05-.1-.04-.1.13-.16l.34-.09ZM1071.75,205.52h-3.2v2.48h3.2v-2.48ZM1077.22,198.67c.17,0,.29-.01.34-.04.07-.03.09-.03.14-.03.08,0,.16.04.35.23.18.2.22.29.22.35,0,.08-.03.13-.09.17-.08.05-.16.16-.28.42-.49,1.07-1.04,2.12-1.65,3.12,1.63,1.3,2.05,2.11,2.05,3.05,0,1.2-.83,1.88-2.45,1.96q-.25.03-.32-.25c-.05-.22-.13-.39-.24-.49,1.47.03,2.23-.35,2.23-1.29,0-.79-.35-1.4-2.14-2.89.72-1.13,1.31-2.29,1.84-3.63h-2.52v7.57c0,1.77.03,2.56.03,2.63,0,.08-.01.09-.11.09h-.6c-.09,0-.1-.01-.1-.09s.03-.81.03-2.61v-5.58c0-1.81-.03-2.55-.03-2.63,0-.09.01-.1.1-.1.08,0,.39.03,1.17.03h2.02Z"/>
      <path class="st0" d="M1090.21,203.13c0,.09-.01.1-.1.1-.07,0-.47-.03-1.69-.03h-.26v2.21c1.01,0,1.4-.03,1.47-.03.09,0,.1.01.1.1v.52c0,.09-.01.1-.1.1-.07,0-.51-.03-1.8-.03h-6.73c-1.29,0-1.72.03-1.78.03-.09,0-.11-.01-.11-.1v-.52c0-.09.01-.1.11-.1.05,0,.43.03,1.46.03v-2.21h-.38c-1.22,0-1.63.03-1.69.03-.09,0-.1-.01-.1-.1v-.55c0-.09.01-.1.1-.1.07,0,.47.03,1.69.03h.38v-1.9c-.33.38-.68.75-1.04,1.08-.09.09-.14.13-.18.13-.07,0-.11-.05-.2-.17-.12-.14-.22-.23-.37-.31,1.05-.82,1.82-1.79,2.35-2.76.17-.34.25-.52.32-.81.26.06.52.16.73.26.07.03.12.08.12.13s-.03.09-.12.16c-.09.06-.2.19-.31.4-.17.3-.37.62-.59.95h6.22c1.34,0,1.79-.03,1.86-.03.09,0,.11.01.11.1v.53c0,.09-.01.1-.11.1-.07,0-.43-.01-1.4-.03v2.14h.26c1.22,0,1.63-.03,1.69-.03.09,0,.1.01.1.1v.55ZM1081.03,206.9c.14.08.14.1.12.18-.45.88-.98,1.6-1.68,2.28-.08.08-.12.07-.25-.03l-.33-.25c-.13-.1-.13-.14-.05-.22.71-.62,1.22-1.27,1.61-2.11.04-.08.07-.08.25,0l.33.14ZM1082.96,200.36h-1.48v2.14h1.48v-2.14ZM1082.96,203.21h-1.48v2.21h1.48v-2.21ZM1082.94,206.86c.13-.03.16-.01.18.09.22.65.34,1.33.43,2.15.01.09,0,.12-.16.13l-.45.05c-.18.03-.2,0-.2-.1-.05-.78-.16-1.42-.37-2.09-.03-.12,0-.13.18-.16l.37-.07ZM1085.18,200.36h-1.51v2.14h1.51v-2.14ZM1085.18,203.21h-1.51v2.21h1.51v-2.21ZM1085.52,206.82c.14-.04.16-.03.21.07.35.73.58,1.38.75,2.11.03.1.01.12-.13.16l-.42.1c-.2.05-.22.05-.25-.05-.14-.75-.37-1.46-.67-2.12-.04-.09-.03-.1.14-.16l.37-.1ZM1087.42,200.36h-1.54v2.14h1.54v-2.14ZM1087.42,203.21h-1.54v2.21h1.54v-2.21ZM1088.05,206.68c.14-.07.16-.07.24.01.64.7,1.1,1.34,1.54,2.17.05.09.04.13-.12.21l-.37.18c-.17.09-.2.09-.25,0-.41-.86-.84-1.51-1.46-2.25-.07-.08-.05-.09.1-.17l.32-.16Z"/>
      <path class="st0" d="M1101.6,209.23c-.08.14-.09.21-.17.21-.04,0-.11-.03-.2-.05-3.03-1.11-4.46-2.76-5.04-4.78-.55,2.08-1.99,3.69-4.96,4.8-.09.04-.16.05-.2.05-.07,0-.1-.05-.2-.18-.13-.21-.28-.35-.43-.47,3.62-1.12,5.17-3.16,5.2-5.75,0-.52,0-.79-.07-1.16.3.01.59.04.85.08.14.03.2.08.2.14,0,.09-.05.16-.08.26-.04.12-.04.3-.07.66.41,2.63,1.97,4.58,5.58,5.63-.18.17-.31.36-.42.56ZM1100.06,200.31c.18,0,.28-.01.34-.04.05-.03.11-.04.16-.04.11,0,.18.04.41.25.2.17.25.27.25.34,0,.08-.03.13-.09.18-.09.07-.18.13-.28.33-.32.71-.87,1.62-1.4,2.37-.08.1-.12.16-.17.16s-.1-.04-.21-.12c-.16-.1-.35-.18-.52-.22.62-.7,1.14-1.57,1.54-2.44h-6.26c-.51,1.03-1.12,1.94-1.82,2.69-.08.08-.13.13-.18.13-.04,0-.09-.05-.18-.13-.16-.13-.31-.23-.51-.31,1.25-1.18,2.09-2.68,2.6-4.2.16-.47.24-.79.26-1.24.31.07.63.14.85.22.13.04.18.1.18.18,0,.06-.07.14-.13.21-.07.08-.16.23-.29.6-.13.38-.28.74-.43,1.09h5.91Z"/>
      <path class="st0" d="M1104.46,206.92c.16.07.17.1.13.2-.38.91-.84,1.64-1.48,2.33-.04.05-.08.08-.12.08s-.09-.03-.17-.08l-.33-.18c-.18-.1-.2-.14-.12-.21.66-.64,1.17-1.39,1.51-2.21.04-.1.09-.12.26-.05l.32.13ZM1113.08,200.35c0,.09-.01.1-.11.1-.07,0-.51-.03-1.81-.03h-3.03v1.56h1.85c1.31,0,1.77-.03,1.85-.03.09,0,.11.01.11.09s-.03.35-.03,1.14v1.53c0,.79.03,1.07.03,1.14,0,.09-.01.1-.11.1-.08,0-.54-.03-1.85-.03h-3.99c-1.3,0-1.76.03-1.84.03-.09,0-.1-.01-.1-.1,0-.08.03-.35.03-1.14v-1.53c0-.79-.03-1.07-.03-1.14s.01-.09.1-.09c.08,0,.54.03,1.84.03h1.33v-2.46c0-.75-.01-1.11-.09-1.59.34.01.64.04.89.08.09.01.16.04.16.1s-.01.13-.05.23c-.05.13-.09.4-.09,1.05v.27h3.03c1.3,0,1.75-.03,1.81-.03.09,0,.11.01.11.1v.58ZM1111.1,202.72h-6.21v2.51h6.21v-2.51ZM1106.52,206.85c.14-.03.17,0,.2.1.21.65.35,1.46.46,2.25.01.09-.01.14-.16.16l-.43.04c-.18.03-.21.01-.21-.09-.05-.78-.21-1.59-.39-2.28-.03-.09-.01-.12.16-.14l.38-.04ZM1109.04,206.79c.11-.03.14,0,.18.09.35.66.67,1.51.85,2.24.03.1.01.13-.13.17l-.41.09c-.2.05-.22.05-.25-.05-.16-.75-.43-1.59-.76-2.25-.04-.09-.04-.12.13-.17l.38-.12ZM1111.6,206.63c.14-.08.18-.06.25.01.67.74,1.18,1.55,1.59,2.38.05.09.04.12-.12.2l-.37.17c-.18.09-.21.09-.25,0-.39-.88-.88-1.66-1.51-2.43-.07-.08-.04-.1.12-.18l.29-.14Z"/>
    </g>
  </g>
  <g>
    <g>
      <path class="st0" d="M199.52,172.55h1.69c.23,2.3,1.65,3.5,4.24,3.5,1.9,0,3.26-.85,3.26-2.54,0-1.86-1.65-2.3-4.11-2.83-2.42-.53-4.49-1.22-4.49-3.78,0-2.24,1.88-3.59,4.66-3.59,3.44,0,4.86,1.73,5.2,4.24h-1.63c-.25-1.94-1.52-2.91-3.53-2.91-1.86,0-3.09.78-3.09,2.18,0,1.54,1.54,2,3.59,2.39,2.67.53,5.11,1.18,5.11,4.24,0,2.55-2.09,3.97-5.05,3.97-3.86,0-5.7-2.13-5.86-4.86Z"/>
      <path class="st0" d="M213.19,163.56h1.55v13.58h-1.55v-13.58Z"/>
      <path class="st0" d="M217.87,163.56h1.55v1.9h-1.55v-1.9ZM217.87,167.32h1.55v9.82h-1.55v-9.82Z"/>
      <path class="st0" d="M222.25,177.69h1.44c.15,1.08,1.19,1.5,2.73,1.5,1.82,0,2.84-.82,2.84-2.53v-1.39h-.04c-.73.93-1.52,1.52-2.94,1.52-2.57,0-4.34-2.03-4.34-4.86,0-3.06,1.94-4.84,4.24-4.84,1.44,0,2.36.55,3.03,1.48h.04v-1.25h1.55v9.29c0,2.58-1.73,3.8-4.36,3.8s-4.03-1.03-4.2-2.72ZM229.37,171.86c0-2.15-.92-3.48-3.03-3.48-1.86,0-2.8,1.44-2.8,3.57s.98,3.55,2.82,3.55c2.28,0,3.01-1.58,3.01-3.65Z"/>
      <path class="st0" d="M235.43,168.61h.04c.71-.93,1.71-1.52,3.15-1.52,2.07,0,3.34,1.12,3.34,3.15v6.9h-1.55v-6.76c0-1.27-.84-1.99-2.25-1.99-1.57,0-2.73,1.1-2.73,2.72v6.04h-1.55v-13.58h1.55v5.05Z"/>
      <path class="st0" d="M244.33,167.32h1.44v-3.1h1.55v3.1h1.92v1.25h-1.92v6.38c0,.68.36.91,1,.91.31,0,.65-.08.83-.13h.06v1.33c-.36.08-.79.13-1.25.13-1.27,0-2.19-.51-2.19-1.9v-6.73h-1.44v-1.25Z"/>
      <path class="st0" d="M251.87,163.56h1.55v13.58h-1.55v-13.58Z"/>
      <path class="st0" d="M256.42,180.18v-1.37h.08c.21.11.54.21,1.06.21.65,0,1.09-.25,1.48-1.2l.38-.97-3.88-9.54h1.69l2.34,6.12c.31.82.67,1.92.67,1.92h.04s.35-1.1.65-1.92l2.26-6.12h1.65l-4.24,10.62c-.81,2.03-1.57,2.45-2.78,2.45-.59,0-.98-.04-1.4-.21Z"/>
      <path class="st0" d="M271.18,163.56h1.73v13.58h-1.73v-13.58Z"/>
      <path class="st0" d="M277.8,168.61h.04c.71-.93,1.71-1.52,3.15-1.52,2.07,0,3.34,1.12,3.34,3.15v6.9h-1.55v-6.76c0-1.27-.84-1.99-2.25-1.99-1.57,0-2.73,1.1-2.73,2.72v6.04h-1.55v-9.82h1.55v1.29Z"/>
      <path class="st0" d="M286.78,172.24c0-2.85,1.84-5.17,4.8-5.17,2.34,0,3.9,1.33,4.24,3.42h-1.57c-.23-1.33-1.17-2.15-2.67-2.15-2.11,0-3.21,1.73-3.21,3.89s1.09,3.88,3.21,3.88c1.61,0,2.57-.91,2.71-2.43h1.54c-.21,2.36-1.77,3.72-4.24,3.72-2.96,0-4.8-2.32-4.8-5.17Z"/>
      <path class="st0" d="M298.31,163.56h1.55v13.58h-1.55v-13.58Z"/>
      <path class="st0" d="M309.31,177.14v-1.35h-.04c-.71.95-1.55,1.58-3,1.58-2.03,0-3.34-1.22-3.34-3.25v-6.8h1.55v6.76c0,1.27.83,2.01,2.23,2.01,1.57,0,2.59-1.18,2.59-2.74v-6.04h1.55v9.82h-1.55Z"/>
      <path class="st0" d="M313.38,172.26c0-3.27,1.9-5.17,4.36-5.17,1.4,0,2.48.68,3.11,1.62h.04v-5.15h1.55v13.58h-1.55v-1.2h-.04c-.75.95-1.67,1.48-3.07,1.48-2.71,0-4.4-2.01-4.4-5.17ZM320.98,172.28c0-2.28-1.11-3.88-3.17-3.88-1.88,0-2.84,1.67-2.84,3.88s.96,3.86,2.86,3.86c2.21,0,3.15-1.63,3.15-3.86Z"/>
      <path class="st0" d="M324.95,172.24c0-2.85,1.88-5.17,4.7-5.17,2.98,0,4.57,2.28,4.57,5.53h-7.68c.11,2,1.21,3.51,3.21,3.51,1.44,0,2.4-.68,2.75-2.01h1.52c-.46,2.11-2.02,3.31-4.26,3.31-3.03,0-4.8-2.32-4.8-5.17ZM326.58,171.44h5.97c-.1-1.96-1.11-3.15-2.9-3.15s-2.84,1.37-3.07,3.15Z"/>
      <path class="st0" d="M336.13,172.26c0-3.27,1.9-5.17,4.36-5.17,1.4,0,2.48.68,3.11,1.62h.04v-5.15h1.55v13.58h-1.55v-1.2h-.04c-.75.95-1.67,1.48-3.07,1.48-2.71,0-4.4-2.01-4.4-5.17ZM343.74,172.28c0-2.28-1.11-3.88-3.17-3.88-1.88,0-2.84,1.67-2.84,3.88s.96,3.86,2.86,3.86c2.21,0,3.15-1.63,3.15-3.86Z"/>
    </g>
    <g>
      <path class="st0" d="M235.69,198.53c.14.05.16.17.09.33-.07.13-.09.34-.12.51-.03.58-.07,1.04-.09,1.66.09-.04.17-.06.21-.1.03-.03.07-.04.09-.04.05,0,.13.05.25.17.1.1.17.21.17.29s-.05.14-.17.27c-.21.26-.41.53-.64.94-.01.29-.01.49-.01.73,1.27-1.08,2.6-1.66,3.99-1.66,1.98,0,3.12,1.34,3.12,3.07,0,1.6-1.09,3.22-3.48,3.93-.17.07-.29.03-.38-.09-.17-.18-.34-.33-.63-.47,1.26-.31,2.09-.78,2.74-1.44.54-.57.8-1.23.8-1.98,0-1.38-.85-2.28-2.19-2.28s-2.56.53-3.98,1.81c-.01,1.65.01,3.26.04,4.97,0,.08-.04.1-.1.12-.12.01-.46.03-.7.03-.08,0-.1-.03-.1-.12.03-1.6.04-2.98.05-4.71-.79,1.09-1.5,2.12-2.23,3.15-.08.09-.14.1-.22.05-.16-.14-.35-.31-.49-.47-.07-.07-.05-.13.01-.21.98-1.17,1.93-2.42,2.93-3.81.01-.43.04-.83.04-1.14-.51.14-1.12.34-1.56.49-.29.1-.45.26-.55.27-.08.01-.13-.05-.22-.17-.1-.17-.25-.43-.37-.71.3-.03.54-.05.87-.13.56-.16,1.09-.29,1.85-.51.03-.51.03-.99.05-1.75,0-.44-.01-.81-.1-1.14.51.05.81.09,1.04.17Z"/>
      <path class="st0" d="M254.46,201.26c0,.12-.04.13-.17.13-1.4-.04-2.69-.05-4.17,0,0,.82,0,1.72.01,2.59.1.4.16.87.16,1.37,0,1.64-.71,3.03-2.56,4.02-.13.08-.24.12-.3.12-.08,0-.16-.04-.24-.1-.14-.13-.38-.29-.6-.36,1.88-.77,2.74-1.96,2.86-3.28-.29.49-.85.74-1.44.74-.91,0-1.73-.6-1.73-1.83,0-1.11.83-1.81,1.8-1.81.5,0,.96.14,1.23.44-.01-.64-.01-1.22-.03-1.83-1.88.1-3.65.23-4.89.39-.31.04-.47.13-.58.13-.08,0-.13-.04-.16-.13-.08-.17-.14-.48-.21-.83.45.03.88-.01,1.65-.08,1.06-.08,2.41-.17,4.16-.27-.01-.53-.01-.79-.03-1.21-.01-.33-.04-.53-.13-.87.39.03.77.09,1,.14.14.04.24.1.24.19,0,.08-.04.14-.09.23-.05.09-.08.18-.09.35-.03.29-.03.53-.03,1.11,1.46-.04,2.74-.04,4.2-.04.12,0,.14.01.14.14v.56ZM247.04,204.61c0,.72.47,1.12,1.06,1.12.73,0,1.19-.56,1.19-1.14,0-.65-.49-1.11-1.17-1.11-.58,0-1.09.43-1.09,1.13ZM252.12,198.06c.05-.04.08-.03.13.01.47.39.94.92,1.31,1.51.03.05.03.1-.03.14l-.38.31c-.07.05-.13.04-.17-.03-.33-.57-.77-1.12-1.35-1.6l.49-.35ZM253.49,197.59c.05-.04.09-.05.14-.01.5.4.96.95,1.3,1.47.04.06.03.1-.04.16l-.35.31c-.05.05-.1.05-.16-.03-.3-.53-.72-1.07-1.31-1.57l.42-.32Z"/>
      <path class="st0" d="M259.35,199.86c.1-.46.13-.78.12-1.25.41.1.68.2,1.02.35.14.07.18.22.05.34-.11.1-.16.21-.22.43-.2.64-.37,1.25-.56,1.88.42-.05.96-.09,1.27-.09,1.14,0,1.71.57,1.71,2.09,0,1.72-.29,3.26-.72,4.2-.33.71-.85,1.03-1.5,1.03-.54,0-1.01-.09-1.34-.23-.1-.04-.16-.1-.16-.22-.01-.22-.04-.51-.16-.78.58.25,1.06.36,1.52.36.38,0,.63-.13.88-.68.33-.74.59-2.05.59-3.65,0-1.01-.2-1.38-.91-1.38-.41,0-.96.06-1.42.14-.76,2.25-1.61,4.28-2.68,6.15-.05.09-.13.1-.22.07-.13-.07-.38-.23-.52-.35-.08-.06-.07-.13-.03-.21,1.1-1.83,1.88-3.63,2.52-5.54-.54.08-1.08.17-1.73.29-.24.04-.47.1-.58.17-.14.09-.26.09-.34-.07-.1-.22-.21-.52-.3-.88.47.01.98-.01,1.36-.06.72-.08,1.23-.16,1.85-.25.17-.61.31-1.13.49-1.86ZM264.16,200.92c.08-.03.13-.01.2.05.92.78,1.68,1.91,2.11,3.15.03.09.04.16-.04.22-.13.12-.38.27-.54.35-.1.07-.2.05-.22-.08-.45-1.33-1.1-2.43-2.1-3.29.18-.14.39-.29.59-.4Z"/>
      <path class="st0" d="M273.14,200.45c.12-.03.16,0,.17.08.03.16.05.39.07.56.01.12-.01.14-.12.16-.71.14-1.42.26-2.19.38-.76,2.04-1.71,4-2.64,5.49-.07.1-.13.09-.21.04-.2-.12-.41-.27-.52-.39-.08-.07-.08-.12-.01-.22,1.09-1.62,1.84-3.16,2.47-4.84-.56.05-1.09.09-1.65.09-.2,0-.39,0-.7-.03-.12-.01-.13-.03-.16-.16-.04-.17-.07-.4-.08-.65.42.04.76.05,1.04.05.6,0,1.14-.04,1.78-.1.16-.49.28-.97.39-1.52.08-.38.12-.64.1-1.01.38.07.76.16,1.02.26.08.03.12.08.12.14s-.03.12-.1.2c-.07.08-.1.17-.18.4-.14.47-.29.95-.42,1.4.59-.08,1.15-.17,1.82-.33ZM273.94,203.6c0-.26-.01-.49-.08-.83.35.04.62.08.89.17.09.03.14.08.14.16,0,.05-.03.12-.08.23-.05.14-.05.35-.05.61,0,.78.07,1.56.16,2.39.96.38,1.69.75,2.48,1.3.1.06.09.1.05.21-.07.17-.21.4-.31.57-.07.09-.13.08-.21.01-.59-.52-1.3-.92-1.99-1.24.01,1.31-.66,2.03-2.35,2.03-1,0-2.03-.51-2.03-1.59,0-.98.94-1.64,2.23-1.64.39,0,.91.06,1.31.16-.08-.81-.14-1.85-.16-2.55ZM272.83,206.71c-1.05,0-1.52.4-1.52.88,0,.6.49.87,1.35.87,1.08,0,1.47-.56,1.47-1.22,0-.17,0-.25-.01-.31-.41-.13-.87-.22-1.29-.22ZM275.06,200.88c.07-.1.1-.12.22-.08.88.27,1.82.69,2.57,1.22.09.08.09.13.03.23-.08.17-.2.38-.3.52-.07.09-.1.08-.18.03-.76-.57-1.73-1.04-2.68-1.33.13-.22.24-.44.34-.6Z"/>
      <path class="st0" d="M289.53,206.15c0,1.04.03,1.66.03,2.08,0,.39-.09.66-.34.86-.21.17-.58.25-1.68.25-.25,0-.26,0-.33-.26-.05-.23-.14-.46-.26-.61.42.04.93.06,1.19.06.46-.01.59-.12.59-.49v-6.92h-3.94c.7,2.25,1.82,3.51,3.74,4.58-.18.13-.34.27-.46.46-.08.12-.12.17-.17.17s-.1-.04-.2-.1c-1.52-1-2.56-2.2-3.2-4.06-.07.25-.14.49-.24.7-.51,1.26-1.23,2.35-2.97,3.42-.09.07-.14.1-.18.1-.05,0-.09-.05-.17-.16-.14-.2-.28-.33-.45-.44,1.77-.94,2.55-2,3.03-3.16.18-.43.3-.95.38-1.51h-3.57v6.31c0,1.3.03,1.85.03,1.91,0,.09-.01.1-.1.1h-.64c-.09,0-.1-.01-.1-.1,0-.07.03-.6.03-1.98v-4.89c0-1.38-.03-1.94-.03-2,0-.09.01-.1.1-.1.08,0,.52.03,1.84.03h2.53c.03-.4.04-.81.04-1.21,0-.43-.01-.91-.08-1.29.29.01.59.04.88.08.1.01.14.06.14.13,0,.08-.04.16-.07.25-.04.13-.07.39-.08.97,0,.31-.01.69-.05,1.07h2.83c1.31,0,1.77-.03,1.84-.03.09,0,.1.01.1.1,0,.06-.03.68-.03,2.05v3.63Z"/>
      <path class="st0" d="M299.01,199.73c1.31,0,1.76-.03,1.82-.03.09,0,.12.03.12.12-.03.33-.04.66-.05.96-.07,1.66-.14,3.26-.3,4.37-.13.86-.49,1.39-1.25,1.44-.31.01-.56.01-.89,0-.24-.01-.25-.03-.29-.3-.04-.23-.08-.39-.17-.55.39.06.76.09,1.1.09.39,0,.58-.14.7-.92.16-1.08.25-2.99.28-4.46h-6.76c-.54.9-1.12,1.64-1.86,2.41-.09.09-.14.13-.2.13-.04,0-.08-.04-.17-.14-.14-.16-.31-.26-.47-.35,1.29-1.17,2.06-2.29,2.66-3.67.2-.43.26-.71.3-1,.34.08.64.16.87.23.08.03.13.08.13.14,0,.08-.04.13-.12.18-.12.09-.2.25-.28.43-.13.29-.3.64-.45.91h5.28ZM293.13,207.32c0,.7.08.95.62,1.07.51.1,1.26.14,3.21.14,1.8,0,2.73-.01,3.35-.23.54-.2.75-.57.83-1.74.13.12.35.21.56.29s.24.1.2.35c-.16,1.05-.39,1.53-1.17,1.81-.76.27-1.69.29-3.79.29s-2.87-.05-3.6-.21c-.92-.18-1.01-.65-1.01-1.56v-1.83c0-.65-.03-.94-.03-1,0-.09.01-.1.1-.1.08,0,.5.03,1.5.03h2.99v-1.96h-2.6c-1.06,0-1.39.03-1.46.03-.09,0-.1-.01-.1-.1v-.56c0-.09.01-.1.1-.1.07,0,.39.03,1.46.03h1.82c1.02,0,1.4-.03,1.48-.03.09,0,.1.01.1.1,0,.08-.03.36-.03,1.08v1.09c0,.71.03,1,.03,1.07,0,.09-.01.1-.1.1-.08,0-.46-.03-1.48-.03h-2.99v2Z"/>
      <path class="st0" d="M306.81,201.44c0,.09-.01.1-.1.1-.07,0-.34-.03-1.26-.03h-.07v2.67c.45-.22.91-.47,1.4-.77-.01.18-.01.32.01.52.04.26.03.26-.21.39-.39.21-.79.42-1.21.62v2.37c0,1.55.03,2.24.03,2.3,0,.09-.01.09-.1.09h-.6c-.09,0-.1,0-.1-.09,0-.08.03-.75.03-2.29v-2.02c-.38.17-.76.35-1.17.52-.26.12-.38.19-.45.26-.05.05-.13.1-.18.1s-.1-.03-.14-.1c-.12-.22-.22-.46-.33-.74.34-.08.72-.19,1.17-.36.37-.14.73-.29,1.1-.44v-3.03h-1.14c-.09.57-.21,1.16-.38,1.68-.04.14-.05.2-.1.2s-.1-.03-.21-.08c-.13-.05-.34-.1-.47-.13.45-1.18.6-2.37.66-3.37.03-.26.01-.49-.01-.73.22.03.51.06.71.1.12.03.16.08.16.12,0,.06-.01.09-.05.17-.04.09-.07.2-.08.35l-.1,1h1.04v-1.05c0-.92-.01-1.27-.09-1.78.33.01.58.03.84.07.09.01.14.05.14.12,0,.08-.03.13-.05.23-.05.16-.08.48-.08,1.34v1.08h.07c.92,0,1.19-.03,1.26-.03.09,0,.1.01.1.09v.55ZM311.98,200.59c1.1,0,1.46-.03,1.52-.03.1,0,.13.04.13.13-.01.3-.03.6-.03.88-.03,2.64-.14,4.32-.42,6.01-.21,1.29-.63,1.98-1.68,1.98-.3,0-.75-.03-1.17-.06q-.25-.03-.3-.3c-.05-.25-.1-.42-.2-.58.6.1,1.08.16,1.55.16.67,0,.92-.58,1.05-1.43.25-1.6.39-3.15.42-6.07h-.68c-.87,3.64-2.2,5.92-4.7,7.72-.09.07-.16.1-.2.1-.05,0-.1-.05-.18-.16-.14-.18-.29-.3-.45-.39,2.56-1.72,4-3.93,4.76-7.28h-1.27c-.68,2.29-1.57,3.56-3,4.75-.09.08-.14.12-.18.12-.05,0-.1-.05-.18-.14-.13-.16-.3-.29-.45-.35,1.43-1.01,2.51-2.38,3.06-4.37h-1.21c-.3.51-.66,1-1.09,1.51-.09.1-.13.16-.18.16s-.09-.04-.18-.13c-.14-.14-.26-.22-.42-.29,1.08-1.12,1.69-2.29,2.06-3.43.13-.42.21-.74.24-1.09.3.05.51.1.76.17.09.03.14.07.14.13,0,.08-.04.13-.1.21-.09.1-.16.31-.26.61-.17.49-.35.99-.6,1.48h3.45Z"/>
    </g>
  </g>
  <g>
    <g>
      <path class="st0" d="M501.44,154.06h1.86l3.38,10.11c.21.63.54,1.82.54,1.82h.04s.33-1.22.54-1.82l3.34-10.11h1.8l-4.82,13.58h-1.9l-4.78-13.58Z"/>
      <path class="st0" d="M514.59,162.74c0-2.85,1.88-5.17,4.7-5.17,2.98,0,4.57,2.28,4.57,5.53h-7.68c.11,2,1.21,3.51,3.21,3.51,1.44,0,2.4-.68,2.75-2.01h1.52c-.46,2.11-2.02,3.31-4.26,3.31-3.03,0-4.8-2.32-4.8-5.17ZM516.22,161.94h5.97c-.1-1.96-1.11-3.15-2.9-3.15s-2.84,1.37-3.07,3.15Z"/>
      <path class="st0" d="M527.89,159.45h.04c.59-.95,1.63-1.75,2.96-1.75.29,0,.44.04.63.11v1.48h-.06c-.23-.08-.38-.09-.69-.09-1.54,0-2.88,1.14-2.88,2.98v5.45h-1.55v-9.82h1.55v1.63Z"/>
      <path class="st0" d="M533.74,170.68v-1.37h.08c.21.11.54.21,1.06.21.65,0,1.09-.25,1.48-1.2l.38-.97-3.88-9.54h1.69l2.34,6.12c.31.82.67,1.92.67,1.92h.04s.35-1.1.65-1.92l2.26-6.12h1.65l-4.24,10.62c-.81,2.03-1.57,2.45-2.78,2.45-.59,0-.98-.04-1.4-.21Z"/>
      <path class="st0" d="M446.57,182.05h1.69c.23,2.3,1.65,3.5,4.24,3.5,1.9,0,3.26-.85,3.26-2.54,0-1.86-1.65-2.3-4.11-2.83-2.42-.53-4.49-1.22-4.49-3.78,0-2.24,1.88-3.59,4.66-3.59,3.44,0,4.86,1.73,5.2,4.24h-1.63c-.25-1.94-1.52-2.91-3.53-2.91-1.86,0-3.09.78-3.09,2.18,0,1.54,1.54,2,3.59,2.39,2.67.53,5.11,1.18,5.11,4.24,0,2.55-2.09,3.97-5.05,3.97-3.86,0-5.7-2.13-5.86-4.86Z"/>
      <path class="st0" d="M460.23,173.06h1.55v13.58h-1.55v-13.58Z"/>
      <path class="st0" d="M464.92,173.06h1.55v1.9h-1.55v-1.9ZM464.92,176.82h1.55v9.82h-1.55v-9.82Z"/>
      <path class="st0" d="M469.29,187.19h1.44c.15,1.08,1.19,1.5,2.73,1.5,1.82,0,2.84-.82,2.84-2.53v-1.39h-.04c-.73.93-1.52,1.52-2.94,1.52-2.57,0-4.34-2.03-4.34-4.86,0-3.06,1.94-4.84,4.24-4.84,1.44,0,2.36.55,3.03,1.48h.04v-1.25h1.55v9.29c0,2.58-1.73,3.8-4.36,3.8s-4.03-1.03-4.2-2.72ZM476.41,181.36c0-2.15-.92-3.48-3.03-3.48-1.86,0-2.8,1.44-2.8,3.57s.98,3.55,2.82,3.55c2.28,0,3.01-1.58,3.01-3.65Z"/>
      <path class="st0" d="M482.48,178.11h.04c.71-.93,1.71-1.52,3.15-1.52,2.07,0,3.34,1.12,3.34,3.15v6.9h-1.55v-6.76c0-1.27-.84-1.99-2.25-1.99-1.57,0-2.73,1.1-2.73,2.72v6.04h-1.55v-13.58h1.55v5.05Z"/>
      <path class="st0" d="M491.38,176.82h1.44v-3.1h1.55v3.1h1.92v1.25h-1.92v6.38c0,.68.36.91,1,.91.31,0,.65-.08.83-.13h.06v1.33c-.36.08-.79.13-1.25.13-1.27,0-2.19-.51-2.19-1.9v-6.73h-1.44v-1.25Z"/>
      <path class="st0" d="M498.92,173.06h1.55v13.58h-1.55v-13.58Z"/>
      <path class="st0" d="M503.47,189.68v-1.37h.08c.21.11.54.21,1.06.21.65,0,1.09-.25,1.48-1.2l.38-.97-3.88-9.54h1.69l2.34,6.12c.31.82.67,1.92.67,1.92h.04s.35-1.1.65-1.92l2.26-6.12h1.65l-4.24,10.62c-.81,2.03-1.57,2.45-2.78,2.45-.59,0-.98-.04-1.4-.21Z"/>
      <path class="st0" d="M518.23,173.06h1.73v13.58h-1.73v-13.58Z"/>
      <path class="st0" d="M524.85,178.11h.04c.71-.93,1.71-1.52,3.15-1.52,2.07,0,3.34,1.12,3.34,3.15v6.9h-1.55v-6.76c0-1.27-.84-1.99-2.25-1.99-1.57,0-2.73,1.1-2.73,2.72v6.04h-1.55v-9.82h1.55v1.29Z"/>
      <path class="st0" d="M533.83,181.74c0-2.85,1.84-5.17,4.8-5.17,2.34,0,3.9,1.33,4.24,3.42h-1.57c-.23-1.33-1.17-2.15-2.67-2.15-2.11,0-3.21,1.73-3.21,3.89s1.09,3.88,3.21,3.88c1.61,0,2.57-.91,2.71-2.43h1.54c-.21,2.36-1.77,3.72-4.24,3.72-2.96,0-4.8-2.32-4.8-5.17Z"/>
      <path class="st0" d="M545.36,173.06h1.55v13.58h-1.55v-13.58Z"/>
      <path class="st0" d="M556.36,186.64v-1.35h-.04c-.71.95-1.55,1.58-3,1.58-2.03,0-3.34-1.22-3.34-3.25v-6.8h1.55v6.76c0,1.27.83,2.01,2.23,2.01,1.57,0,2.59-1.18,2.59-2.74v-6.04h1.55v9.82h-1.55Z"/>
      <path class="st0" d="M560.42,181.76c0-3.27,1.9-5.17,4.36-5.17,1.4,0,2.48.68,3.11,1.62h.04v-5.15h1.55v13.58h-1.55v-1.2h-.04c-.75.95-1.67,1.48-3.07,1.48-2.71,0-4.4-2.01-4.4-5.17ZM568.02,181.78c0-2.28-1.11-3.88-3.17-3.88-1.88,0-2.84,1.67-2.84,3.88s.96,3.86,2.86,3.86c2.21,0,3.15-1.63,3.15-3.86Z"/>
      <path class="st0" d="M571.99,181.74c0-2.85,1.88-5.17,4.7-5.17,2.98,0,4.57,2.28,4.57,5.53h-7.68c.12,2,1.21,3.51,3.21,3.51,1.44,0,2.4-.68,2.75-2.01h1.52c-.46,2.11-2.02,3.31-4.26,3.31-3.03,0-4.8-2.32-4.8-5.17ZM573.63,180.94h5.97c-.1-1.96-1.11-3.15-2.9-3.15s-2.84,1.37-3.07,3.15Z"/>
      <path class="st0" d="M583.18,181.76c0-3.27,1.9-5.17,4.36-5.17,1.4,0,2.48.68,3.11,1.62h.04v-5.15h1.55v13.58h-1.55v-1.2h-.04c-.75.95-1.67,1.48-3.07,1.48-2.71,0-4.4-2.01-4.4-5.17ZM590.78,181.78c0-2.28-1.11-3.88-3.17-3.88-1.88,0-2.84,1.67-2.84,3.88s.96,3.86,2.86,3.86c2.21,0,3.15-1.63,3.15-3.86Z"/>
    </g>
    <g>
      <path class="st0" d="M471.39,205.11c.08.04.09.09.04.17-.17.27-.35.65-.35,1.01,0,1.07,1.21,1.59,3.36,1.59,1.54,0,2.78-.14,3.77-.38.12-.03.16-.01.18.09.04.14.09.47.12.68.01.1-.04.14-.17.17-1.02.21-2.18.34-3.98.34-2.56,0-4.08-.77-4.08-2.44,0-.56.21-1.05.54-1.53.18.09.39.21.58.31ZM474.46,200.25c.95,0,2-.04,2.9-.12.12-.01.17.03.18.12.03.17.04.35.04.58,0,.14-.05.18-.18.2-1.1.16-2.31.75-3.4,1.48-.12.09-.25.1-.37.03-.16-.12-.33-.21-.54-.26.83-.56,1.57-.97,2.26-1.3-.43.04-1.01.05-1.42.05-.85,0-1.86-.06-2.66-.23-.08-.01-.12-.05-.12-.18,0-.17.01-.44.03-.66.88.2,2.02.3,3.28.3ZM477.83,198.58c.05-.04.09-.04.14,0,.52.36,1.1,1,1.48,1.57.04.05.03.1-.03.14l-.38.31c-.07.05-.13.04-.17-.03-.38-.64-.93-1.25-1.52-1.66l.47-.34ZM478.93,197.72c.05-.04.09-.05.14-.01.53.4,1.12.98,1.5,1.52.04.07.03.1-.04.16l-.35.31c-.05.05-.1.05-.16-.03-.33-.53-.89-1.17-1.51-1.62l.42-.33Z"/>
      <path class="st0" d="M488.43,199.09c.05.05.09.12.09.17,0,.08-.05.13-.13.17-.16.06-.29.16-.49.34-1.29,1.16-2.89,2.63-3.87,3.67-.13.13-.18.23-.18.33s.05.16.17.23c1.61,1.18,3.36,2.57,5.07,4.29.09.1.12.13.01.26-.16.18-.37.38-.5.49-.1.08-.16.09-.25-.03-1.71-1.86-3.4-3.25-4.95-4.41-.35-.27-.51-.51-.51-.82s.16-.53.46-.84c1.06-1.12,2.49-2.5,3.66-3.67.26-.27.42-.49.58-.81.3.19.66.44.84.62Z"/>
      <path class="st0" d="M496.55,198.53c.14.05.16.17.09.33-.07.13-.09.34-.12.51-.03.58-.07,1.04-.09,1.66.09-.04.17-.06.21-.1.03-.03.07-.04.09-.04.05,0,.13.05.25.17.1.1.17.21.17.29s-.05.14-.17.27c-.21.26-.41.53-.64.94-.01.29-.01.49-.01.73,1.27-1.08,2.6-1.66,3.99-1.66,1.98,0,3.12,1.34,3.12,3.07,0,1.6-1.09,3.22-3.48,3.93-.17.07-.29.03-.38-.09-.17-.18-.34-.33-.63-.47,1.26-.31,2.09-.78,2.74-1.44.54-.57.8-1.23.8-1.98,0-1.38-.85-2.28-2.19-2.28s-2.56.53-3.98,1.81c-.01,1.65.01,3.26.04,4.97,0,.08-.04.1-.1.12-.12.01-.46.03-.7.03-.08,0-.1-.03-.1-.12.03-1.6.04-2.98.05-4.71-.79,1.09-1.5,2.12-2.23,3.15-.08.09-.14.1-.22.05-.16-.14-.35-.31-.49-.47-.07-.07-.05-.13.01-.21.98-1.17,1.93-2.42,2.93-3.81.01-.43.04-.83.04-1.14-.51.14-1.12.34-1.56.49-.29.1-.45.26-.55.27-.08.01-.13-.05-.22-.17-.1-.17-.25-.43-.37-.71.3-.03.54-.05.87-.13.56-.16,1.09-.29,1.85-.51.03-.51.03-.99.05-1.75,0-.44-.01-.81-.1-1.14.51.05.81.09,1.04.17Z"/>
      <path class="st0" d="M515.33,201.26c0,.12-.04.13-.17.13-1.4-.04-2.69-.05-4.17,0,0,.82,0,1.72.01,2.59.1.4.16.87.16,1.37,0,1.64-.71,3.03-2.56,4.02-.13.08-.24.12-.3.12-.08,0-.16-.04-.24-.1-.14-.13-.38-.29-.6-.36,1.88-.77,2.74-1.96,2.86-3.28-.29.49-.85.74-1.44.74-.91,0-1.73-.6-1.73-1.83,0-1.11.83-1.81,1.8-1.81.5,0,.96.14,1.23.44-.01-.64-.01-1.22-.03-1.83-1.88.1-3.65.23-4.89.39-.31.04-.47.13-.58.13-.08,0-.13-.04-.16-.13-.08-.17-.14-.48-.21-.83.45.03.88-.01,1.65-.08,1.06-.08,2.41-.17,4.16-.27-.01-.53-.01-.79-.03-1.21-.01-.33-.04-.53-.13-.87.39.03.77.09,1,.14.14.04.24.1.24.19,0,.08-.04.14-.09.23-.05.09-.08.18-.09.35-.03.29-.03.53-.03,1.11,1.46-.04,2.74-.04,4.2-.04.12,0,.14.01.14.14v.56ZM507.91,204.61c0,.72.47,1.12,1.06,1.12.73,0,1.19-.56,1.19-1.14,0-.65-.49-1.11-1.17-1.11-.58,0-1.09.43-1.09,1.13ZM512.99,198.06c.05-.04.08-.03.13.01.47.39.94.92,1.31,1.51.03.05.03.1-.03.14l-.38.31c-.07.05-.13.04-.17-.03-.33-.57-.77-1.12-1.35-1.6l.49-.35ZM514.36,197.59c.05-.04.09-.05.14-.01.5.4.96.95,1.3,1.47.04.06.03.1-.04.16l-.35.31c-.05.05-.1.05-.16-.03-.3-.53-.72-1.07-1.31-1.57l.42-.32Z"/>
      <path class="st0" d="M520.21,199.86c.1-.46.13-.78.12-1.25.41.1.68.2,1.02.35.14.07.18.22.05.34-.11.1-.16.21-.22.43-.2.64-.37,1.25-.56,1.88.42-.05.96-.09,1.27-.09,1.14,0,1.71.57,1.71,2.09,0,1.72-.29,3.26-.72,4.2-.33.71-.85,1.03-1.5,1.03-.54,0-1.01-.09-1.34-.23-.1-.04-.16-.1-.16-.22-.01-.22-.04-.51-.16-.78.58.25,1.06.36,1.52.36.38,0,.63-.13.88-.68.33-.74.59-2.05.59-3.65,0-1.01-.2-1.38-.91-1.38-.41,0-.96.06-1.42.14-.76,2.25-1.61,4.28-2.68,6.15-.05.09-.13.1-.22.07-.13-.07-.38-.23-.52-.35-.08-.06-.07-.13-.03-.21,1.1-1.83,1.88-3.63,2.52-5.54-.54.08-1.08.17-1.73.29-.24.04-.47.1-.58.17-.14.09-.26.09-.34-.07-.1-.22-.21-.52-.3-.88.47.01.98-.01,1.36-.06.72-.08,1.23-.16,1.85-.25.17-.61.31-1.13.49-1.86ZM525.03,200.92c.08-.03.13-.01.2.05.92.78,1.68,1.91,2.11,3.15.03.09.04.16-.04.22-.13.12-.38.27-.54.35-.1.07-.2.05-.22-.08-.45-1.33-1.1-2.43-2.1-3.29.18-.14.39-.29.59-.4Z"/>
      <path class="st0" d="M534.01,200.45c.12-.03.16,0,.17.08.03.16.05.39.07.56.01.12-.01.14-.12.16-.71.14-1.42.26-2.19.38-.76,2.04-1.71,4-2.64,5.49-.07.1-.13.09-.21.04-.2-.12-.41-.27-.52-.39-.08-.07-.08-.12-.01-.22,1.09-1.62,1.84-3.16,2.47-4.84-.56.05-1.09.09-1.65.09-.2,0-.39,0-.7-.03-.12-.01-.13-.03-.16-.16-.04-.17-.07-.4-.08-.65.42.04.76.05,1.04.05.6,0,1.14-.04,1.78-.1.16-.49.28-.97.39-1.52.08-.38.12-.64.1-1.01.38.07.76.16,1.02.26.08.03.12.08.12.14s-.03.12-.1.2c-.07.08-.1.17-.18.4-.14.47-.29.95-.42,1.4.59-.08,1.15-.17,1.82-.33ZM534.81,203.6c0-.26-.01-.49-.08-.83.35.04.62.08.89.17.09.03.14.08.14.16,0,.05-.03.12-.08.23-.05.14-.05.35-.05.61,0,.78.07,1.56.16,2.39.96.38,1.69.75,2.48,1.3.1.06.09.1.05.21-.07.17-.21.4-.31.57-.07.09-.13.08-.21.01-.59-.52-1.3-.92-1.99-1.24.01,1.31-.66,2.03-2.35,2.03-1,0-2.03-.51-2.03-1.59,0-.98.94-1.64,2.23-1.64.39,0,.91.06,1.31.16-.08-.81-.14-1.85-.16-2.55ZM533.7,206.71c-1.05,0-1.52.4-1.52.88,0,.6.49.87,1.35.87,1.08,0,1.47-.56,1.47-1.22,0-.17,0-.25-.01-.31-.41-.13-.87-.22-1.29-.22ZM535.93,200.88c.07-.1.1-.12.22-.08.88.27,1.82.69,2.57,1.22.09.08.09.13.03.23-.08.17-.2.38-.3.52-.07.09-.1.08-.18.03-.76-.57-1.73-1.04-2.68-1.33.13-.22.24-.44.34-.6Z"/>
      <path class="st0" d="M550.4,206.15c0,1.04.03,1.66.03,2.08,0,.39-.09.66-.34.86-.21.17-.58.25-1.68.25-.25,0-.26,0-.33-.26-.05-.23-.14-.46-.26-.61.42.04.93.06,1.19.06.46-.01.59-.12.59-.49v-6.92h-3.94c.7,2.25,1.82,3.51,3.74,4.58-.18.13-.34.27-.46.46-.08.12-.12.17-.17.17s-.1-.04-.2-.1c-1.52-1-2.56-2.2-3.2-4.06-.07.25-.14.49-.24.7-.51,1.26-1.23,2.35-2.97,3.42-.09.07-.14.1-.18.1-.05,0-.09-.05-.17-.16-.14-.2-.28-.33-.45-.44,1.77-.94,2.55-2,3.03-3.16.18-.43.3-.95.38-1.51h-3.57v6.31c0,1.3.03,1.85.03,1.91,0,.09-.01.1-.1.1h-.64c-.09,0-.1-.01-.1-.1,0-.07.03-.6.03-1.98v-4.89c0-1.38-.03-1.94-.03-2,0-.09.01-.1.1-.1.08,0,.52.03,1.84.03h2.53c.03-.4.04-.81.04-1.21,0-.43-.01-.91-.08-1.29.29.01.59.04.88.08.1.01.14.06.14.13,0,.08-.04.16-.07.25-.04.13-.07.39-.08.97,0,.31-.01.69-.05,1.07h2.83c1.31,0,1.77-.03,1.84-.03.09,0,.1.01.1.1,0,.06-.03.68-.03,2.05v3.63Z"/>
      <path class="st0" d="M559.88,199.73c1.31,0,1.76-.03,1.82-.03.09,0,.12.03.12.12-.03.33-.04.66-.05.96-.07,1.66-.14,3.26-.3,4.37-.13.86-.49,1.39-1.25,1.44-.31.01-.56.01-.89,0-.24-.01-.25-.03-.29-.3-.04-.23-.08-.39-.17-.55.39.06.76.09,1.1.09.39,0,.58-.14.7-.92.16-1.08.25-2.99.28-4.46h-6.76c-.54.9-1.12,1.64-1.86,2.41-.09.09-.14.13-.2.13-.04,0-.08-.04-.17-.14-.14-.16-.31-.26-.47-.35,1.29-1.17,2.06-2.29,2.66-3.67.2-.43.26-.71.3-1,.34.08.64.16.87.23.08.03.13.08.13.14,0,.08-.04.13-.12.18-.12.09-.2.25-.28.43-.13.29-.3.64-.45.91h5.28ZM554,207.32c0,.7.08.95.62,1.07.51.1,1.26.14,3.21.14,1.8,0,2.73-.01,3.35-.23.54-.2.75-.57.83-1.74.13.12.35.21.56.29s.24.1.2.35c-.16,1.05-.39,1.53-1.17,1.81-.76.27-1.69.29-3.79.29s-2.87-.05-3.6-.21c-.92-.18-1.01-.65-1.01-1.56v-1.83c0-.65-.03-.94-.03-1,0-.09.01-.1.1-.1.08,0,.5.03,1.5.03h2.99v-1.96h-2.6c-1.06,0-1.39.03-1.46.03-.09,0-.1-.01-.1-.1v-.56c0-.09.01-.1.1-.1.07,0,.39.03,1.46.03h1.82c1.02,0,1.4-.03,1.48-.03.09,0,.1.01.1.1,0,.08-.03.36-.03,1.08v1.09c0,.71.03,1,.03,1.07,0,.09-.01.1-.1.1-.08,0-.46-.03-1.48-.03h-2.99v2Z"/>
      <path class="st0" d="M567.68,201.44c0,.09-.01.1-.1.1-.07,0-.34-.03-1.26-.03h-.07v2.67c.45-.22.91-.47,1.4-.77-.01.18-.01.32.01.52.04.26.03.26-.21.39-.39.21-.79.42-1.21.62v2.37c0,1.55.03,2.24.03,2.3,0,.09-.01.09-.1.09h-.6c-.09,0-.1,0-.1-.09,0-.08.03-.75.03-2.29v-2.02c-.38.17-.76.35-1.17.52-.26.12-.38.19-.45.26-.05.05-.13.1-.18.1s-.1-.03-.14-.1c-.12-.22-.22-.46-.33-.74.34-.08.72-.19,1.17-.36.37-.14.73-.29,1.1-.44v-3.03h-1.14c-.09.57-.21,1.16-.38,1.68-.04.14-.05.2-.1.2s-.1-.03-.21-.08c-.13-.05-.34-.1-.47-.13.45-1.18.6-2.37.66-3.37.03-.26.01-.49-.01-.73.22.03.51.06.71.1.12.03.16.08.16.12,0,.06-.01.09-.05.17-.04.09-.07.2-.08.35l-.1,1h1.04v-1.05c0-.92-.01-1.27-.09-1.78.33.01.58.03.84.07.09.01.14.05.14.12,0,.08-.03.13-.05.23-.05.16-.08.48-.08,1.34v1.08h.07c.92,0,1.19-.03,1.26-.03.09,0,.1.01.1.09v.55ZM572.85,200.58c1.1,0,1.46-.03,1.52-.03.1,0,.13.04.13.13-.01.3-.03.6-.03.88-.03,2.64-.14,4.32-.42,6.01-.21,1.29-.63,1.98-1.68,1.98-.3,0-.75-.03-1.17-.06q-.25-.03-.3-.3c-.05-.25-.1-.42-.2-.58.6.1,1.08.16,1.55.16.67,0,.92-.58,1.05-1.43.25-1.6.39-3.15.42-6.07h-.68c-.87,3.64-2.21,5.92-4.7,7.72-.09.07-.16.1-.2.1-.05,0-.1-.05-.18-.16-.14-.18-.29-.3-.45-.39,2.56-1.72,4-3.93,4.76-7.28h-1.27c-.68,2.29-1.58,3.56-3.01,4.75-.09.08-.14.12-.18.12-.05,0-.1-.05-.18-.14-.13-.16-.3-.29-.45-.35,1.43-1.01,2.51-2.38,3.06-4.37h-1.21c-.3.51-.66,1-1.09,1.51-.09.1-.13.16-.18.16s-.09-.04-.18-.13c-.14-.14-.26-.22-.42-.29,1.08-1.12,1.69-2.29,2.06-3.43.13-.42.21-.74.24-1.09.3.05.51.1.76.17.09.03.14.07.14.13,0,.08-.04.13-.1.21-.09.1-.16.31-.26.61-.17.49-.35.99-.6,1.48h3.45Z"/>
    </g>
  </g>
  <g>
    <g>
      <path class="st0" d="M725.39,154.06h1.86l3.38,10.11c.21.63.54,1.82.54,1.82h.04s.33-1.22.54-1.82l3.34-10.11h1.8l-4.82,13.58h-1.9l-4.78-13.58Z"/>
      <path class="st0" d="M738.53,162.74c0-2.85,1.88-5.17,4.7-5.17,2.98,0,4.57,2.28,4.57,5.53h-7.68c.11,2,1.21,3.51,3.21,3.51,1.44,0,2.4-.68,2.75-2.01h1.52c-.46,2.11-2.02,3.31-4.26,3.31-3.03,0-4.8-2.32-4.8-5.17ZM740.17,161.94h5.97c-.1-1.96-1.11-3.15-2.9-3.15s-2.84,1.37-3.07,3.15Z"/>
      <path class="st0" d="M751.83,159.45h.04c.59-.95,1.63-1.75,2.96-1.75.29,0,.44.04.63.11v1.48h-.06c-.23-.08-.38-.09-.69-.09-1.54,0-2.88,1.14-2.88,2.98v5.45h-1.55v-9.82h1.55v1.63Z"/>
      <path class="st0" d="M757.69,170.68v-1.37h.08c.21.11.54.21,1.06.21.65,0,1.09-.25,1.48-1.2l.38-.97-3.88-9.54h1.69l2.34,6.12c.31.82.67,1.92.67,1.92h.04s.35-1.1.65-1.92l2.26-6.12h1.65l-4.24,10.62c-.81,2.03-1.57,2.45-2.78,2.45-.59,0-.98-.04-1.4-.21Z"/>
      <path class="st0" d="M771.31,154.06h1.86l3.38,10.11c.21.63.54,1.82.54,1.82h.04s.33-1.22.54-1.82l3.34-10.11h1.8l-4.82,13.58h-1.9l-4.78-13.58Z"/>
      <path class="st0" d="M784.45,162.74c0-2.85,1.88-5.17,4.7-5.17,2.98,0,4.57,2.28,4.57,5.53h-7.68c.11,2,1.21,3.51,3.21,3.51,1.44,0,2.4-.68,2.75-2.01h1.52c-.46,2.11-2.02,3.31-4.26,3.31-3.03,0-4.8-2.32-4.8-5.17ZM786.09,161.94h5.97c-.1-1.96-1.11-3.15-2.9-3.15s-2.84,1.37-3.07,3.15Z"/>
      <path class="st0" d="M797.75,159.45h.04c.59-.95,1.63-1.75,2.96-1.75.29,0,.44.04.63.11v1.48h-.06c-.23-.08-.38-.09-.69-.09-1.54,0-2.88,1.14-2.88,2.98v5.45h-1.55v-9.82h1.55v1.63Z"/>
      <path class="st0" d="M803.61,170.68v-1.37h.08c.21.11.54.21,1.06.21.65,0,1.09-.25,1.48-1.2l.38-.97-3.88-9.54h1.69l2.34,6.12c.31.82.67,1.92.67,1.92h.04s.35-1.1.65-1.92l2.26-6.12h1.65l-4.24,10.62c-.81,2.03-1.57,2.45-2.78,2.45-.59,0-.98-.04-1.4-.21Z"/>
      <path class="st0" d="M693.48,182.05h1.69c.23,2.3,1.65,3.5,4.24,3.5,1.9,0,3.26-.85,3.26-2.54,0-1.86-1.65-2.3-4.11-2.83-2.42-.53-4.49-1.22-4.49-3.78,0-2.24,1.88-3.59,4.66-3.59,3.44,0,4.86,1.73,5.2,4.24h-1.63c-.25-1.94-1.52-2.91-3.53-2.91-1.86,0-3.09.78-3.09,2.18,0,1.54,1.54,2,3.59,2.39,2.67.53,5.11,1.18,5.11,4.24,0,2.55-2.09,3.97-5.05,3.97-3.86,0-5.7-2.13-5.86-4.86Z"/>
      <path class="st0" d="M707.14,173.06h1.55v13.58h-1.55v-13.58Z"/>
      <path class="st0" d="M711.82,173.06h1.55v1.9h-1.55v-1.9ZM711.82,176.82h1.55v9.82h-1.55v-9.82Z"/>
      <path class="st0" d="M716.2,187.19h1.44c.15,1.08,1.19,1.5,2.73,1.5,1.82,0,2.84-.82,2.84-2.53v-1.39h-.04c-.73.93-1.52,1.52-2.94,1.52-2.57,0-4.34-2.03-4.34-4.86,0-3.06,1.94-4.84,4.24-4.84,1.44,0,2.36.55,3.03,1.48h.04v-1.25h1.55v9.29c0,2.58-1.73,3.8-4.36,3.8s-4.03-1.03-4.2-2.72ZM723.32,181.36c0-2.15-.92-3.48-3.03-3.48-1.86,0-2.8,1.44-2.8,3.57s.98,3.55,2.82,3.55c2.28,0,3.01-1.58,3.01-3.65Z"/>
      <path class="st0" d="M729.38,178.11h.04c.71-.93,1.71-1.52,3.15-1.52,2.07,0,3.34,1.12,3.34,3.15v6.9h-1.55v-6.76c0-1.27-.84-1.99-2.25-1.99-1.57,0-2.73,1.1-2.73,2.72v6.04h-1.55v-13.58h1.55v5.05Z"/>
      <path class="st0" d="M738.28,176.82h1.44v-3.1h1.55v3.1h1.92v1.25h-1.92v6.38c0,.68.36.91,1,.91.31,0,.65-.08.83-.13h.06v1.33c-.36.08-.79.13-1.25.13-1.27,0-2.19-.51-2.19-1.9v-6.73h-1.44v-1.25Z"/>
      <path class="st0" d="M745.83,173.06h1.55v13.58h-1.55v-13.58Z"/>
      <path class="st0" d="M750.37,189.68v-1.37h.08c.21.11.54.21,1.06.21.65,0,1.09-.25,1.48-1.2l.38-.97-3.88-9.54h1.69l2.34,6.12c.31.82.67,1.92.67,1.92h.04s.35-1.1.65-1.92l2.26-6.12h1.65l-4.24,10.62c-.81,2.03-1.57,2.45-2.78,2.45-.59,0-.98-.04-1.4-.21Z"/>
      <path class="st0" d="M765.13,173.06h1.73v13.58h-1.73v-13.58Z"/>
      <path class="st0" d="M771.75,178.11h.04c.71-.93,1.71-1.52,3.15-1.52,2.07,0,3.34,1.12,3.34,3.15v6.9h-1.55v-6.76c0-1.27-.84-1.99-2.25-1.99-1.57,0-2.73,1.1-2.73,2.72v6.04h-1.55v-9.82h1.55v1.29Z"/>
      <path class="st0" d="M780.73,181.74c0-2.85,1.84-5.17,4.8-5.17,2.34,0,3.9,1.33,4.24,3.42h-1.57c-.23-1.33-1.17-2.15-2.67-2.15-2.11,0-3.21,1.73-3.21,3.89s1.09,3.88,3.21,3.88c1.61,0,2.57-.91,2.71-2.43h1.54c-.21,2.36-1.77,3.72-4.24,3.72-2.96,0-4.8-2.32-4.8-5.17Z"/>
      <path class="st0" d="M792.26,173.06h1.55v13.58h-1.55v-13.58Z"/>
      <path class="st0" d="M803.26,186.64v-1.35h-.04c-.71.95-1.55,1.58-3,1.58-2.03,0-3.34-1.22-3.34-3.25v-6.8h1.55v6.76c0,1.27.83,2.01,2.23,2.01,1.57,0,2.59-1.18,2.59-2.74v-6.04h1.55v9.82h-1.55Z"/>
      <path class="st0" d="M807.33,181.76c0-3.27,1.9-5.17,4.36-5.17,1.4,0,2.48.68,3.11,1.62h.04v-5.15h1.55v13.58h-1.55v-1.2h-.04c-.75.95-1.67,1.48-3.07,1.48-2.71,0-4.4-2.01-4.4-5.17ZM814.93,181.78c0-2.28-1.11-3.88-3.17-3.88-1.88,0-2.84,1.67-2.84,3.88s.96,3.86,2.86,3.86c2.21,0,3.15-1.63,3.15-3.86Z"/>
      <path class="st0" d="M818.9,181.74c0-2.85,1.88-5.17,4.7-5.17,2.98,0,4.57,2.28,4.57,5.53h-7.68c.11,2,1.21,3.51,3.21,3.51,1.44,0,2.4-.68,2.75-2.01h1.52c-.46,2.11-2.02,3.31-4.26,3.31-3.03,0-4.8-2.32-4.8-5.17ZM820.53,180.94h5.97c-.1-1.96-1.11-3.15-2.9-3.15s-2.84,1.37-3.07,3.15Z"/>
      <path class="st0" d="M830.09,181.76c0-3.27,1.9-5.17,4.36-5.17,1.4,0,2.48.68,3.11,1.62h.04v-5.15h1.55v13.58h-1.55v-1.2h-.04c-.75.95-1.67,1.48-3.07,1.48-2.71,0-4.4-2.01-4.4-5.17ZM837.69,181.78c0-2.28-1.11-3.88-3.17-3.88-1.88,0-2.84,1.67-2.84,3.88s.96,3.86,2.86,3.86c2.21,0,3.15-1.63,3.15-3.86Z"/>
    </g>
    <g>
      <path class="st0" d="M706.47,205.11c.08.04.09.09.04.17-.17.27-.35.65-.35,1.01,0,1.07,1.21,1.59,3.36,1.59,1.54,0,2.78-.14,3.77-.38.12-.03.16-.01.18.09.04.14.09.47.12.68.01.1-.04.14-.17.17-1.02.21-2.18.34-3.98.34-2.56,0-4.08-.77-4.08-2.44,0-.56.21-1.05.54-1.53.18.09.39.21.58.31ZM709.54,200.25c.95,0,2-.04,2.9-.12.12-.01.17.03.18.12.03.17.04.35.04.58,0,.14-.05.18-.18.2-1.1.16-2.31.75-3.4,1.48-.12.09-.25.1-.37.03-.16-.12-.33-.21-.54-.26.83-.56,1.57-.97,2.26-1.3-.43.04-1.01.05-1.42.05-.85,0-1.86-.06-2.66-.23-.08-.01-.12-.05-.12-.18,0-.17.01-.44.03-.66.88.2,2.02.3,3.28.3ZM712.92,198.58c.05-.04.09-.04.14,0,.53.36,1.1,1,1.48,1.57.04.05.03.1-.03.14l-.38.31c-.07.05-.13.04-.17-.03-.38-.64-.93-1.25-1.52-1.66l.47-.34ZM714.02,197.72c.05-.04.09-.05.14-.01.53.4,1.12.98,1.5,1.52.04.07.03.1-.04.16l-.35.31c-.05.05-.11.05-.16-.03-.33-.53-.89-1.17-1.51-1.62l.42-.33Z"/>
      <path class="st0" d="M723.51,199.09c.05.05.09.12.09.17,0,.08-.05.13-.13.17-.16.06-.29.16-.49.34-1.29,1.16-2.89,2.63-3.87,3.67-.13.13-.18.23-.18.33s.05.16.17.23c1.61,1.18,3.36,2.57,5.07,4.29.09.1.12.13.01.26-.16.18-.37.38-.5.49-.11.08-.16.09-.25-.03-1.71-1.86-3.4-3.25-4.95-4.41-.35-.27-.51-.51-.51-.82s.16-.53.46-.84c1.06-1.12,2.49-2.5,3.66-3.67.26-.27.42-.49.58-.81.3.19.66.44.84.62Z"/>
      <path class="st0" d="M730.11,205.11c.08.04.09.09.04.17-.17.27-.35.65-.35,1.01,0,1.07,1.21,1.59,3.36,1.59,1.54,0,2.78-.14,3.77-.38.12-.03.16-.01.18.09.04.14.09.47.12.68.01.1-.04.14-.17.17-1.02.21-2.18.34-3.98.34-2.56,0-4.08-.77-4.08-2.44,0-.56.21-1.05.54-1.53.18.09.39.21.58.31ZM733.18,200.25c.95,0,2-.04,2.9-.12.12-.01.17.03.18.12.03.17.04.35.04.58,0,.14-.05.18-.18.2-1.1.16-2.31.75-3.4,1.48-.12.09-.25.1-.37.03-.16-.12-.33-.21-.54-.26.83-.56,1.57-.97,2.26-1.3-.43.04-1.01.05-1.42.05-.85,0-1.86-.06-2.66-.23-.08-.01-.12-.05-.12-.18,0-.17.01-.44.03-.66.88.2,2.02.3,3.28.3ZM736.55,198.58c.05-.04.09-.04.14,0,.53.36,1.1,1,1.48,1.57.04.05.03.1-.03.14l-.38.31c-.07.05-.13.04-.17-.03-.38-.64-.93-1.25-1.52-1.66l.47-.34ZM737.65,197.72c.05-.04.09-.05.14-.01.53.4,1.12.98,1.5,1.52.04.07.03.1-.04.16l-.35.31c-.05.05-.11.05-.16-.03-.33-.53-.89-1.17-1.51-1.62l.42-.33Z"/>
      <path class="st0" d="M747.15,199.09c.05.05.09.12.09.17,0,.08-.05.13-.13.17-.16.06-.29.16-.49.34-1.29,1.16-2.89,2.63-3.87,3.67-.13.13-.18.23-.18.33s.05.16.17.23c1.61,1.18,3.36,2.57,5.07,4.29.09.1.12.13.01.26-.16.18-.37.38-.5.49-.11.08-.16.09-.25-.03-1.71-1.86-3.4-3.25-4.95-4.41-.35-.27-.51-.51-.51-.82s.16-.53.46-.84c1.06-1.12,2.49-2.5,3.66-3.67.26-.27.42-.49.58-.81.3.19.66.44.84.62Z"/>
      <path class="st0" d="M755.28,198.53c.14.05.16.17.09.33-.07.13-.09.34-.12.51-.03.58-.07,1.04-.09,1.66.09-.04.17-.06.21-.1.03-.03.07-.04.09-.04.05,0,.13.05.25.17.11.1.17.21.17.29s-.05.14-.17.27c-.21.26-.41.53-.64.94-.01.29-.01.49-.01.73,1.27-1.08,2.6-1.66,3.99-1.66,1.98,0,3.12,1.34,3.12,3.07,0,1.6-1.09,3.22-3.48,3.93-.17.07-.29.03-.38-.09-.17-.18-.34-.33-.63-.47,1.26-.31,2.09-.78,2.74-1.44.54-.57.8-1.23.8-1.98,0-1.38-.85-2.28-2.19-2.28s-2.56.53-3.98,1.81c-.01,1.65.01,3.26.04,4.97,0,.08-.04.1-.11.12-.12.01-.46.03-.7.03-.08,0-.1-.03-.1-.12.03-1.6.04-2.98.05-4.71-.79,1.09-1.5,2.12-2.23,3.15-.08.09-.14.1-.22.05-.16-.14-.35-.31-.49-.47-.07-.07-.05-.13.01-.21.98-1.17,1.93-2.42,2.93-3.81.01-.43.04-.83.04-1.14-.51.14-1.12.34-1.56.49-.29.1-.45.26-.55.27-.08.01-.13-.05-.22-.17-.11-.17-.25-.43-.37-.71.3-.03.54-.05.87-.13.56-.16,1.09-.29,1.85-.51.03-.51.03-.99.05-1.75,0-.44-.01-.81-.11-1.14.51.05.81.09,1.04.17Z"/>
      <path class="st0" d="M774.05,201.26c0,.12-.04.13-.17.13-1.4-.04-2.69-.05-4.17,0,0,.82,0,1.72.01,2.59.1.4.16.87.16,1.37,0,1.64-.71,3.03-2.56,4.02-.13.08-.24.12-.3.12-.08,0-.16-.04-.24-.1-.14-.13-.38-.29-.6-.36,1.88-.77,2.74-1.96,2.86-3.28-.29.49-.85.74-1.44.74-.91,0-1.73-.6-1.73-1.83,0-1.11.83-1.81,1.8-1.81.5,0,.96.14,1.23.44-.01-.64-.01-1.22-.03-1.83-1.88.1-3.65.23-4.89.39-.31.04-.47.13-.58.13-.08,0-.13-.04-.16-.13-.08-.17-.14-.48-.21-.83.45.03.88-.01,1.65-.08,1.06-.08,2.41-.17,4.16-.27-.01-.53-.01-.79-.03-1.21-.01-.33-.04-.53-.13-.87.39.03.77.09,1,.14.14.04.24.1.24.19,0,.08-.04.14-.09.23-.05.09-.08.18-.09.35-.03.29-.03.53-.03,1.11,1.46-.04,2.74-.04,4.2-.04.12,0,.14.01.14.14v.56ZM766.63,204.61c0,.72.47,1.12,1.06,1.12.74,0,1.19-.56,1.19-1.14,0-.65-.49-1.11-1.17-1.11-.58,0-1.09.43-1.09,1.13ZM771.71,198.06c.05-.04.08-.03.13.01.47.39.94.92,1.31,1.51.03.05.03.1-.03.14l-.38.31c-.07.05-.13.04-.17-.03-.33-.57-.77-1.12-1.35-1.6l.49-.35ZM773.08,197.59c.05-.04.09-.05.14-.01.5.4.96.95,1.3,1.47.04.06.03.1-.04.16l-.35.31c-.05.05-.11.05-.16-.03-.3-.53-.72-1.07-1.31-1.57l.42-.32Z"/>
      <path class="st0" d="M778.94,199.86c.1-.46.13-.78.12-1.25.41.1.68.2,1.02.35.14.07.18.22.05.34-.11.1-.16.21-.22.43-.2.64-.37,1.25-.56,1.88.42-.05.96-.09,1.27-.09,1.14,0,1.71.57,1.71,2.09,0,1.72-.29,3.26-.72,4.2-.33.71-.85,1.03-1.5,1.03-.54,0-1.01-.09-1.34-.23-.1-.04-.16-.1-.16-.22-.01-.22-.04-.51-.16-.78.58.25,1.06.36,1.52.36.38,0,.63-.13.88-.68.33-.74.59-2.05.59-3.65,0-1.01-.2-1.38-.91-1.38-.41,0-.96.06-1.42.14-.76,2.25-1.61,4.28-2.68,6.15-.05.09-.13.1-.22.07-.13-.07-.38-.23-.52-.35-.08-.06-.07-.13-.03-.21,1.1-1.83,1.88-3.63,2.52-5.54-.54.08-1.08.17-1.73.29-.24.04-.47.1-.58.17-.14.09-.26.09-.34-.07-.1-.22-.21-.52-.3-.88.47.01.98-.01,1.37-.06.72-.08,1.23-.16,1.85-.25.17-.61.31-1.13.49-1.86ZM783.75,200.92c.08-.03.13-.01.2.05.92.78,1.68,1.91,2.11,3.15.03.09.04.16-.04.22-.13.12-.38.27-.54.35-.1.07-.2.05-.22-.08-.45-1.33-1.1-2.43-2.1-3.29.18-.14.39-.29.59-.4Z"/>
      <path class="st0" d="M792.73,200.45c.12-.03.16,0,.17.08.03.16.05.39.07.56.01.12-.01.14-.12.16-.71.14-1.42.26-2.19.38-.76,2.04-1.71,4-2.64,5.49-.07.1-.13.09-.21.04-.2-.12-.41-.27-.52-.39-.08-.07-.08-.12-.01-.22,1.09-1.62,1.84-3.16,2.47-4.84-.56.05-1.09.09-1.65.09-.2,0-.39,0-.7-.03-.12-.01-.13-.03-.16-.16-.04-.17-.07-.4-.08-.65.42.04.76.05,1.04.05.6,0,1.14-.04,1.78-.1.16-.49.28-.97.39-1.52.08-.38.12-.64.1-1.01.38.07.76.16,1.02.26.08.03.12.08.12.14s-.03.12-.1.2c-.07.08-.11.17-.18.4-.14.47-.29.95-.42,1.4.59-.08,1.16-.17,1.82-.33ZM793.54,203.6c0-.26-.01-.49-.08-.83.35.04.62.08.89.17.09.03.14.08.14.16,0,.05-.03.12-.08.23-.05.14-.05.35-.05.61,0,.78.07,1.56.16,2.39.96.38,1.69.75,2.48,1.3.11.06.09.1.05.21-.07.17-.21.4-.31.57-.07.09-.13.08-.21.01-.59-.52-1.3-.92-2-1.24.01,1.31-.66,2.03-2.35,2.03-1,0-2.03-.51-2.03-1.59,0-.98.95-1.64,2.23-1.64.39,0,.91.06,1.31.16-.08-.81-.14-1.85-.16-2.55ZM792.42,206.71c-1.05,0-1.52.4-1.52.88,0,.6.49.87,1.35.87,1.08,0,1.47-.56,1.47-1.22,0-.17,0-.25-.01-.31-.41-.13-.87-.22-1.29-.22ZM794.65,200.88c.07-.1.11-.12.22-.08.88.27,1.82.69,2.57,1.22.09.08.09.13.03.23-.08.17-.2.38-.3.52-.07.09-.1.08-.18.03-.76-.57-1.73-1.04-2.68-1.33.13-.22.24-.44.34-.6Z"/>
      <path class="st0" d="M809.12,206.15c0,1.04.03,1.66.03,2.08,0,.39-.09.66-.34.86-.21.17-.58.25-1.68.25-.25,0-.26,0-.33-.26-.05-.23-.14-.46-.26-.61.42.04.93.06,1.19.06.46-.01.59-.12.59-.49v-6.92h-3.94c.7,2.25,1.82,3.51,3.74,4.58-.18.13-.34.27-.46.46-.08.12-.12.17-.17.17s-.11-.04-.2-.1c-1.52-1-2.56-2.2-3.2-4.06-.07.25-.14.49-.24.7-.51,1.26-1.23,2.35-2.97,3.42-.09.07-.14.1-.18.1-.05,0-.09-.05-.17-.16-.14-.2-.28-.33-.45-.44,1.77-.94,2.55-2,3.03-3.16.18-.43.3-.95.38-1.51h-3.57v6.31c0,1.3.03,1.85.03,1.91,0,.09-.01.1-.11.1h-.64c-.09,0-.11-.01-.11-.1,0-.07.03-.6.03-1.98v-4.89c0-1.38-.03-1.94-.03-2,0-.09.01-.1.11-.1.08,0,.52.03,1.84.03h2.53c.03-.4.04-.81.04-1.21,0-.43-.01-.91-.08-1.29.29.01.59.04.88.08.11.01.14.06.14.13,0,.08-.04.16-.07.25-.04.13-.07.39-.08.97,0,.31-.01.69-.05,1.07h2.83c1.31,0,1.77-.03,1.84-.03.09,0,.11.01.11.1,0,.06-.03.68-.03,2.05v3.63Z"/>
      <path class="st0" d="M818.6,199.73c1.31,0,1.76-.03,1.82-.03.09,0,.12.03.12.12-.03.33-.04.66-.05.96-.07,1.66-.14,3.26-.3,4.37-.13.86-.49,1.39-1.25,1.44-.32.01-.56.01-.89,0-.24-.01-.25-.03-.29-.3-.04-.23-.08-.39-.17-.55.39.06.76.09,1.1.09.39,0,.58-.14.7-.92.16-1.08.25-2.99.28-4.46h-6.76c-.54.9-1.12,1.64-1.86,2.41-.09.09-.14.13-.2.13-.04,0-.08-.04-.17-.14-.14-.16-.32-.26-.47-.35,1.29-1.17,2.06-2.29,2.66-3.67.2-.43.26-.71.3-1,.34.08.64.16.87.23.08.03.13.08.13.14,0,.08-.04.13-.12.18-.12.09-.2.25-.28.43-.13.29-.3.64-.45.91h5.28ZM812.72,207.32c0,.7.08.95.62,1.07.51.1,1.26.14,3.21.14,1.8,0,2.73-.01,3.35-.23.54-.2.75-.57.83-1.74.13.12.35.21.56.29s.24.1.2.35c-.16,1.05-.39,1.53-1.17,1.81-.76.27-1.69.29-3.79.29s-2.87-.05-3.6-.21c-.92-.18-1.01-.65-1.01-1.56v-1.83c0-.65-.03-.94-.03-1,0-.09.01-.1.1-.1.08,0,.5.03,1.5.03h2.99v-1.96h-2.6c-1.06,0-1.39.03-1.46.03-.09,0-.11-.01-.11-.1v-.56c0-.09.01-.1.11-.1.07,0,.39.03,1.46.03h1.82c1.02,0,1.4-.03,1.48-.03.09,0,.11.01.11.1,0,.08-.03.36-.03,1.08v1.09c0,.71.03,1,.03,1.07,0,.09-.01.1-.11.1-.08,0-.46-.03-1.48-.03h-2.99v2Z"/>
      <path class="st0" d="M826.4,201.44c0,.09-.01.1-.11.1-.07,0-.34-.03-1.26-.03h-.07v2.67c.45-.22.91-.47,1.4-.77-.01.18-.01.32.01.52.04.26.03.26-.21.39-.39.21-.79.42-1.21.62v2.37c0,1.55.03,2.24.03,2.3,0,.09-.01.09-.1.09h-.6c-.09,0-.11,0-.11-.09,0-.08.03-.75.03-2.29v-2.02c-.38.17-.76.35-1.17.52-.26.12-.38.19-.45.26-.05.05-.13.1-.18.1s-.1-.03-.14-.1c-.12-.22-.22-.46-.33-.74.34-.08.72-.19,1.17-.36.37-.14.74-.29,1.1-.44v-3.03h-1.14c-.09.57-.21,1.16-.38,1.68-.04.14-.05.2-.1.2s-.11-.03-.21-.08c-.13-.05-.34-.1-.47-.13.45-1.18.6-2.37.66-3.37.03-.26.01-.49-.01-.73.22.03.51.06.71.1.12.03.16.08.16.12,0,.06-.01.09-.05.17-.04.09-.07.2-.08.35l-.11,1h1.04v-1.05c0-.92-.01-1.27-.09-1.78.33.01.58.03.84.07.09.01.14.05.14.12,0,.08-.03.13-.05.23-.05.16-.08.48-.08,1.34v1.08h.07c.92,0,1.19-.03,1.26-.03.09,0,.11.01.11.09v.55ZM831.57,200.59c1.1,0,1.46-.03,1.52-.03.11,0,.13.04.13.13-.01.3-.03.6-.03.88-.03,2.64-.14,4.32-.42,6.01-.21,1.29-.63,1.98-1.68,1.98-.3,0-.75-.03-1.17-.06q-.25-.03-.3-.3c-.05-.25-.11-.42-.2-.58.6.1,1.08.16,1.55.16.67,0,.92-.58,1.05-1.43.25-1.6.39-3.15.42-6.07h-.68c-.87,3.64-2.21,5.92-4.7,7.72-.09.07-.16.1-.2.1-.05,0-.11-.05-.18-.16-.14-.18-.29-.3-.45-.39,2.56-1.72,4-3.93,4.76-7.28h-1.27c-.68,2.29-1.57,3.56-3,4.75-.09.08-.14.12-.18.12-.05,0-.11-.05-.18-.14-.13-.16-.3-.29-.45-.35,1.43-1.01,2.51-2.38,3.06-4.37h-1.21c-.3.51-.66,1-1.09,1.51-.09.1-.13.16-.18.16s-.09-.04-.18-.13c-.14-.14-.26-.22-.42-.29,1.08-1.12,1.69-2.29,2.06-3.43.13-.42.21-.74.24-1.09.3.05.51.1.76.17.09.03.14.07.14.13,0,.08-.04.13-.11.21-.09.1-.16.31-.26.61-.17.49-.35.99-.6,1.48h3.45Z"/>
    </g>
  </g>
  <g>
    <g>
      <path class="st0" d="M35.59,163.56h1.73v13.58h-1.73v-13.58Z"/>
      <path class="st0" d="M42.21,168.61h.04c.71-.93,1.71-1.52,3.15-1.52,2.07,0,3.34,1.12,3.34,3.15v6.9h-1.55v-6.76c0-1.27-.84-1.99-2.25-1.99-1.57,0-2.73,1.1-2.73,2.72v6.04h-1.55v-9.82h1.55v1.29Z"/>
      <path class="st0" d="M51.19,172.24c0-2.85,1.84-5.17,4.8-5.17,2.34,0,3.9,1.33,4.24,3.42h-1.57c-.23-1.33-1.17-2.15-2.67-2.15-2.11,0-3.21,1.73-3.21,3.89s1.09,3.88,3.21,3.88c1.61,0,2.57-.91,2.71-2.43h1.54c-.21,2.36-1.77,3.72-4.24,3.72-2.96,0-4.8-2.32-4.8-5.17Z"/>
      <path class="st0" d="M62.72,163.56h1.55v13.58h-1.55v-13.58Z"/>
      <path class="st0" d="M73.72,177.14v-1.35h-.04c-.71.95-1.55,1.58-3,1.58-2.03,0-3.34-1.22-3.34-3.25v-6.8h1.55v6.76c0,1.27.83,2.01,2.23,2.01,1.57,0,2.59-1.18,2.59-2.74v-6.04h1.55v9.82h-1.55Z"/>
      <path class="st0" d="M77.79,172.26c0-3.27,1.9-5.17,4.36-5.17,1.4,0,2.48.68,3.11,1.62h.04v-5.15h1.55v13.58h-1.55v-1.2h-.04c-.75.95-1.67,1.48-3.07,1.48-2.71,0-4.4-2.01-4.4-5.17ZM85.39,172.28c0-2.28-1.11-3.88-3.17-3.88-1.88,0-2.84,1.67-2.84,3.88s.96,3.86,2.86,3.86c2.21,0,3.15-1.63,3.15-3.86Z"/>
      <path class="st0" d="M89.36,172.24c0-2.85,1.88-5.17,4.7-5.17,2.98,0,4.57,2.28,4.57,5.53h-7.68c.11,2,1.21,3.51,3.21,3.51,1.44,0,2.4-.68,2.75-2.01h1.52c-.46,2.11-2.02,3.31-4.26,3.31-3.03,0-4.8-2.32-4.8-5.17ZM90.99,171.44h5.97c-.1-1.96-1.11-3.15-2.9-3.15s-2.84,1.37-3.07,3.15Z"/>
      <path class="st0" d="M100.55,172.26c0-3.27,1.9-5.17,4.36-5.17,1.4,0,2.48.68,3.11,1.62h.04v-5.15h1.55v13.58h-1.55v-1.2h-.04c-.75.95-1.67,1.48-3.07,1.48-2.71,0-4.4-2.01-4.4-5.17ZM108.15,172.28c0-2.28-1.11-3.88-3.17-3.88-1.88,0-2.84,1.67-2.84,3.88s.96,3.86,2.86,3.86c2.21,0,3.15-1.63,3.15-3.86Z"/>
    </g>
    <g>
      <path class="st0" d="M72,209.23c-.08.14-.09.21-.17.21-.04,0-.1-.03-.2-.05-3.03-1.11-4.46-2.76-5.04-4.78-.55,2.08-1.99,3.69-4.96,4.8-.09.04-.16.05-.2.05-.07,0-.1-.05-.2-.18-.13-.21-.28-.35-.43-.47,3.62-1.12,5.17-3.16,5.2-5.75,0-.52,0-.79-.07-1.16.3.01.59.04.85.08.14.03.2.08.2.14,0,.09-.05.16-.08.26-.04.12-.04.3-.07.66.41,2.63,1.97,4.58,5.58,5.63-.18.17-.31.36-.42.56ZM70.45,200.31c.18,0,.28-.01.34-.04.05-.03.1-.04.16-.04.1,0,.18.04.41.25.2.17.25.27.25.34,0,.08-.03.13-.09.18-.09.07-.18.13-.28.33-.31.71-.87,1.62-1.4,2.37-.08.1-.12.16-.17.16s-.1-.04-.21-.12c-.16-.1-.35-.18-.52-.22.62-.7,1.14-1.57,1.54-2.44h-6.26c-.51,1.03-1.12,1.94-1.82,2.69-.08.08-.13.13-.18.13-.04,0-.09-.05-.18-.13-.16-.13-.31-.23-.51-.31,1.25-1.18,2.09-2.68,2.6-4.2.16-.47.24-.79.26-1.24.31.07.63.14.85.22.13.04.18.1.18.18,0,.06-.07.14-.13.21-.07.08-.16.23-.29.6-.13.38-.28.74-.43,1.09h5.9Z"/>
      <path class="st0" d="M75.72,198.52c.16,0,.26-.01.31-.04.03-.01.08-.03.13-.03.08,0,.14.04.33.22.18.2.24.3.24.35,0,.06-.04.12-.1.17-.08.06-.16.22-.24.43-.38.96-.68,1.73-1.23,2.77,1.13,1.38,1.34,2.13,1.34,2.98,0,.95-.39,1.64-1.72,1.72q-.26,0-.31-.26c-.04-.2-.09-.34-.2-.46,1.06.07,1.5-.27,1.5-1.07,0-.74-.3-1.46-1.39-2.86.66-1.26.97-2.07,1.36-3.24h-1.82v7.67c0,1.79.03,2.61.03,2.69s-.01.09-.1.09h-.6c-.09,0-.11-.01-.11-.09s.03-.83.03-2.67v-5.62c0-1.85-.03-2.63-.03-2.69,0-.09.01-.1.11-.1.08,0,.34.03.96.03h1.54ZM83.71,206.54c0,2.44.03,2.85.03,2.91,0,.09-.01.1-.1.1h-.58c-.09,0-.1-.01-.1-.1v-.47h-3.03v.55c0,.09-.01.1-.1.1h-.58c-.08,0-.09-.01-.09-.1,0-.08.03-.48.03-2.94v-1.66c0-1.66-.03-2.08-.03-2.16,0-.09.01-.1.09-.1.05,0,.34.03,1.1.03.68-.85,1.27-1.68,1.76-2.6h-2.56c-.51.74-1.18,1.56-1.88,2.18-.09.09-.13.13-.18.13s-.1-.05-.2-.17c-.1-.12-.28-.23-.42-.31,1.15-.95,2.09-2.2,2.55-3.12.16-.33.24-.57.29-.82.31.06.62.14.81.21.08.03.1.08.1.13,0,.06-.03.12-.1.19-.09.09-.18.22-.33.52l-.21.38h2.26c.16,0,.22-.01.29-.05.04-.03.07-.04.12-.04.07,0,.12.01.38.23.21.2.25.27.25.34s-.05.12-.14.18c-.09.06-.16.17-.24.3-.56.91-1.06,1.62-1.61,2.31h.96c1.01,0,1.33-.03,1.4-.03.09,0,.1.01.1.1,0,.06-.03.48-.03,1.92v1.85ZM77.2,204.45c0-.84-.01-1.27-.09-1.72.28.01.62.04.84.08.09.01.16.05.16.12,0,.08-.05.14-.08.25-.04.16-.07.47-.07,1.26v3.42c0,1.12.03,1.59.03,1.65,0,.09-.01.1-.1.1h-.6c-.09,0-.1-.01-.1-.1,0-.06.03-.53.03-1.65v-3.41ZM82.95,203.35h-3.03v2.14h3.03v-2.14ZM82.95,206.12h-3.03v2.2h3.03v-2.2Z"/>
    </g>
  </g>
  <g>
    <path class="st0" d="M20.1,95.62h1.73v13.58h-1.73v-13.58Z"/>
    <path class="st0" d="M23.98,104.91h1.59c.06,2.09,1.42,3.25,3.59,3.25,1.82,0,3.11-.89,3.11-2.74,0-1.65-1.25-2.53-3.46-2.53h-.83v-1.23h.81c2.05,0,3.09-.86,3.09-2.24s-1.29-2.28-2.86-2.28c-1.9,0-3.03,1.22-3.03,3.02h-1.57c.02-2.56,1.77-4.27,4.66-4.27,2.44,0,4.38,1.31,4.38,3.57,0,1.46-.9,2.32-2.17,2.74v.06c1.84.47,2.65,1.63,2.65,3.32,0,2.49-2.05,3.91-4.72,3.91-2.9,0-5.18-1.62-5.24-4.58Z"/>
  </g>
  <g>
    <path class="st0" d="M199.4,104.6h1.69c.23,2.3,1.65,3.5,4.24,3.5,1.9,0,3.26-.85,3.26-2.55,0-1.86-1.65-2.3-4.11-2.83-2.42-.53-4.49-1.22-4.49-3.78,0-2.24,1.88-3.59,4.66-3.59,3.44,0,4.86,1.73,5.2,4.24h-1.63c-.25-1.94-1.52-2.91-3.53-2.91-1.86,0-3.09.78-3.09,2.18,0,1.54,1.54,1.99,3.59,2.39,2.67.53,5.11,1.18,5.11,4.24,0,2.55-2.09,3.97-5.05,3.97-3.86,0-5.7-2.13-5.85-4.86Z"/>
    <path class="st0" d="M212.8,95.62h1.73v13.58h-1.73v-13.58Z"/>
    <path class="st0" d="M221.85,103.14c1.73-.99,2.78-1.65,2.78-3.23s-1.11-2.68-2.86-2.68c-.92,0-1.61.3-2.09.82-.52.55-.75,1.27-.75,2.6h-1.69c0-1.67.44-2.74,1.25-3.53.84-.82,2.07-1.22,3.42-1.22,2.67,0,4.4,1.67,4.4,3.99,0,2.51-1.73,3.34-3.84,4.5-1.42.78-3.24,1.84-3.61,3.29h7.18v1.52h-9.12c.15-3.48,2.63-4.75,4.93-6.06Z"/>
  </g>
  <g>
    <path class="st0" d="M444.08,95.62h1.86l3.38,10.11c.21.63.54,1.82.54,1.82h.04s.33-1.22.54-1.82l3.34-10.11h1.8l-4.82,13.58h-1.9l-4.78-13.58Z"/>
    <path class="st0" d="M456.67,104.6h1.69c.23,2.3,1.65,3.5,4.24,3.5,1.9,0,3.26-.85,3.26-2.55,0-1.86-1.65-2.3-4.11-2.83-2.42-.53-4.49-1.22-4.49-3.78,0-2.24,1.88-3.59,4.66-3.59,3.44,0,4.86,1.73,5.2,4.24h-1.63c-.25-1.94-1.52-2.91-3.53-2.91-1.86,0-3.09.78-3.09,2.18,0,1.54,1.54,1.99,3.59,2.39,2.67.53,5.11,1.18,5.11,4.24,0,2.55-2.09,3.97-5.05,3.97-3.86,0-5.7-2.13-5.85-4.86Z"/>
    <path class="st0" d="M474.27,103.14c1.73-.99,2.78-1.65,2.78-3.23s-1.11-2.68-2.86-2.68c-.92,0-1.61.3-2.09.82-.52.55-.75,1.27-.75,2.6h-1.69c0-1.67.44-2.74,1.25-3.53.84-.82,2.07-1.22,3.42-1.22,2.67,0,4.4,1.67,4.4,3.99,0,2.51-1.73,3.34-3.84,4.5-1.42.78-3.24,1.84-3.61,3.29h7.18v1.52h-9.12c.15-3.48,2.63-4.75,4.93-6.06Z"/>
  </g>
  <g>
    <path class="st0" d="M568.67,95.62h1.86l3.38,10.11c.21.63.54,1.82.54,1.82h.04s.33-1.22.54-1.82l3.34-10.11h1.8l-4.82,13.58h-1.9l-4.78-13.58Z"/>
    <path class="st0" d="M581.26,104.6h1.69c.23,2.3,1.65,3.5,4.24,3.5,1.9,0,3.26-.85,3.26-2.55,0-1.86-1.65-2.3-4.11-2.83-2.42-.53-4.49-1.22-4.49-3.78,0-2.24,1.88-3.59,4.66-3.59,3.44,0,4.86,1.73,5.2,4.24h-1.63c-.25-1.94-1.52-2.91-3.53-2.91-1.86,0-3.09.78-3.09,2.18,0,1.54,1.54,1.99,3.59,2.39,2.67.53,5.11,1.18,5.11,4.24,0,2.55-2.09,3.97-5.05,3.97-3.86,0-5.7-2.13-5.85-4.86Z"/>
    <path class="st0" d="M596.86,99.72h-2.88v-1.06c1.61-.04,2.99-.63,3.24-2.55h1.25v13.09h-1.61v-9.48Z"/>
  </g>
  <g>
    <path class="st0" d="M947.46,95.62h1.73v13.58h-1.73v-13.58Z"/>
    <path class="st0" d="M952.28,95.62h9.31v1.5h-7.58v4.24h6.32v1.44h-6.32v6.4h-1.73v-13.58Z"/>
  </g>
  <g>
    <path class="st0" d="M1069.54,95.62h9.31v1.5h-7.58v4.24h6.32v1.44h-6.32v6.4h-1.73v-13.58Z"/>
    <path class="st0" d="M1081.11,95.62h1.73v12.01h7.2v1.58h-8.93v-13.58Z"/>
  </g>
  <g>
    <path class="st0" d="M684.35,95.62h1.86l3.38,10.11c.21.63.54,1.82.54,1.82h.04s.33-1.22.54-1.82l3.34-10.11h1.8l-4.82,13.58h-1.9l-4.78-13.58Z"/>
    <path class="st0" d="M696.71,95.62h1.86l3.38,10.11c.21.63.54,1.82.54,1.82h.04s.33-1.22.54-1.82l3.34-10.11h1.8l-4.82,13.58h-1.9l-4.78-13.58Z"/>
    <path class="st0" d="M709.29,104.6h1.69c.23,2.3,1.65,3.5,4.24,3.5,1.9,0,3.26-.85,3.26-2.55,0-1.86-1.65-2.3-4.11-2.83-2.42-.53-4.49-1.22-4.49-3.78,0-2.24,1.88-3.59,4.66-3.59,3.44,0,4.86,1.73,5.2,4.24h-1.63c-.25-1.94-1.52-2.91-3.53-2.91-1.86,0-3.09.78-3.09,2.18,0,1.54,1.54,1.99,3.59,2.39,2.67.53,5.11,1.18,5.11,4.24,0,2.55-2.09,3.97-5.05,3.97-3.86,0-5.7-2.13-5.85-4.86Z"/>
    <path class="st0" d="M726.89,103.14c1.73-.99,2.78-1.65,2.78-3.23s-1.11-2.68-2.86-2.68c-.92,0-1.61.3-2.09.82-.52.55-.75,1.27-.75,2.6h-1.69c0-1.67.44-2.74,1.25-3.53.84-.82,2.07-1.22,3.42-1.22,2.67,0,4.4,1.67,4.4,3.99,0,2.51-1.73,3.34-3.84,4.5-1.42.78-3.24,1.84-3.61,3.29h7.18v1.52h-9.12c.15-3.48,2.63-4.75,4.93-6.06Z"/>
  </g>
  <g>
    <path class="st0" d="M808.48,95.62h1.86l3.38,10.11c.21.63.54,1.82.54,1.82h.04s.33-1.22.54-1.82l3.34-10.11h1.8l-4.82,13.58h-1.9l-4.78-13.58Z"/>
    <path class="st0" d="M820.84,95.62h1.86l3.38,10.11c.21.63.54,1.82.54,1.82h.04s.33-1.22.54-1.82l3.34-10.11h1.8l-4.82,13.58h-1.9l-4.78-13.58Z"/>
    <path class="st0" d="M833.43,104.6h1.69c.23,2.3,1.65,3.5,4.24,3.5,1.9,0,3.26-.85,3.26-2.55,0-1.86-1.65-2.3-4.11-2.83-2.42-.53-4.49-1.22-4.49-3.78,0-2.24,1.88-3.59,4.66-3.59,3.44,0,4.86,1.73,5.2,4.24h-1.63c-.25-1.94-1.52-2.91-3.53-2.91-1.86,0-3.09.78-3.09,2.18,0,1.54,1.54,1.99,3.59,2.39,2.67.53,5.11,1.18,5.11,4.24,0,2.55-2.09,3.97-5.05,3.97-3.86,0-5.7-2.13-5.85-4.86Z"/>
    <path class="st0" d="M849.03,99.72h-2.88v-1.06c1.61-.04,2.99-.63,3.24-2.55h1.25v13.09h-1.61v-9.48Z"/>
  </g>
  <g>
    <path class="st0" d="M322.25,104.6h1.69c.23,2.3,1.65,3.5,4.24,3.5,1.9,0,3.26-.85,3.26-2.55,0-1.86-1.65-2.3-4.11-2.83-2.42-.53-4.49-1.22-4.49-3.78,0-2.24,1.88-3.59,4.66-3.59,3.44,0,4.86,1.73,5.2,4.24h-1.63c-.25-1.94-1.52-2.91-3.53-2.91-1.86,0-3.09.78-3.09,2.18,0,1.54,1.54,1.99,3.59,2.39,2.67.53,5.11,1.18,5.11,4.24,0,2.55-2.09,3.97-5.05,3.97-3.86,0-5.7-2.13-5.85-4.86Z"/>
    <path class="st0" d="M335.64,95.62h1.73v13.58h-1.73v-13.58Z"/>
    <path class="st0" d="M342.71,99.72h-2.88v-1.06c1.61-.04,2.99-.63,3.24-2.55h1.25v13.09h-1.61v-9.48Z"/>
  </g>
  <g>
    <path class="st0" d="M67.3,95.62h1.73v13.58h-1.73v-13.58Z"/>
    <path class="st0" d="M76.36,103.14c1.73-.99,2.78-1.65,2.78-3.23s-1.11-2.68-2.86-2.68c-.92,0-1.61.3-2.09.82-.52.55-.75,1.27-.75,2.6h-1.69c0-1.67.44-2.74,1.25-3.53.84-.82,2.07-1.22,3.42-1.22,2.67,0,4.4,1.67,4.4,3.99,0,2.51-1.73,3.34-3.84,4.5-1.42.78-3.24,1.84-3.61,3.29h7.18v1.52h-9.12c.15-3.48,2.63-4.75,4.93-6.06Z"/>
  </g>
  <g>
    <path class="st0" d="M119.64,95.62h1.73v13.58h-1.73v-13.58Z"/>
    <path class="st0" d="M126.71,99.72h-2.88v-1.06c1.61-.04,2.99-.63,3.24-2.54h1.25v13.09h-1.61v-9.48Z"/>
  </g>
  <g>
    <path class="st2" d="M35.17,9.58h1.7v15.01h-1.7v-15.01Z"/>
    <path class="st2" d="M40.21,19.17c0-3.15,2.02-5.71,5.25-5.71s5.23,2.56,5.23,5.71-1.97,5.71-5.23,5.71-5.25-2.56-5.25-5.71ZM48.94,19.17c0-2.39-1.18-4.3-3.49-4.3s-3.51,1.91-3.51,4.3,1.2,4.28,3.51,4.28,3.49-1.89,3.49-4.28Z"/>
    <path class="st2" d="M52.68,13.74h1.83l1.91,6.7c.25.9.59,2.33.59,2.33h.04s.31-1.43.55-2.29l1.83-6.74h1.78l1.76,6.74c.23.88.52,2.29.52,2.29h.04s.34-1.43.61-2.33l2.02-6.7h1.76l-3.55,10.85h-1.74l-1.81-6.57c-.25-.9-.52-2.27-.52-2.27h-.04s-.29,1.36-.55,2.27l-1.83,6.57h-1.76l-3.44-10.85Z"/>
  </g>
  <g>
    <path class="st2" d="M1067.64,15.16h.04c.78-1.03,1.87-1.68,3.44-1.68,2.27,0,3.65,1.24,3.65,3.49v7.62h-1.7v-7.47c0-1.41-.92-2.2-2.46-2.2-1.72,0-2.98,1.22-2.98,3v6.68h-1.7v-15.01h1.7v5.58Z"/>
    <path class="st2" d="M1078.6,9.58h1.7v2.1h-1.7v-2.1ZM1078.6,13.73h1.7v10.85h-1.7v-10.85Z"/>
    <path class="st2" d="M1083.91,25.2h1.57c.17,1.2,1.3,1.66,2.98,1.66,2,0,3.11-.9,3.11-2.79v-1.53h-.04c-.8,1.03-1.66,1.68-3.21,1.68-2.81,0-4.75-2.25-4.75-5.38,0-3.38,2.12-5.35,4.64-5.35,1.58,0,2.58.61,3.32,1.64h.04v-1.39h1.7v10.27c0,2.86-1.89,4.2-4.77,4.2s-4.41-1.13-4.6-3ZM1091.7,18.75c0-2.37-1.01-3.84-3.32-3.84-2.04,0-3.07,1.6-3.07,3.95s1.07,3.93,3.09,3.93c2.5,0,3.3-1.74,3.3-4.03Z"/>
    <path class="st2" d="M1098.87,15.16h.04c.78-1.03,1.87-1.68,3.44-1.68,2.27,0,3.65,1.24,3.65,3.49v7.62h-1.7v-7.47c0-1.41-.92-2.2-2.46-2.2-1.72,0-2.98,1.22-2.98,3v6.68h-1.7v-15.01h1.7v5.58Z"/>
  </g>
</svg>