<?xml version="1.0" encoding="UTF-8"?>
<svg id="_レイヤー_3" xmlns="http://www.w3.org/2000/svg" xmlns:xlink="http://www.w3.org/1999/xlink" version="1.1" viewBox="0 0 1140 205">
  <!-- Generator: Adobe Illustrator 29.5.1, SVG Export Plug-In . SVG Version: 2.1.0 Build 141)  -->
  <defs>
    <style>
      .st0 {
        fill: #595959;
      }

      .st1 {
        fill: #919191;
      }

      .st2 {
        fill: url(#_名称未設定グラデーション_2);
      }

      .st3 {
        fill: #fff;
      }

      .st4 {
        fill: #dee7b0;
      }

      .st5 {
        fill: url(#_名称未設定グラデーション);
      }
    </style>
    <linearGradient id="_名称未設定グラデーション" data-name="名称未設定グラデーション" x1="1629.5" y1="110.88" x2="720.5" y2="110.88" gradientTransform="translate(1860 -92) rotate(-180) scale(1 -1)" gradientUnits="userSpaceOnUse">
      <stop offset="0" stop-color="#b9d8df"/>
      <stop offset="1" stop-color="#1e6994"/>
    </linearGradient>
    <linearGradient id="_名称未設定グラデーション_2" data-name="名称未設定グラデーション 2" x1="1629.5" y1="110.88" x2="720.5" y2="110.88" gradientTransform="translate(1860 -92) rotate(-180) scale(1 -1)" gradientUnits="userSpaceOnUse">
      <stop offset="0" stop-color="#b9d8df"/>
      <stop offset="1" stop-color="#1e6994"/>
    </linearGradient>
  </defs>
  <rect id="_長方形_7" class="st4" x="798.38" y="63.34" width="339.82" height="80"/>
  <rect id="_シェイプ_11-2" class="st1" x="798.35" y="63.37" width="1" height="79.77"/>
  <rect id="_シェイプ_11-2-2" class="st1" x="227" y="63.36" width="1.2" height="79.77"/>
  <rect id="_シェイプ_11-2-21" class="st1" x="1138.2" y="63.34" width="1.2" height="79.77"/>
  <rect id="_シェイプ_12-4" class="st1" x="655.2" y="63.37" width="1" height="80"/>
  <rect id="_シェイプ_12-5" class="st1" x="513.2" y="63.37" width="1" height="80"/>
  <rect id="_シェイプ_12-6" class="st1" x="370.2" y="63.37" width="1" height="80"/>
  <rect id="_長方形_9" class="st4" x="815" y="170.25" width="50" height="18"/>
  <path id="_" class="st3" d="M26,23.85l-5.99-5,5.99-5v9.99h0Z"/>
  <g>
    <path class="st0" d="M879.14,174.54c-1,0-1.94.03-2.86.1-.2.02-.27-.05-.31-.27-.02-.24-.07-.76-.08-1.05,1.05.1,2.01.14,3.26.14h6.02c.49,0,.66-.05.85-.15.14-.08.31-.07.44.02.29.2.56.46.76.7.14.19.12.37-.05.53-.15.14-.25.31-.37.58-.82,2.16-2.01,4.08-3.33,5.58-1.38,1.55-2.94,2.94-5.05,4.1-.2.14-.42.14-.58-.03-.2-.2-.53-.43-.88-.58,2.6-1.29,4.06-2.57,5.49-4.2,1.28-1.43,2.48-3.31,3.2-5.44h-6.51v-.03ZM886.79,171.17c.08-.07.14-.05.2,0,.68.48,1.43,1.31,1.92,2.06.05.07.03.14-.03.19l-.49.41c-.08.07-.17.05-.22-.03-.49-.83-1.21-1.63-1.97-2.18l.59-.44h0ZM888.23,170.05c.07-.05.12-.07.19-.02.68.53,1.44,1.27,1.94,1.99.05.08.03.14-.05.2l-.46.41c-.07.07-.14.07-.2-.03-.42-.7-1.16-1.53-1.96-2.12l.54-.42h0Z"/>
    <path class="st0" d="M894.39,174.23c0-1.07-.07-1.85-.19-2.46.46.05,1.05.17,1.39.27.22.07.22.25.15.41-.12.22-.17.71-.17,1.79v2.87c0,.88.02,1.51.05,2.24,0,.2-.07.27-.25.27h-.8c-.17,0-.24-.07-.22-.25.02-.73.03-1.5.03-2.33v-2.8h0ZM901.51,177.29c0,2.63-.61,4.18-1.48,5.29-.82,1-2.21,1.95-3.72,2.5-.19.07-.31.07-.48-.08-.24-.25-.49-.44-.85-.63,1.73-.51,3.14-1.36,3.96-2.33.83-1.02,1.36-2.41,1.36-4.64v-2.92c0-1.67-.05-2.36-.19-2.97.51.05,1.07.15,1.44.27.2.07.2.25.12.42-.12.24-.17.75-.17,2.23v2.87h0Z"/>
    <path class="st0" d="M909.1,174.23c0-1.07-.07-1.85-.19-2.46.46.05,1.05.17,1.39.27.22.07.22.25.15.41-.12.22-.17.71-.17,1.79v2.87c0,.88.02,1.51.05,2.24,0,.2-.07.27-.25.27h-.8c-.17,0-.24-.07-.22-.25.02-.73.03-1.5.03-2.33v-2.8h0ZM916.22,177.29c0,2.63-.61,4.18-1.48,5.29-.82,1-2.21,1.95-3.72,2.5-.19.07-.31.07-.48-.08-.24-.25-.49-.44-.85-.63,1.73-.51,3.14-1.36,3.96-2.33.83-1.02,1.36-2.41,1.36-4.64v-2.92c0-1.67-.05-2.36-.19-2.97.51.05,1.07.15,1.44.27.2.07.2.25.12.42-.12.24-.17.75-.17,2.23v2.87h0Z"/>
    <path class="st0" d="M925.38,173.72c-1.34,0-2.35.07-3.16.15-.19.02-.26-.05-.29-.19-.07-.29-.15-.82-.19-1.17,1.04.1,2.04.12,3.5.12h7.07c.95,0,1.12-.05,1.27-.1.08-.03.19-.07.25-.07.08,0,.17.05.26.12.24.2.44.41.63.66.14.17.12.36-.08.49-.15.08-.27.27-.37.43-.78,1.17-1.94,2.36-3.25,3.35-.14.1-.31.1-.44-.02-.25-.2-.53-.32-.88-.42,1.46-.93,2.63-2.06,3.45-3.35h-7.77ZM926.5,180.76c.63-1.31.85-2.67.85-4.18,0-.56-.05-.95-.15-1.41.49.03,1.02.12,1.34.24.27.1.27.29.17.49-.08.15-.14.36-.14.83,0,1.44-.27,3.13-.97,4.52-.66,1.33-1.85,2.52-3.2,3.37-.17.1-.36.14-.51,0-.24-.22-.54-.39-.92-.53,1.67-.87,2.87-1.97,3.52-3.33h.01Z"/>
    <path class="st0" d="M939.27,173.06c.12-.12.2-.1.31-.03.95.53,2.07,1.33,3.06,2.26.12.12.14.19.05.32-.14.2-.44.59-.58.73-.1.12-.15.14-.27.02-1-.99-2.12-1.85-3.23-2.52.22-.27.48-.58.66-.78h0ZM940.8,182.07c1.84-.97,3.33-1.89,4.91-3.16,1.72-1.41,3.13-2.67,4.59-4.57.07.48.17.8.29,1.12.1.22.08.36-.12.6-1.14,1.34-2.63,2.7-4.13,3.91-1.44,1.16-3.14,2.24-5.1,3.31-.46.27-.78.53-.93.66-.17.15-.31.15-.46-.02-.25-.27-.56-.68-.83-1.16.66-.19,1.17-.39,1.79-.7h0Z"/>
    <path class="st0" d="M962.93,173.14c.58,0,.76-.02.97-.14.1-.07.22-.03.34.05.24.19.49.44.7.7.1.14.07.25-.08.39-.17.14-.32.34-.49.63-.75,1.28-1.61,2.53-2.52,3.65,1.75,1.28,3.33,2.63,4.88,4.27.15.14.15.19.02.36-.19.22-.41.42-.61.61-.12.1-.19.1-.31-.03-1.43-1.63-3.04-3.08-4.69-4.32-1.94,2.01-3.98,3.59-6.07,4.74-.19.1-.29.12-.42-.03-.22-.25-.53-.42-.88-.61,2.57-1.28,4.57-2.84,6.25-4.61,1.11-1.17,2.23-2.69,3.23-4.55h-5.12c-.95,0-1.68.05-2.45.1-.15,0-.17-.05-.2-.19-.05-.24-.1-.75-.1-1.09.83.07,1.58.07,2.63.07h4.93-.01Z"/>
    <path class="st0" d="M974.38,174.54c-1,0-1.94.03-2.86.1-.2.02-.27-.05-.31-.27-.02-.24-.07-.76-.08-1.05,1.05.1,2.01.14,3.26.14h6.02c.49,0,.66-.05.85-.15.14-.08.31-.07.44.02.29.2.56.46.77.7.14.19.12.37-.05.53-.15.14-.25.31-.37.58-.82,2.16-2.01,4.08-3.33,5.58-1.38,1.55-2.94,2.94-5.05,4.1-.2.14-.42.14-.58-.03-.2-.2-.53-.43-.88-.58,2.6-1.29,4.06-2.57,5.49-4.2,1.27-1.43,2.48-3.31,3.2-5.44h-6.51v-.03ZM985.48,171.82c0,.95-.77,1.72-1.72,1.72s-1.72-.76-1.72-1.72.76-1.72,1.72-1.72,1.72.77,1.72,1.72ZM982.69,171.82c0,.6.48,1.07,1.07,1.07s1.07-.48,1.07-1.07-.48-1.07-1.07-1.07-1.07.48-1.07,1.07Z"/>
    <path class="st0" d="M991.48,176.8c-.95,0-1.7.02-2.4.09-.15.02-.22-.05-.25-.22-.05-.27-.1-.66-.12-1.07.87.08,1.75.12,2.82.12h6.09c.42,0,.66-.03.83-.12.2-.1.29-.12.46.02.22.17.48.41.63.61.17.22.15.32-.03.46-.17.12-.25.29-.39.58-1.48,3.35-3.6,5.83-7.17,7.67-.2.1-.32.1-.46-.03-.25-.22-.61-.41-.95-.53,3.54-1.7,6.12-4.21,7.39-7.56h-6.44v-.02ZM992.85,173.26c-.9,0-1.67.02-2.41.07-.15.02-.19-.05-.2-.24-.03-.25-.08-.71-.08-1.02.99.1,1.63.12,2.77.12h2.63c1.07,0,1.82-.03,2.63-.08.15,0,.19.05.19.2.02.22.02.53,0,.77,0,.19-.03.24-.22.22-.78,0-1.5-.03-2.53-.03h-2.78Z"/>
    <path class="st0" d="M1012.63,173.14c.58,0,.76-.02.97-.14.1-.07.22-.03.34.05.24.19.49.44.7.7.1.14.07.25-.08.39-.17.14-.32.34-.49.63-.75,1.28-1.61,2.53-2.52,3.65,1.75,1.28,3.33,2.63,4.88,4.27.15.14.15.19.02.36-.19.22-.41.42-.61.61-.12.1-.19.1-.31-.03-1.43-1.63-3.04-3.08-4.69-4.32-1.94,2.01-3.98,3.59-6.07,4.74-.19.1-.29.12-.42-.03-.22-.25-.53-.42-.88-.61,2.57-1.28,4.57-2.84,6.25-4.61,1.11-1.17,2.23-2.69,3.23-4.55h-5.12c-.95,0-1.68.05-2.45.1-.15,0-.17-.05-.2-.19-.05-.24-.1-.75-.1-1.09.83.07,1.58.07,2.63.07h4.93-.01Z"/>
    <path class="st0" d="M1028.16,172.12c0,.12-.02.14-.14.14-.07,0-.42-.02-1.33-.03v11.54c0,1.22.03,1.73.03,1.82,0,.12-.02.14-.14.14h-.78c-.12,0-.14-.02-.14-.14,0-.1.03-.6.03-1.82v-1.73c-1.36.49-3.38,1.09-4.47,1.36-.46.12-.61.2-.66.25s-.14.1-.22.1c-.07,0-.12-.07-.17-.19-.1-.29-.2-.63-.29-.99.56-.07.87-.12,1.39-.24l.34-.07v-10.05c-.93.02-1.29.03-1.36.03-.12,0-.14-.02-.14-.14v-.68c0-.14.02-.15.14-.15.08,0,.61.03,2.16.03h3.43c1.55,0,2.07-.03,2.16-.03.12,0,.14.02.14.15v.68l.02.02ZM1025.72,172.23h-3.09v2.5h3.09v-2.5ZM1025.72,175.61h-3.09v2.48h3.09v-2.48ZM1025.72,178.97h-3.09v3.04c1-.25,2.18-.59,3.09-.92v-2.12ZM1033.6,173.16c.22,0,.32-.02.37-.05.07-.05.14-.07.2-.07.08,0,.22.08.49.36.22.22.31.36.31.48,0,.1-.08.17-.17.27-.08.1-.15.31-.2.65-.37,2.24-1.07,4.38-2.38,6.36.87,1.22,2.01,2.35,3.5,3.42-.2.15-.42.34-.59.61-.08.14-.14.2-.2.2s-.14-.05-.25-.15c-1.24-1-2.26-2.09-3.06-3.23-.94,1.19-2.12,2.29-3.66,3.33-.12.08-.2.14-.27.14s-.12-.07-.22-.24c-.14-.24-.27-.37-.49-.54,1.68-.99,3.01-2.21,4.03-3.62-1.29-2.16-1.96-4.5-2.24-6.99-.78.02-1.07.03-1.14.03-.12,0-.14-.02-.14-.14v-.73c0-.1.02-.12.14-.12.08,0,.56.03,2.04.03h3.94-.01ZM1029.75,174.08c.29,2.29.83,4.3,1.87,6.1,1.1-1.8,1.75-3.86,2.02-6.1h-3.89Z"/>
    <path class="st0" d="M1041.68,171.72c.15.08.22.15.22.25,0,.08-.03.17-.07.22-.14.19-.24.36-.31.66-.32,1.58-.48,2.99-.51,3.91-.02.65-.02,1.34.07,1.92.36-.71.87-1.68,1.26-2.45.1.32.22.53.34.7.12.19.09.29-.02.46-.44.78-.83,1.61-1.07,2.24-.1.27-.12.39-.12.54.02.15-.02.2-.12.24-.15.03-.53.08-.82.12-.08,0-.14-.07-.17-.17-.25-.7-.42-1.87-.42-3.18,0-1.04.19-2.62.39-4,.1-.71.19-1.26.15-1.89.48.1.9.25,1.19.41v.02ZM1047.05,171.55c.25.05.29.17.25.34-.05.19-.05.48-.03.8.14,1.89.2,3.3.2,4.5,0,2.43-.42,4.27-1.39,5.58-.68.93-1.58,1.77-2.8,2.46-.17.1-.29.1-.44-.03-.22-.19-.56-.39-.87-.48,1.38-.73,2.23-1.34,2.96-2.33.95-1.27,1.39-2.72,1.39-5.15,0-1.17-.07-2.79-.17-4.05-.07-.82-.17-1.26-.34-1.78.48.02.94.05,1.24.14h0Z"/>
    <path class="st0" d="M1055.7,178.31c.66-.27,1.38-.6,2.07-.95-.02.19-.02.41,0,.66.03.36.03.37-.27.53-.58.27-1.17.54-1.8.82v2.11c0,.94.02,1.94.02,2.58,0,.78-.1,1.09-.44,1.33-.32.25-.63.32-1.79.29-.23,0-.37-.11-.42-.32-.08-.31-.19-.56-.32-.76.43.05.88.07,1.31.07.49,0,.66-.2.66-.83v-4.06c-.39.15-.78.31-1.17.44-.37.14-.54.24-.65.32-.07.07-.14.12-.22.12-.07,0-.12-.03-.17-.15-.12-.31-.22-.66-.31-1.04.48-.08.87-.19,1.5-.39l1.02-.36v-3.72h-.56c-1.24,0-1.61.03-1.7.03-.12,0-.14-.02-.14-.14v-.71c0-.12.02-.14.14-.14.08,0,.46.03,1.7.03h.56v-1.36c0-1.02-.02-1.51-.14-2.07.43.02.78.05,1.11.1.14.02.22.08.22.14,0,.12-.05.22-.1.34-.08.19-.1.49-.1,1.48v1.38h.22c1.26,0,1.62-.03,1.7-.03.14,0,.15.02.15.14v.71c0,.12-.02.14-.15.14-.08,0-.44-.03-1.7-.03h-.22v3.33-.03ZM1065.82,176.05c.17,0,.25-.02.32-.05.08-.03.12-.05.2-.05s.19.03.49.34c.2.22.29.32.29.42,0,.07-.03.14-.12.2-.12.08-.22.19-.36.58-.56,1.77-1.43,3.25-2.55,4.52,1,1.09,2.21,1.99,3.65,2.65-.2.19-.37.37-.51.65-.08.17-.14.24-.2.24s-.15-.05-.29-.12c-1.19-.68-2.33-1.55-3.35-2.7-1.17,1.16-2.58,2.09-4.11,2.86-.12.05-.19.08-.25.08-.1,0-.17-.07-.27-.24-.15-.24-.32-.41-.53-.54,1.7-.68,3.26-1.68,4.54-2.96-1.09-1.48-1.97-3.37-2.5-5.83-.27,3.96-.88,6.71-3.4,9.4-.1.1-.15.17-.22.17s-.15-.07-.25-.19c-.17-.2-.36-.36-.56-.46,2.98-2.63,3.55-6.78,3.69-11.58l.03-1.12c-1.36,0-1.82.03-1.9.03-.14,0-.15-.02-.15-.14v-.73c0-.12.02-.14.15-.14.08,0,.56.03,2.07.03h3.94c.25,0,.37-.02.44-.05s.08-.05.14-.05c.12,0,.2.05.49.31.24.22.31.34.31.42s-.05.17-.17.24c-.17.1-.22.19-.27.39-.2.99-.49,2.09-.88,3.4h2.09v.02ZM1063.47,176.92l-.15.49c-.05.14-.08.15-.29.12l-.46-.07c-.29-.05-.29-.08-.24-.24.61-1.85,1.05-3.49,1.34-4.9h-3.21c.24,3.55,1.21,6.58,2.97,8.89,1.05-1.22,1.87-2.67,2.31-4.3h-2.28.01Z"/>
    <path class="st0" d="M1073.04,173.3c.1.05.15.12.15.19,0,.08-.03.19-.07.31-.07.2-.14.68-.14,1.56,0,1.09.02,2.12.24,3.86.25,2.01.99,3.47,1.8,3.47.68,0,1.33-1.09,1.82-2.67.19.44.34.65.56.85.14.12.19.25.14.42-.48,1.38-1.39,2.67-2.53,2.67-1.43,0-2.5-1.97-2.87-4.64-.24-1.7-.31-3.62-.31-4.74,0-.65-.02-1.05-.14-1.63.48.05,1.02.2,1.34.36h.01ZM1081.15,174.61c.1-.05.19-.07.25,0,1.73,1.51,2.89,3.6,3.31,5.88.02.12-.03.17-.12.22-.25.17-.49.29-.78.39-.12.03-.2-.02-.22-.14-.48-2.6-1.55-4.4-3.2-5.9.32-.22.58-.37.75-.46h0Z"/>
    <path class="st0" d="M1094.46,182.34c0,2.55.03,2.97.03,3.08,0,.12-.02.14-.14.14h-.73c-.12,0-.14-.02-.14-.14v-.9h-3.69v1c0,.12-.02.14-.14.14h-.73c-.12,0-.14-.02-.14-.14,0-.08.03-.51.03-3.11v-1.53c0-1.56-.03-1.99-.03-2.07,0-.12.02-.14.14-.14.1,0,.51.03,1.75.03h1.92c1.26,0,1.67-.03,1.75-.03.12,0,.14.02.14.14,0,.08-.03.51-.03,1.84v1.7h0ZM1093.5,179.62h-3.69v3.98h3.69v-3.98ZM1100.07,175.03c0,1.07.03,1.45.03,1.55,0,.12-.02.14-.14.14-.08,0-.65-.03-2.28-.03h-4.08c-1.61,0-2.18.03-2.28.03-.12,0-.12-.02-.12-.14,0-.1.02-.48.02-1.55v-2.09c0-1.05-.02-1.44-.02-1.55,0-.12,0-.14.12-.14.1,0,.66.03,2.28.03h4.08c1.63,0,2.19-.03,2.28-.03.12,0,.14.02.14.14,0,.1-.03.49-.03,1.55v2.09ZM1099.05,172.24h-6.8v3.48h6.8v-3.48ZM1102.47,182.37c0,2.57.03,2.97.03,3.06,0,.14-.02.15-.14.15h-.73c-.12,0-.14-.02-.14-.15v-.92h-3.96v1.02c0,.12-.02.14-.14.14h-.73c-.12,0-.14-.02-.14-.14,0-.1.03-.51.03-3.13v-1.51c0-1.56-.03-1.99-.03-2.07,0-.14.02-.15.14-.15.1,0,.53.03,1.82.03h2.06c1.31,0,1.72-.03,1.82-.03.12,0,.14.02.14.15,0,.08-.03.51-.03,1.84v1.72h0ZM1101.5,179.64h-3.96v3.96h3.96v-3.96Z"/>
    <path class="st0" d="M1113.23,173.99c0,.12-.02.14-.14.14-.08,0-.51-.03-1.85-.03h-.08v.78c0,.75.03,1.07.03,1.16,0,.14-.02.15-.14.15h-.73c-.12,0-.14-.02-.14-.15,0-.08.03-.41.03-1.16v-.78h-2.09c-.14.92-.48,1.87-1.29,2.82-.1.12-.17.19-.22.19-.07,0-.14-.07-.25-.19-.2-.2-.39-.31-.59-.41,1.34-1.17,1.48-2.43,1.48-3.77,0-.61-.02-1.17-.08-1.58.39.07.71.15,1.05.29,1.29-.12,2.29-.31,3.21-.58.31-.08.6-.2.82-.36.29.22.49.41.68.63.08.1.14.15.14.25,0,.07-.08.14-.22.15-.17.02-.34.02-.59.08-1.26.31-2.33.48-4.05.66v.99h3.04c1.34,0,1.77-.03,1.85-.03.12,0,.14.02.14.14v.61h-.01ZM1111.4,184.19c-.17.03-.29.08-.51.2-1.02.56-2.46,1.17-3.98,1.48-.34.07-.36.05-.51-.25-.1-.2-.27-.44-.42-.61,1.46-.22,3.09-.7,4.08-1.24.22-.14.41-.29.58-.48.29.15.61.36.82.51.12.08.14.14.14.2,0,.08-.05.15-.19.19h0ZM1118.69,181.34c0,1.19.03,1.62.03,1.72,0,.12-.02.14-.14.14-.1,0-.71-.03-2.4-.03h-5.39c-1.7,0-2.29.03-2.38.03-.14,0-.15-.02-.15-.14,0-.1.03-.53.03-1.72v-2.97c0-1.21-.03-1.63-.03-1.73,0-.12.02-.14.15-.14.08,0,.68.03,2.38.03h5.41c1.68,0,2.28-.03,2.38-.03.12,0,.14.02.14.14,0,.1-.03.53-.03,1.73v2.97ZM1117.69,177.34h-8.4v1.12h8.4v-1.12ZM1117.69,179.21h-8.4v1.16h8.4v-1.16ZM1117.69,181.12h-8.4v1.22h8.4v-1.22ZM1120.83,173.99c0,.12-.02.14-.14.14-.08,0-.58-.03-2.07-.03h-.53v.75c0,.75.03,1.07.03,1.17,0,.12-.02.14-.14.14h-.73c-.12,0-.14-.02-.14-.14,0-.1.03-.42.03-1.17v-.75h-2.26c-.17.73-.53,1.43-1.12,2.01-.12.12-.19.19-.25.19s-.14-.07-.25-.17c-.15-.14-.36-.25-.58-.36,1.09-.8,1.39-1.9,1.39-3.03,0-.73.02-1.21-.07-1.6.39.07.7.17,1.05.31,1.26-.14,2.5-.36,3.35-.61.29-.08.54-.19.77-.34.25.2.46.41.68.66.1.12.12.15.12.24,0,.07-.07.14-.2.14-.19,0-.37.02-.63.07-1.19.29-2.38.49-4.11.66v.65c0,.14,0,.26-.02.37h3.6c1.5,0,1.99-.03,2.07-.03.12,0,.14.02.14.14v.61-.02ZM1115.88,183.5c.14-.14.19-.14.29-.08,1.26.78,2.89,1.33,4.67,1.56-.17.2-.29.41-.39.63-.14.32-.15.34-.51.27-1.53-.31-3.23-.97-4.47-1.77-.12-.07-.12-.12.03-.25l.37-.36h0Z"/>
  </g>
  <g>
    <path class="st0" d="M926.84,96.46h9.59v1.5h-7.88v4.29h7.16v1.44h-7.16v4.77h8.11v1.58h-9.82v-13.58Z"/>
    <path class="st0" d="M942.63,104.89l-3.27-4.67h1.79l2.34,3.57h.04l2.43-3.57h1.69l-3.23,4.5,3.84,5.32h-1.8l-2.91-4.22h-.04l-2.85,4.22h-1.73l3.7-5.15h0Z"/>
    <path class="st0" d="M949.62,105.14c0-2.85,1.82-5.17,4.75-5.17,2.32,0,3.86,1.33,4.2,3.42h-1.56c-.23-1.33-1.16-2.15-2.64-2.15-2.09,0-3.17,1.73-3.17,3.89s1.08,3.88,3.17,3.88c1.6,0,2.55-.91,2.68-2.43h1.52c-.21,2.36-1.75,3.72-4.2,3.72-2.92,0-4.75-2.32-4.75-5.17h0Z"/>
    <path class="st0" d="M960.91,105.14c0-2.85,1.86-5.17,4.65-5.17,2.94,0,4.52,2.28,4.52,5.53h-7.6c.11,2,1.2,3.51,3.17,3.51,1.42,0,2.37-.68,2.72-2.01h1.5c-.46,2.11-1.99,3.31-4.22,3.31-3,0-4.75-2.32-4.75-5.17h0ZM962.52,104.34h5.91c-.09-1.96-1.1-3.15-2.87-3.15s-2.81,1.37-3.04,3.15Z"/>
    <path class="st0" d="M973.07,96.46h1.54v13.58h-1.54v-13.58Z"/>
    <path class="st0" d="M978.23,96.46h1.54v13.58h-1.54v-13.58Z"/>
    <path class="st0" d="M982.79,105.14c0-2.85,1.86-5.17,4.65-5.17,2.94,0,4.52,2.28,4.52,5.53h-7.6c.11,2,1.2,3.51,3.17,3.51,1.42,0,2.37-.68,2.72-2.01h1.5c-.46,2.11-1.99,3.31-4.22,3.31-3,0-4.75-2.32-4.75-5.17h0ZM984.41,104.34h5.91c-.09-1.96-1.1-3.15-2.87-3.15s-2.81,1.37-3.04,3.15Z"/>
    <path class="st0" d="M996.44,101.51h.04c.7-.93,1.69-1.52,3.12-1.52,2.05,0,3.3,1.12,3.3,3.15v6.9h-1.54v-6.76c0-1.27-.84-1.99-2.22-1.99-1.56,0-2.7,1.1-2.7,2.72v6.04h-1.54v-9.82h1.54v1.29h0Z"/>
    <path class="st0" d="M1005.54,100.22h1.42v-3.1h1.54v3.1h1.9v1.25h-1.9v6.38c0,.68.36.91.99.91.3,0,.65-.08.82-.13h.06v1.33c-.36.08-.78.13-1.23.13-1.25,0-2.17-.51-2.17-1.9v-6.73h-1.42v-1.25h-.01Z"/>
  </g>
  <g>
    <path class="st0" d="M679.14,96.46h1.84l3.34,10.11c.21.63.53,1.82.53,1.82h.04s.32-1.22.53-1.82l3.31-10.11h1.79l-4.77,13.58h-1.88l-4.73-13.58h0Z"/>
    <path class="st0" d="M691.4,105.14c0-2.85,1.86-5.17,4.65-5.17,2.94,0,4.52,2.28,4.52,5.53h-7.6c.11,2,1.2,3.51,3.17,3.51,1.42,0,2.37-.68,2.72-2.01h1.5c-.46,2.11-1.99,3.31-4.22,3.31-3,0-4.75-2.32-4.75-5.17h0ZM693.01,104.34h5.91c-.09-1.96-1.1-3.15-2.87-3.15s-2.81,1.37-3.04,3.15Z"/>
    <path class="st0" d="M705.04,101.85h.04c.59-.95,1.62-1.75,2.93-1.75.29,0,.44.04.63.11v1.48h-.06c-.23-.08-.38-.09-.68-.09-1.52,0-2.85,1.14-2.85,2.98v5.45h-1.54v-9.82h1.54v1.63h-.01Z"/>
    <path class="st0" d="M711.31,113.08v-1.37h.08c.21.11.53.21,1.04.21.65,0,1.08-.25,1.46-1.2l.38-.97-3.84-9.54h1.67l2.32,6.12c.3.82.67,1.92.67,1.92h.04s.34-1.1.65-1.92l2.24-6.12h1.63l-4.2,10.62c-.8,2.03-1.56,2.45-2.75,2.45-.59,0-.97-.04-1.39-.21h0Z"/>
    <path class="st0" d="M736.97,108.25h-.04c-.99,1.39-2.45,2.07-4.24,2.07-3.82,0-6.38-2.91-6.38-7.03s2.26-7.12,6.54-7.12c3.15,0,5.09,1.71,5.53,4.37h-1.77c-.38-1.8-1.65-2.89-3.8-2.89-3.27,0-4.75,2.45-4.75,5.64s1.94,5.55,4.69,5.55,4.1-1.9,4.1-4.18v-.32h-4.08v-1.48h5.79v7.18h-1.1l-.49-1.79Z"/>
    <path class="st0" d="M741.57,105.14c0-2.85,1.82-5.17,4.75-5.17s4.73,2.32,4.73,5.17-1.79,5.17-4.73,5.17-4.75-2.32-4.75-5.17ZM749.48,105.14c0-2.17-1.06-3.89-3.15-3.89s-3.17,1.73-3.17,3.89,1.08,3.88,3.17,3.88,3.15-1.71,3.15-3.88Z"/>
    <path class="st0" d="M753.47,105.14c0-2.85,1.82-5.17,4.75-5.17s4.73,2.32,4.73,5.17-1.79,5.17-4.73,5.17-4.75-2.32-4.75-5.17ZM761.37,105.14c0-2.17-1.06-3.89-3.15-3.89s-3.17,1.73-3.17,3.89,1.08,3.88,3.17,3.88,3.15-1.71,3.15-3.88Z"/>
    <path class="st0" d="M765.36,105.16c0-3.27,1.88-5.17,4.31-5.17,1.39,0,2.45.68,3.08,1.61h.04v-5.15h1.54v13.58h-1.54v-1.2h-.04c-.74.95-1.65,1.48-3.04,1.48-2.68,0-4.35-2.01-4.35-5.17v.02ZM772.88,105.18c0-2.28-1.1-3.88-3.13-3.88-1.86,0-2.81,1.67-2.81,3.88s.95,3.86,2.83,3.86c2.18,0,3.12-1.63,3.12-3.86h-.01Z"/>
  </g>
  <g>
    <path class="st0" d="M571.21,108.25h-.04c-.99,1.39-2.45,2.07-4.24,2.07-3.82,0-6.38-2.91-6.38-7.03s2.26-7.12,6.54-7.12c3.15,0,5.09,1.71,5.53,4.37h-1.77c-.38-1.8-1.65-2.89-3.8-2.89-3.27,0-4.75,2.45-4.75,5.64s1.94,5.55,4.69,5.55,4.1-1.9,4.1-4.18v-.32h-4.08v-1.48h5.79v7.18h-1.1l-.49-1.79Z"/>
    <path class="st0" d="M575.81,105.14c0-2.85,1.82-5.17,4.75-5.17s4.73,2.32,4.73,5.17-1.79,5.17-4.73,5.17-4.75-2.32-4.75-5.17ZM583.71,105.14c0-2.17-1.06-3.89-3.15-3.89s-3.17,1.73-3.17,3.89,1.08,3.88,3.17,3.88,3.15-1.71,3.15-3.88Z"/>
    <path class="st0" d="M587.7,105.14c0-2.85,1.82-5.17,4.75-5.17s4.73,2.32,4.73,5.17-1.79,5.17-4.73,5.17-4.75-2.32-4.75-5.17ZM595.6,105.14c0-2.17-1.06-3.89-3.15-3.89s-3.17,1.73-3.17,3.89,1.08,3.88,3.17,3.88,3.15-1.71,3.15-3.88Z"/>
    <path class="st0" d="M599.6,105.16c0-3.27,1.88-5.17,4.31-5.17,1.39,0,2.45.68,3.08,1.61h.04v-5.15h1.54v13.58h-1.54v-1.2h-.04c-.74.95-1.65,1.48-3.04,1.48-2.68,0-4.35-2.01-4.35-5.17v.02ZM607.12,105.18c0-2.28-1.1-3.88-3.13-3.88-1.86,0-2.81,1.67-2.81,3.88s.95,3.86,2.83,3.86c2.18,0,3.12-1.63,3.12-3.86h-.01Z"/>
  </g>
  <g>
    <path class="st0" d="M426.44,96.07h9.21v1.5h-7.5v4.24h6.25v1.44h-6.25v6.4h-1.71v-13.58Z"/>
    <path class="st0" d="M443.76,108.31h-.02c-.59.76-1.52,1.54-3.19,1.54-1.86,0-3.38-.93-3.38-2.79,0-2.3,1.84-2.81,4.31-3.06,1.5-.15,2.32-.4,2.32-1.46s-.74-1.73-2.15-1.73c-1.6,0-2.41.7-2.53,2.17h-1.48c.11-1.84,1.39-3.32,3.99-3.32,2.09,0,3.57.78,3.57,3.12v5.49c0,.72.19,1.24.36,1.35v.06h-1.5c-.17-.17-.29-.49-.3-1.35v-.02ZM443.82,106.03v-1.5c-.51.27-1.42.51-2.28.61-1.69.21-2.74.47-2.74,1.88,0,1.31,1.04,1.65,2.05,1.65,2.05,0,2.96-1.5,2.96-2.64h.01Z"/>
    <path class="st0" d="M448.67,96.07h1.54v1.9h-1.54v-1.9ZM448.67,99.83h1.54v9.82h-1.54v-9.82Z"/>
    <path class="st0" d="M455.26,101.47h.04c.59-.95,1.61-1.75,2.93-1.75.28,0,.44.04.63.11v1.48h-.06c-.23-.08-.38-.09-.68-.09-1.52,0-2.85,1.14-2.85,2.98v5.45h-1.54v-9.82h1.54v1.63h-.01Z"/>
  </g>
  <g>
    <path class="st0" d="M279.02,96.46h5.66c1.42,0,2.53.48,3.23,1.31.57.66.91,1.56.91,2.58,0,2.49-1.42,3.99-4.39,3.99h-3.7v5.7h-1.71s0-13.58,0-13.58ZM280.73,102.95h3.57c1.92,0,2.83-.97,2.83-2.53s-1.01-2.49-2.74-2.49h-3.67v5.02h.01Z"/>
    <path class="st0" d="M290.84,105.14c0-2.85,1.82-5.17,4.75-5.17s4.73,2.32,4.73,5.17-1.79,5.17-4.73,5.17-4.75-2.32-4.75-5.17ZM298.74,105.14c0-2.17-1.06-3.89-3.15-3.89s-3.17,1.73-3.17,3.89,1.08,3.88,3.17,3.88,3.15-1.71,3.15-3.88Z"/>
    <path class="st0" d="M302.73,105.14c0-2.85,1.82-5.17,4.75-5.17s4.73,2.32,4.73,5.17-1.79,5.17-4.73,5.17-4.75-2.32-4.75-5.17ZM310.64,105.14c0-2.17-1.06-3.89-3.15-3.89s-3.17,1.73-3.17,3.89,1.08,3.88,3.17,3.88,3.15-1.71,3.15-3.88Z"/>
    <path class="st0" d="M316.72,101.85h.04c.59-.95,1.61-1.75,2.93-1.75.28,0,.44.04.63.11v1.48h-.06c-.23-.08-.38-.09-.68-.09-1.52,0-2.85,1.14-2.85,2.98v5.45h-1.54v-9.82h1.54v1.63h-.01Z"/>
  </g>
  <rect class="st5" x="230.5" y="1.38" width="909" height="35" rx="17.5" ry="17.5"/>
  <path id="_1" class="st3" d="M1113.5,23.97v-9.99l5.99,5-5.99,5h0Z"/>
  <path id="_2" class="st3" d="M251.47,14v9.99l-5.99-5,5.99-5h0Z"/>
  <g>
    <path class="st3" d="M259.48,9.58h1.7v15.01h-1.7v-15.01Z"/>
    <path class="st3" d="M264.52,19.17c0-3.15,2.02-5.71,5.25-5.71s5.23,2.56,5.23,5.71-1.97,5.71-5.23,5.71-5.25-2.56-5.25-5.71ZM273.25,19.17c0-2.39-1.18-4.3-3.49-4.3s-3.51,1.91-3.51,4.3,1.2,4.28,3.51,4.28,3.49-1.89,3.49-4.28Z"/>
    <path class="st3" d="M276.99,13.73h1.83l1.91,6.7c.25.9.59,2.33.59,2.33h.04s.31-1.43.55-2.29l1.83-6.74h1.78l1.76,6.74c.23.88.52,2.29.52,2.29h.04s.34-1.43.61-2.33l2.02-6.7h1.76l-3.55,10.85h-1.74l-1.81-6.57c-.25-.9-.52-2.27-.52-2.27h-.04s-.29,1.36-.55,2.27l-1.83,6.57h-1.76s-3.44-10.85-3.44-10.85Z"/>
  </g>
  <g>
    <path class="st3" d="M1067.14,15.16h.04c.78-1.03,1.87-1.68,3.44-1.68,2.27,0,3.65,1.24,3.65,3.49v7.62h-1.7v-7.47c0-1.41-.92-2.2-2.46-2.2-1.72,0-2.98,1.22-2.98,3v6.68h-1.7v-15.01h1.7v5.58h0Z"/>
    <path class="st3" d="M1078.1,9.58h1.7v2.1h-1.7v-2.1ZM1078.1,13.73h1.7v10.85h-1.7v-10.85Z"/>
    <path class="st3" d="M1083.41,25.2h1.57c.17,1.2,1.3,1.66,2.98,1.66,2,0,3.11-.9,3.11-2.79v-1.53h-.04c-.8,1.03-1.66,1.68-3.21,1.68-2.81,0-4.75-2.25-4.75-5.38,0-3.38,2.12-5.35,4.64-5.35,1.58,0,2.58.61,3.32,1.64h.04v-1.39h1.7v10.27c0,2.86-1.89,4.2-4.77,4.2s-4.41-1.13-4.6-3h.01ZM1091.2,18.75c0-2.37-1.01-3.84-3.32-3.84-2.04,0-3.07,1.6-3.07,3.95s1.07,3.93,3.09,3.93c2.5,0,3.3-1.74,3.3-4.03h0Z"/>
    <path class="st3" d="M1098.37,15.16h.04c.78-1.03,1.87-1.68,3.44-1.68,2.27,0,3.65,1.24,3.65,3.49v7.62h-1.7v-7.47c0-1.41-.92-2.2-2.46-2.2-1.72,0-2.98,1.22-2.98,3v6.68h-1.7v-15.01h1.7v5.58h0Z"/>
  </g>
  <rect class="st2" x="230.5" y="1.38" width="909" height="35" rx="17.5" ry="17.5"/>
  <path id="_21" data-name="_2" class="st3" d="M1113.5,23.97v-9.99l5.99,5-5.99,5h0Z"/>
  <path id="_21" class="st3" d="M251.47,14v9.99l-5.99-5,5.99-5h0Z"/>
  <g>
    <path class="st3" d="M259.48,9.58h1.7v15.01h-1.7v-15.01Z"/>
    <path class="st3" d="M264.52,19.17c0-3.15,2.02-5.71,5.25-5.71s5.23,2.56,5.23,5.71-1.97,5.71-5.23,5.71-5.25-2.56-5.25-5.71ZM273.25,19.17c0-2.39-1.18-4.3-3.49-4.3s-3.51,1.91-3.51,4.3,1.2,4.28,3.51,4.28,3.49-1.89,3.49-4.28Z"/>
    <path class="st3" d="M276.99,13.73h1.83l1.91,6.7c.25.9.59,2.33.59,2.33h.04s.31-1.43.55-2.29l1.83-6.74h1.78l1.76,6.74c.23.88.52,2.29.52,2.29h.04s.34-1.43.61-2.33l2.02-6.7h1.76l-3.55,10.85h-1.74l-1.81-6.57c-.25-.9-.52-2.27-.52-2.27h-.04s-.29,1.36-.55,2.27l-1.83,6.57h-1.76s-3.44-10.85-3.44-10.85Z"/>
  </g>
  <g>
    <path class="st3" d="M1067.14,15.16h.04c.78-1.03,1.87-1.68,3.44-1.68,2.27,0,3.65,1.24,3.65,3.49v7.62h-1.7v-7.47c0-1.41-.92-2.2-2.46-2.2-1.72,0-2.98,1.22-2.98,3v6.68h-1.7v-15.01h1.7v5.58h0Z"/>
    <path class="st3" d="M1078.1,9.58h1.7v2.1h-1.7v-2.1ZM1078.1,13.73h1.7v10.85h-1.7v-10.85Z"/>
    <path class="st3" d="M1083.41,25.2h1.57c.17,1.2,1.3,1.66,2.98,1.66,2,0,3.11-.9,3.11-2.79v-1.53h-.04c-.8,1.03-1.66,1.68-3.21,1.68-2.81,0-4.75-2.25-4.75-5.38,0-3.38,2.12-5.35,4.64-5.35,1.58,0,2.58.61,3.32,1.64h.04v-1.39h1.7v10.27c0,2.86-1.89,4.2-4.77,4.2s-4.41-1.13-4.6-3h.01ZM1091.2,18.75c0-2.37-1.01-3.84-3.32-3.84-2.04,0-3.07,1.6-3.07,3.95s1.07,3.93,3.09,3.93c2.5,0,3.3-1.74,3.3-4.03h0Z"/>
    <path class="st3" d="M1098.37,15.16h.04c.78-1.03,1.87-1.68,3.44-1.68,2.27,0,3.65,1.24,3.65,3.49v7.62h-1.7v-7.47c0-1.41-.92-2.2-2.46-2.2-1.72,0-2.98,1.22-2.98,3v6.68h-1.7v-15.01h1.7v5.58h0Z"/>
  </g>
  <g>
    <path class="st0" d="M80.77,85.25c.65.99,1.24,1.71,2.39,2.67-.2.14-.38.34-.5.59-.07.13-.13.18-.18.18s-.13-.05-.25-.16c-.81-.83-1.44-1.55-1.94-2.45-.76,1.37-1.69,2.5-2.86,3.57-.11.09-.18.13-.23.13-.09,0-.14-.09-.22-.27-.09-.22-.22-.43-.36-.59,1.31-1.06,2.16-2.18,2.84-3.4.23-.45.32-.76.36-.97.36.07.74.16,1.04.27.13.04.2.09.2.16,0,.09-.07.16-.16.22l-.13.07v-.02ZM80.64,98.13c.77-.23,1.58-.5,2.41-.81-.04.2-.05.41-.05.65,0,.38,0,.34-.36.47-1.33.45-2.77.92-4.25,1.33-.38.11-.59.22-.67.27-.07.05-.18.13-.25.13-.09,0-.16-.05-.22-.16-.14-.31-.25-.65-.36-.99.49-.05.97-.14,1.67-.31.34-.07.72-.16,1.1-.27v-5.37h-.58c-1.28,0-1.67.04-1.78.04-.13,0-.14-.02-.14-.14v-.68c0-.13.02-.14.14-.14.11,0,.5.04,1.78.04h.58v-1.94h-.04c-1.08,0-1.37.04-1.48.04-.13,0-.14-.02-.14-.14v-.67c0-.13.02-.14.14-.14.11,0,.4.04,1.48.04h1.08c1.1,0,1.37-.04,1.46-.04.14,0,.16.02.16.14v.67c0,.13-.02.14-.16.14-.09,0-.36-.04-1.46-.04h-.07v1.94h.18c1.3,0,1.67-.04,1.78-.04.13,0,.14.02.14.14v.68c0,.13-.02.14-.14.14-.11,0-.49-.04-1.78-.04h-.18v5.06h.01ZM77.96,94.17c.2-.05.23-.11.29.04.36.97.52,1.82.67,2.77.02.13,0,.16-.18.22l-.41.14c-.23.07-.27.11-.29-.05-.13-.97-.32-1.87-.65-2.75-.05-.14-.04-.2.18-.25l.4-.11h0ZM82.91,94.69c-.09.07-.16.16-.23.38-.16.5-.34,1.06-.68,1.87-.07.18-.13.2-.29.11-.14-.07-.34-.16-.56-.18.32-.81.54-1.49.72-2.21.05-.2.09-.4.11-.65.41.13.68.22.9.32.13.05.16.09.16.16,0,.09-.05.14-.13.2ZM93.28,99.87c0,.13-.02.14-.14.14-.09,0-.68-.04-2.47-.04h-5.38c-1.78,0-2.4.04-2.48.04-.13,0-.14-.02-.14-.14v-.63c0-.14.02-.16.14-.16.05,0,.4.02,1.19.04v-2.88c0-1.04-.04-1.48-.04-1.57,0-.14.02-.16.14-.16.09,0,.63.04,2.23.04h3.33c1.62,0,2.14-.04,2.25-.04.13,0,.14.02.14.16,0,.09-.04.52-.04,1.57v2.88c.74-.02,1.04-.04,1.12-.04.13,0,.14.02.14.16v.63h0ZM88.08,93.19c0,.11-.02.13-.14.13-.11,0-.34-.04-1.28-.04h-1.53c-1.12,0-1.49.04-1.6.04-.13,0-.14-.02-.14-.13s.04-.67.04-2.03v-3.58c0-1.39-.04-1.95-.04-2.05,0-.13.02-.14.14-.14.11,0,.49.04,1.6.04h1.3c1.1,0,1.4-.04,1.49-.04.14,0,.16.02.16.14v.63c0,.13-.02.14-.16.14-.09,0-.38-.04-1.48-.04h-.04v1.51c.81,0,1.1-.02,1.19-.02.13,0,.13.02.13.14,0,.09-.02.34-.02,1.06v.65c0,.7.02.95.02,1.04,0,.14,0,.16-.13.16-.09,0-.36-.04-1.19-.04v1.69h.25c.94,0,1.17-.04,1.28-.04.13,0,.14.02.14.14v.64ZM85.58,86.26h-1.3v1.51h1.3v-1.51ZM86.91,88.51h-2.63v1.53h2.63v-1.53ZM85.58,90.78h-1.3v1.69h1.3v-1.69ZM86.4,95.39h-1.46v3.73h1.46v-3.73ZM88.67,95.39h-1.42v3.73h1.42v-3.73ZM93.03,87.95c0,.13-.02.14-.13.14-.09,0-.38-.04-1.42-.04h-1.84c-.22.52-.47,1.03-.79,1.55-.09.16-.14.23-.2.23s-.13-.05-.25-.14c-.18-.14-.38-.25-.56-.29.83-1.19,1.19-2.09,1.6-3.62.11-.4.18-.77.18-1.06.38.07.68.16.95.27.14.05.25.13.25.22,0,.07-.07.14-.14.22-.09.09-.18.23-.27.5l-.41,1.22h1.48c1.04,0,1.33-.04,1.42-.04.11,0,.13.02.13.14v.7ZM92.71,92.06c0,.13-.02.14-.16.14-.09,0-.32-.04-1.26-.04h-1.06c-.92,0-1.15.04-1.24.04-.13,0-.14-.02-.14-.14v-.74c0-.13.02-.14.14-.14.09,0,.32.04,1.24.04h1.06c.94,0,1.17-.04,1.26-.04.14,0,.16.02.16.14v.74ZM91.05,95.39h-1.53v3.73h1.53v-3.73Z"/>
    <path class="st0" d="M104.96,98.67c1.04.16,2.36.23,4.07.23.9,0,1.93-.04,2.99-.09-.13.25-.2.5-.25.76-.07.36-.07.38-.43.4-.58.02-1.13.04-1.69.04-7.11-.02-8.26-1.15-9.45-3.47-.59,1.49-1.46,2.59-2.65,3.62-.13.11-.2.18-.25.18-.07,0-.13-.07-.25-.22-.18-.22-.38-.38-.61-.49,1.85-1.37,3.15-3.33,3.47-6.27.05-.41.07-.67.05-1.01.41.05.74.13,1.04.2.22.05.27.11.27.2,0,.11-.07.2-.13.29-.07.09-.14.25-.18.45-.11.67-.23,1.28-.4,1.84.67,1.58,1.4,2.57,3.31,3.1v-7.63h-1.94c-1.8,0-2.38.04-2.47.04-.14,0-.16-.02-.16-.14v-.76c0-.13.02-.14.16-.14.09,0,.67.04,2.47.04h5.01c1.78,0,2.38-.04,2.47-.04.13,0,.14.02.14.14v.76c0,.13-.02.14-.14.14-.09,0-.68-.04-2.47-.04h-1.98v3.03h2.68c1.28,0,1.66-.04,1.76-.04.13,0,.14.02.14.14v.76c0,.13-.02.14-.14.14-.11,0-.49-.04-1.76-.04h-2.68v3.89h0ZM111.66,88.1c0,1.53.04,1.75.04,1.85,0,.13-.02.14-.14.14h-.83c-.13,0-.14-.02-.14-.14v-2.48h-12.28v2.48c0,.13-.02.14-.14.14h-.83c-.13,0-.14-.02-.14-.14,0-.11.04-.32.04-1.85v-.56c0-.59-.04-.85-.04-.96s.02-.13.14-.13c.09,0,.7.04,2.48.04h3.89v-.25c0-.92-.02-1.4-.13-1.84.49.02.83.04,1.17.09.14.02.22.07.22.14,0,.13-.05.2-.11.32-.07.18-.07.45-.07,1.28v.25h4.27c1.78,0,2.39-.04,2.5-.04.13,0,.14.02.14.13s-.04.36-.04.83v.7Z"/>
    <path class="st0" d="M120.37,89.23c0,.13-.02.14-.16.14-.09,0-.41-.04-1.48-.04.47,1.48.86,2.43,1.57,3.49-.14.2-.29.47-.41.74-.05.13-.11.18-.14.18-.05,0-.09-.05-.14-.18-.47-1.06-.76-1.89-1.08-3.28.02,5.44.18,9.94.18,10.19,0,.11-.02.13-.14.13h-.81c-.13,0-.14-.02-.14-.13,0-.25.14-4.77.18-10.03-.49,2.2-.94,3.83-1.85,5.63-.07.13-.13.2-.18.2s-.09-.05-.14-.18c-.11-.27-.29-.5-.45-.67,1.08-1.93,1.62-3.49,2.3-6.1h-.11c-1.17,0-1.49.04-1.58.04-.14,0-.16-.02-.16-.14v-.72c0-.13.02-.14.16-.14.09,0,.41.04,1.58.04h.31v-1.78c0-1.08-.02-1.6-.13-2.2.43.02.74.05,1.1.11.13.02.22.07.22.14,0,.14-.05.23-.11.36-.09.2-.09.52-.09,1.55v1.82c1.15,0,1.48-.04,1.57-.04.14,0,.16.02.16.14v.72h-.03ZM127.05,94.51c.09.4.2.77.32,1.13.14.47.31.9.5,1.3.41-.38.79-.77,1.08-1.15.23-.32.38-.56.49-.86.29.14.63.32.81.49.13.11.14.16.14.22,0,.09-.05.14-.16.2-.14.07-.32.25-.5.47-.38.47-.85.95-1.4,1.44.63.97,1.33,1.57,1.82,1.57s.72-.54.86-2.3c.14.16.38.31.58.41.23.12.32.3.27.54-.25,1.71-.67,2.41-1.62,2.41s-1.91-.74-2.7-1.98c-1.08.79-2.41,1.55-3.98,2.05-.34.11-.34.13-.5-.22-.11-.2-.25-.38-.45-.54,1.69-.4,3.26-1.21,4.48-2.11-.22-.43-.41-.92-.58-1.42-.18-.5-.34-1.06-.47-1.64h-3.24c-.22,2.36-.86,4.23-2.36,5.67-.13.13-.18.18-.25.18s-.14-.05-.27-.2c-.16-.18-.32-.29-.52-.4,1.62-1.3,2.27-2.99,2.41-5.26-1.1.02-1.51.04-1.58.04-.13,0-.14-.02-.14-.14v-.68c0-.13.02-.14.14-.14.09,0,.7.04,2.52.04h3.1c-.43-2.11-.67-4.48-.77-6.81-.04-1.24-.07-1.66-.2-2.3.43.02.74.05,1.1.11.13.02.27.09.27.16,0,.13-.05.22-.11.34-.05.14-.07.54-.05,1.64.05,2.41.32,4.83.76,6.86h2.25c1.84,0,2.43-.04,2.54-.04s.13.02.13.14v.68c0,.13-.02.14-.13.14s-.7-.04-2.54-.04h-2.05ZM124.04,89.99c.13-.05.16-.05.22.05.34.58.68,1.39.92,2.07.05.13.02.16-.13.23l-.41.18c-.18.09-.22.11-.25-.04l-.2-.58c-.95.18-1.94.32-2.68.41-.4.04-.52.09-.61.16-.07.05-.14.09-.2.09-.09,0-.16-.07-.2-.2-.07-.25-.14-.59-.18-.88.22.02.4.02.58.02.45-.54.92-1.17,1.35-1.8-.63-.85-1.24-1.53-1.94-2.16-.09-.07-.11-.09.05-.27l.32-.34c.09-.11.11-.11.2-.04l.4.38c.45-.61.86-1.33,1.13-1.89.09-.2.18-.41.23-.67.31.11.65.27.86.41.13.07.16.11.16.2,0,.07-.07.14-.16.2-.11.07-.2.14-.29.32-.32.52-.81,1.37-1.33,2.02.31.34.61.68.9,1.03l.61-1.01c.16-.27.29-.52.36-.81.32.14.65.34.86.5.09.07.14.14.14.2,0,.09-.07.14-.18.2-.16.09-.31.31-.63.76-.54.79-1.3,1.87-1.96,2.7.59-.05,1.22-.13,1.93-.23-.13-.27-.27-.56-.41-.81-.07-.13-.05-.16.13-.23l.41-.18h0ZM123.27,95.82c.09-.11.13-.13.25-.05.59.34,1.19.76,1.75,1.22.09.07.07.13-.02.25l-.27.38c-.14.2-.18.2-.29.09-.52-.5-1.12-.95-1.71-1.3-.13-.07-.11-.09.04-.27,0,0,.25-.32.25-.32ZM130.51,89.61c.16-.09.18-.05.25.05.4.61.79,1.42,1.08,2.18.04.11,0,.16-.13.22l-.38.18c-.2.09-.22.07-.25-.05-.07-.23-.16-.45-.27-.68-1.03.16-2.09.32-2.81.4-.4.05-.54.13-.63.18-.07.04-.14.07-.2.07-.09,0-.16-.07-.2-.2-.07-.23-.13-.56-.18-.85.18.02.34.02.52.02.38-.47.77-.97,1.15-1.51-.63-.86-1.21-1.57-1.91-2.2-.11-.09-.11-.11.05-.27l.32-.34c.13-.13.13-.11.22-.04.14.14.29.27.41.41.41-.59.79-1.24,1.04-1.76.11-.2.2-.45.25-.7.31.11.65.27.86.41.13.07.16.11.16.2,0,.07-.07.16-.16.2-.11.05-.2.14-.29.32-.31.5-.77,1.3-1.28,1.94.31.34.58.68.85,1.03.29-.41.56-.85.79-1.26.16-.27.29-.52.36-.81.32.14.65.36.86.5.09.07.14.14.14.2,0,.09-.05.14-.18.2-.16.07-.31.31-.63.76-.54.77-1.3,1.85-1.96,2.65.65-.05,1.33-.13,2.09-.23-.14-.29-.31-.56-.47-.81-.07-.13-.05-.13.16-.23l.32-.16.05-.02ZM128.76,92.04c.13-.11.18-.11.31-.02.32.25.67.56.99.9.11.11.09.13-.04.23l-.29.25c-.16.14-.18.14-.29.02-.29-.36-.67-.7-.99-.94-.13-.09-.11-.11.07-.25l.23-.2h0Z"/>
    <path class="st0" d="M142.11,88.33c0,1.19.04,1.64.04,1.73,0,.13-.02.14-.14.14-.09,0-.54-.04-1.8-.04h-3.26v6.55c0,2.48.04,3.55.04,3.66,0,.13-.02.14-.14.14h-.85c-.13,0-.14-.02-.14-.14,0-.11.04-1.17.04-3.66v-7.8c0-2.57-.04-3.67-.04-3.78,0-.13.02-.14.14-.14.11,0,.7.04,2.03.04h2.18c1.26,0,1.71-.04,1.8-.04.13,0,.14.02.14.14,0,.11-.04.56-.04,1.66v1.53h0ZM141.09,85.92h-4.14v1.24h4.14v-1.24ZM141.09,88.01h-4.14v1.31h4.14v-1.31ZM147.82,95.79c0,.13-.02.14-.14.14-.11,0-.68-.04-2.39-.04h-1.6c.97,1.19,2.14,1.76,3.98,2.25-.14.16-.27.38-.4.65-.13.29-.14.31-.47.18-1.62-.58-2.83-1.35-3.85-2.74l-.27.56c-.59,1.12-1.76,2.09-3.89,2.75-.21.06-.37,0-.49-.16-.2-.29-.36-.47-.54-.59,2.25-.58,3.48-1.33,4.09-2.41.09-.16.16-.32.23-.49h-1.26c-1.75,0-2.32.04-2.41.04-.13,0-.14-.02-.14-.14v-.65c0-.13.02-.14.14-.14.09,0,.67.04,2.41.04h1.53c.09-.43.13-.92.14-1.5h-1.35c-1.67,0-2.23.04-2.32.04-.13,0-.14-.02-.14-.14v-.63c0-.13.02-.14.14-.14.09,0,.63.04,2.21.04-.25-.49-.52-.94-.85-1.35-.09-.13-.05-.16.13-.23l.41-.18c.18-.07.22-.09.31.02.36.47.76,1.08,1.08,1.75h1.91c.23-.43.43-.83.61-1.19.11-.23.2-.49.25-.74.32.07.63.16.88.25.13.05.2.11.2.2s-.05.14-.13.2c-.11.09-.22.23-.29.38-.14.23-.31.54-.54.9,1.64,0,2.18-.04,2.29-.04.13,0,.14.02.14.14v.63c0,.13-.02.14-.14.14-.11,0-.65-.04-2.32-.04h-1.48c-.02.49-.07.99-.18,1.5h1.96c1.71,0,2.29-.04,2.39-.04.13,0,.14.02.14.14v.65h.02ZM150.31,95.95c0,.99.05,1.98.05,2.67,0,.79-.13,1.1-.47,1.37-.34.29-.76.36-2.12.36-.21,0-.35-.11-.41-.34-.09-.34-.18-.56-.32-.79.47.05.79.07,1.26.07.79,0,.95-.14.95-.86v-8.25h-3.39c-1.4,0-1.85.04-1.94.04-.14,0-.16-.02-.16-.14,0-.09.04-.43.04-1.62v-1.75c0-1.1-.04-1.44-.04-1.55,0-.13.02-.14.16-.14.09,0,.54.04,1.94.04h2.39c1.39,0,1.85-.04,1.94-.04.13,0,.14.02.14.14,0,.11-.04.83-.04,2.58v8.23l.02-.02ZM149.24,85.92h-4.43v1.24h4.43v-1.24ZM149.24,88.01h-4.43v1.31h4.43v-1.31Z"/>
    <path class="st0" d="M82.27,114.57c-.45-1.78-1.55-2.77-3.22-2.77-2.29,0-3.93,1.93-3.93,5.58s1.53,5.58,3.91,5.58c2.21,0,3.29-1.94,3.38-4.36h-3.51v-1.28h4.99v6.73h-1.1l-.18-2.12c-.7,1.49-2.03,2.32-3.71,2.32-3.19,0-5.44-2.48-5.44-6.86s2.4-6.9,5.56-6.9c2.5,0,4.14,1.46,4.77,3.67l-1.53.4h.01Z"/>
    <path class="st0" d="M90.26,124.01h-1.57v-13.27h1.57s0,13.27,0,13.27Z"/>
    <path class="st0" d="M104.61,124.01h-1.64l-1.28-4.21h-4.74l-1.33,4.21h-1.53l4.27-13.27h1.98s4.27,13.27,4.27,13.27ZM100.36,115.35c-.34-1.12-.61-2.14-.94-3.4h-.27c-.31,1.26-.58,2.27-.92,3.38l-.97,3.24h4.09s-.99-3.22-.99-3.22Z"/>
    <path class="st0" d="M112.55,117.49c0,.81-.67,1.49-1.49,1.49s-1.49-.68-1.49-1.49.68-1.49,1.49-1.49,1.49.67,1.49,1.49Z"/>
    <path class="st0" d="M126.8,114.72c-.45-1.95-1.57-2.92-3.22-2.92-2.25,0-3.91,1.93-3.91,5.58s1.67,5.58,3.91,5.58c1.76,0,2.9-.88,3.37-2.97l1.49.5c-.76,2.63-2.45,3.76-4.88,3.76-3.19,0-5.55-2.5-5.55-6.86s2.38-6.9,5.55-6.9c2.5,0,4.2,1.42,4.79,3.8l-1.55.41v.02Z"/>
    <path class="st0" d="M140.47,114.57c-.45-1.78-1.55-2.77-3.22-2.77-2.29,0-3.92,1.93-3.92,5.58s1.53,5.58,3.91,5.58c2.21,0,3.29-1.94,3.38-4.36h-3.51v-1.28h4.99v6.73h-1.1l-.18-2.12c-.7,1.49-2.03,2.32-3.71,2.32-3.19,0-5.44-2.48-5.44-6.86s2.4-6.9,5.56-6.9c2.5,0,4.14,1.46,4.77,3.67l-1.53.4h0Z"/>
    <path class="st0" d="M148.46,122.68h6.57v1.33h-8.14v-13.27h1.57v11.94h0Z"/>
  </g>
</svg>